<svg width="451" height="67" viewBox="0 0 451 67" fill="none" xmlns="http://www.w3.org/2000/svg">
<path d="M16.3914 43.9189C21.4886 43.9189 21.1463 38.137 23.809 38.137C24.9121 38.137 25.5587 38.7076 25.5587 40.2672C25.5587 42.9679 25.2544 44.3753 24.2274 45.3263C22.82 46.6196 19.3584 47.4184 16.5056 47.4184C8.13706 47.4184 1.8607 41.9789 1.8607 33.5343C1.8607 25.0898 8.51745 19.384 17.0001 19.384C19.891 19.384 22.3635 20.0306 23.6568 20.9055C24.9882 21.8185 25.1783 22.6553 25.1783 23.7204V25.318C25.1783 26.9917 24.7219 27.9427 23.3905 27.9427C21.907 27.9427 21.3745 26.0407 20.0431 24.5192C19.1683 23.5302 17.913 22.6173 15.8969 22.6173C10.6856 22.6173 8.74568 28.0948 8.74568 32.7736C8.74568 37.3382 10.4574 43.9189 16.3914 43.9189ZM42.6969 38.0229C42.6969 35.2841 41.8981 29.5403 38.0182 29.5403C35.4315 29.5403 33.9861 31.7465 33.9861 35.5884C33.9861 38.2511 34.899 44.4895 38.7028 44.4895C41.3656 44.4895 42.6969 41.6366 42.6969 38.0229ZM38.6268 26.7254C44.7129 26.7254 48.7831 31.0238 48.7831 36.9578C48.7831 42.6636 44.2565 47.4184 38.3225 47.4184C32.2363 47.4184 27.9379 43.4244 27.9379 37.186C27.9379 31.4803 32.5026 26.7254 38.6268 26.7254ZM86.5343 44.8698C87.0288 45.1741 87.4853 45.4404 87.4853 46.011C87.4472 46.6577 86.8386 47 86.0017 47H77.8235C76.9866 47 76.3399 46.6577 76.3399 46.011C76.3399 45.4404 76.7964 45.1741 77.2909 44.8698C78.0136 44.4134 78.4701 43.9189 78.6983 43.2722C78.8885 42.7397 79.0787 41.9028 79.0787 39.2782V34.5233C79.0787 32.7355 78.2799 30.9858 75.9976 30.9858C75.1988 30.9858 74.2859 31.252 73.5251 32.0128C72.2318 33.2681 72.1937 35.3982 72.1937 39.2782C72.1937 42.093 72.2698 43.082 72.3839 43.5385C72.4981 44.071 72.7643 44.4895 73.2588 44.8318C73.6392 45.1361 74.2478 45.4024 74.2478 46.011C74.2098 46.6577 73.6012 47 72.7643 47H65.9174C65.1186 47 64.4719 46.6577 64.4719 46.011C64.4719 45.4024 65.0044 45.1361 65.4609 44.8318C65.9174 44.4895 66.1836 44.071 66.2978 43.5385C66.4119 43.082 66.488 42.1311 66.488 39.2782V34.9798C66.488 32.9638 65.8033 30.9858 63.4068 30.9858C62.6461 30.9858 61.8472 31.252 61.2006 31.8987C59.9073 33.154 59.603 35.2461 59.603 39.2782C59.603 41.9028 59.8312 42.7397 59.9834 43.2722C60.2116 43.9189 60.6681 44.4895 61.3908 44.9079C61.9233 45.2122 62.3417 45.4404 62.3417 46.011C62.3417 46.6577 61.6951 47 60.8582 47H52.6799C51.8431 47 51.2345 46.6577 51.2345 46.011C51.2345 45.4404 51.6529 45.1741 52.1474 44.9079C52.9082 44.4895 53.3266 43.9189 53.5548 43.2722C53.745 42.7397 53.9352 41.9028 53.9352 39.2782V34.3332C53.9352 33.23 53.8972 32.4312 53.6689 31.8226C53.4407 31.214 53.0223 30.8716 52.2615 30.5673C51.8811 30.4152 51.0823 30.225 51.0823 29.5023C51.0823 29.0077 51.5008 28.7034 52.3756 28.4752C54.0874 28.0568 56.1795 27.4482 57.5489 26.9537C57.8532 26.8395 58.1955 26.7254 58.5759 26.7254C59.1085 26.7254 59.603 26.9537 59.603 28.0187V29.9207C59.603 30.0348 59.679 30.1109 59.7551 30.1109C59.7932 30.1109 59.8692 30.1109 59.9453 29.9968C61.5049 27.7144 63.7872 26.7254 66.1456 26.7254C68.4279 26.7254 70.5581 27.8286 71.6612 29.8446C71.7753 30.0348 71.8514 30.0728 71.9275 30.0728C72.0035 30.0728 72.0796 30.0728 72.2318 29.8446C73.6772 27.7525 75.9596 26.7254 78.318 26.7254C80.296 26.7254 82.4261 27.6003 83.6053 29.4642C84.4422 30.7956 84.7465 32.4693 84.7465 34.4853V39.2782C84.7465 41.9028 84.9367 42.7397 85.1269 43.2722C85.3551 43.9189 85.7735 44.4134 86.5343 44.8698ZM101.63 44.4895C104.673 44.4895 105.891 41.4083 105.891 37.7566C105.891 33.5343 104.065 30.8716 101.63 30.8716C99.1577 30.8716 97.2939 33.0398 97.2939 37.4523C97.3319 42.093 99.2338 44.4895 101.63 44.4895ZM107.716 27.7905C110.607 29.5023 111.863 32.7355 111.863 36.0449C111.863 41.6366 108.287 47.4184 101.935 47.4184C99.3099 47.4184 97.7503 46.4675 97.4841 46.4675C97.408 46.4675 97.3319 46.5055 97.3319 46.6577V47.0761C97.3319 49.3584 97.5221 50.1192 97.7123 50.6137C97.9405 51.2603 98.3589 51.7929 99.0817 52.2493C99.5762 52.5536 100.033 52.7438 100.033 53.3524C100.033 53.9991 99.386 54.3414 98.5872 54.3414H90.4469C89.6481 54.3414 89.0014 53.9991 89.0014 53.3524C89.0014 52.7438 89.4579 52.5536 89.9524 52.2493C90.6751 51.7929 91.0936 51.2603 91.3218 50.6137C91.512 50.0811 91.7022 49.2823 91.7022 46.7337V34.3332C91.7022 33.23 91.6641 32.4312 91.474 31.8226C91.2838 31.214 90.8273 30.8716 90.0665 30.5673C89.6481 30.3771 88.8873 30.1869 88.8873 29.5783C88.8873 29.0077 89.2677 28.7034 90.1426 28.4752C91.8924 28.0568 93.9845 27.4482 95.3539 26.9537C95.5821 26.8776 95.9625 26.7254 96.3429 26.7254C96.8374 26.7254 97.3319 26.9917 97.3319 28.0187V29.5403C97.3319 29.8066 97.446 29.9587 97.5982 29.9587C97.7123 29.9587 97.8264 29.8826 97.9405 29.7305C99.3479 27.9807 101.554 26.7254 103.951 26.7254C105.168 26.7254 106.461 27.0678 107.716 27.7905ZM127.815 26.7254C130.021 26.7254 131.086 28.4372 131.086 30.3771C131.086 31.5563 130.477 32.6975 129.222 32.6975C128.043 32.6975 127.396 31.6704 126.065 31.6704C122.946 31.6704 122.642 36.7296 122.642 39.2782C122.642 41.9409 122.832 42.7397 123.022 43.2722C123.212 43.9189 123.669 44.4895 124.429 44.9079C124.924 45.1741 125.342 45.4404 125.342 46.011C125.342 46.6577 124.734 47 123.897 47H115.719C114.882 47 114.235 46.6957 114.235 46.011C114.235 45.4404 114.653 45.2122 115.186 44.9079C115.909 44.4895 116.365 43.9189 116.593 43.2722C116.784 42.7397 116.936 41.9409 116.936 39.2782V34.2951C116.936 33.23 116.898 32.4312 116.708 31.8226C116.517 31.214 116.137 30.8336 115.3 30.5293C114.882 30.3771 114.121 30.225 114.121 29.4642C114.121 28.9697 114.501 28.6654 115.376 28.4752C117.088 28.0948 118.571 27.6384 120.055 27.0297C120.587 26.8015 120.93 26.7254 121.234 26.7254C121.805 26.7254 122.261 27.0678 122.261 27.9807V30.8716C122.261 30.9858 122.299 31.0238 122.337 31.0238C122.375 31.0238 122.413 31.0238 122.489 30.8716C123.402 29.0458 125.38 26.7254 127.815 26.7254ZM136.992 33.5343C136.954 33.7626 136.954 33.8006 136.954 33.8767C136.954 34.0669 137.068 34.219 137.335 34.219H141.747C143.116 34.219 144.143 33.9908 144.143 32.5453C144.143 31.1379 143.002 29.5783 141.062 29.5783C138.932 29.5783 137.411 31.1379 136.992 33.5343ZM148.556 41.9789C148.974 41.9789 149.393 42.3213 149.393 42.7777C149.393 43.6146 148.252 44.8318 147.11 45.5926C145.399 46.7337 143.116 47.4184 140.834 47.4184C135.28 47.4184 131.096 43.5765 131.096 37.6045C131.096 31.8987 135.318 26.7254 141.253 26.7254C145.551 26.7254 149.773 29.7305 149.773 34.4853C149.773 36.6915 148.784 37.0339 146.54 37.0339H137.411C137.182 37.0339 136.992 37.11 136.992 37.3762C136.992 37.4523 136.992 37.5284 137.03 37.8327C137.068 38.2131 137.22 39.4303 138.019 40.6856C139.313 42.7016 141.291 43.5385 143.573 43.5385C146.578 43.5385 147.643 41.9789 148.556 41.9789ZM175.104 44.8698C175.636 45.1741 176.055 45.4404 176.055 46.011C176.055 46.6577 175.408 47 174.571 47H166.355C165.518 47 164.871 46.6577 164.871 46.011C164.871 45.4404 165.328 45.1741 165.822 44.8698C166.583 44.4134 167.002 43.8808 167.23 43.2722C167.42 42.7397 167.61 41.9028 167.61 39.2401V34.5614C167.61 32.5453 166.659 31.0238 164.529 31.0238C163.73 31.0238 162.779 31.2901 162.019 32.0508C160.725 33.3061 160.307 35.3602 160.307 39.2401C160.307 41.9028 160.497 42.7397 160.687 43.2722C160.877 43.8808 161.334 44.4514 162.095 44.8698C162.589 45.1741 163.046 45.4404 163.046 46.011C163.046 46.6577 162.399 47 161.562 47H153.422C152.585 47 151.976 46.6577 151.976 46.011C151.976 45.4404 152.395 45.1741 152.889 44.8698C153.65 44.4514 154.107 43.8808 154.297 43.2722C154.487 42.7397 154.677 41.9028 154.677 39.2401V34.3712C154.677 33.2681 154.639 32.4693 154.411 31.8606C154.183 31.252 153.802 30.9097 153.08 30.6054C152.661 30.4152 151.862 30.1869 151.862 29.5403C151.862 29.0077 152.281 28.6654 153.156 28.4752C154.905 28.0568 156.769 27.4862 158.215 26.9537C158.633 26.8015 158.937 26.7254 159.318 26.7254C159.812 26.7254 160.307 26.9917 160.307 28.0187V29.8446C160.307 30.0348 160.383 30.1109 160.459 30.1109C160.535 30.1109 160.611 30.0348 160.687 29.9207C162.247 27.7144 164.491 26.7254 166.849 26.7254C168.866 26.7254 170.958 27.6003 172.175 29.5023C173.05 30.7956 173.316 32.5073 173.316 34.5614V39.2401C173.316 41.9028 173.544 42.7397 173.696 43.2722C173.887 43.8808 174.381 44.4514 175.104 44.8698ZM188.173 43.3103C190.379 43.3103 192.357 41.2562 192.357 36.6915C192.357 32.165 190.569 29.6544 187.983 29.6544C184.673 29.6544 183.76 33.5343 183.76 36.4633C183.76 40.4193 185.396 43.3103 188.173 43.3103ZM199.584 43.5765C200.003 43.7667 200.802 43.995 200.802 44.6796C200.802 45.1361 200.383 45.4404 199.508 45.6686C197.797 46.0871 195.819 46.6957 194.677 47.0761C194.107 47.2663 193.726 47.4184 193.346 47.4184C192.852 47.4184 192.357 47.1522 192.357 46.1251V44.6036C192.357 44.3373 192.243 44.1851 192.091 44.1851C191.977 44.1851 191.863 44.2612 191.748 44.4134C190.341 46.1632 188.135 47.4184 185.738 47.4184C181.022 47.4184 177.826 43.2722 177.826 38.099C177.826 32.4693 181.44 26.7254 187.754 26.7254C189.238 26.7254 190.721 27.0678 191.863 27.5623C192.053 27.6384 192.129 27.6764 192.205 27.6764C192.319 27.6764 192.357 27.6003 192.357 27.4101V26.1929C192.357 25.0898 192.319 24.291 192.091 23.6823C191.863 23.0737 191.444 22.7314 190.683 22.4271C190.303 22.2749 189.504 22.0467 189.504 21.4C189.504 20.8295 189.923 20.5632 190.797 20.335C192.509 19.9165 194.639 19.3079 195.971 18.8134C196.199 18.7373 196.579 18.5852 196.96 18.5852C197.454 18.5852 197.949 18.8514 197.949 19.8785V39.8107C197.949 40.9138 197.987 41.7126 198.215 42.3213C198.443 42.9299 198.862 43.2722 199.584 43.5765ZM212.036 21.7424C212.036 22.9216 209.564 25.3941 208.422 25.3941C207.243 25.3941 204.771 22.8835 204.771 21.7424C204.771 20.6012 207.243 18.1287 208.422 18.1287C209.564 18.1287 212.036 20.6012 212.036 21.7424ZM213.025 44.9079C213.52 45.2122 213.976 45.4024 213.976 46.011C213.976 46.6577 213.329 47 212.493 47H204.314C203.477 47 202.831 46.6577 202.831 46.011C202.831 45.4404 203.249 45.2122 203.782 44.9079C204.504 44.4895 204.961 43.9189 205.189 43.2722C205.379 42.7397 205.57 41.9409 205.57 39.2782V34.3332C205.57 33.23 205.531 32.4312 205.303 31.8226C205.075 31.214 204.657 30.8716 203.896 30.5673C203.477 30.3771 202.717 30.1869 202.717 29.5023C202.717 28.9697 203.097 28.7034 203.972 28.4752C205.722 28.0568 207.89 27.4482 209.259 26.9537C209.487 26.8776 209.868 26.7254 210.248 26.7254C210.743 26.7254 211.237 26.9917 211.237 28.0187V39.2782C211.237 41.9028 211.427 42.7397 211.618 43.2722C211.846 43.9189 212.302 44.4895 213.025 44.9079ZM221.91 33.5343C221.872 33.7626 221.872 33.8006 221.872 33.8767C221.872 34.0669 221.986 34.219 222.253 34.219H226.665C228.035 34.219 229.062 33.9908 229.062 32.5453C229.062 31.1379 227.92 29.5783 225.98 29.5783C223.85 29.5783 222.329 31.1379 221.91 33.5343ZM233.474 41.9789C233.892 41.9789 234.311 42.3213 234.311 42.7777C234.311 43.6146 233.17 44.8318 232.029 45.5926C230.317 46.7337 228.035 47.4184 225.752 47.4184C220.199 47.4184 216.014 43.5765 216.014 37.6045C216.014 31.8987 220.237 26.7254 226.171 26.7254C230.469 26.7254 234.691 29.7305 234.691 34.4853C234.691 36.6915 233.702 37.0339 231.458 37.0339H222.329C222.101 37.0339 221.91 37.11 221.91 37.3762C221.91 37.4523 221.91 37.5284 221.948 37.8327C221.986 38.2131 222.139 39.4303 222.937 40.6856C224.231 42.7016 226.209 43.5385 228.491 43.5385C231.496 43.5385 232.561 41.9789 233.474 41.9789ZM260.022 44.8698C260.555 45.1741 260.973 45.4404 260.973 46.011C260.973 46.6577 260.326 47 259.489 47H251.273C250.436 47 249.79 46.6577 249.79 46.011C249.79 45.4404 250.246 45.1741 250.741 44.8698C251.501 44.4134 251.92 43.8808 252.148 43.2722C252.338 42.7397 252.528 41.9028 252.528 39.2401V34.5614C252.528 32.5453 251.577 31.0238 249.447 31.0238C248.649 31.0238 247.698 31.2901 246.937 32.0508C245.643 33.3061 245.225 35.3602 245.225 39.2401C245.225 41.9028 245.415 42.7397 245.605 43.2722C245.796 43.8808 246.252 44.4514 247.013 44.8698C247.507 45.1741 247.964 45.4404 247.964 46.011C247.964 46.6577 247.317 47 246.48 47H238.34C237.503 47 236.895 46.6577 236.895 46.011C236.895 45.4404 237.313 45.1741 237.808 44.8698C238.568 44.4514 239.025 43.8808 239.215 43.2722C239.405 42.7397 239.595 41.9028 239.595 39.2401V34.3712C239.595 33.2681 239.557 32.4693 239.329 31.8606C239.101 31.252 238.72 30.9097 237.998 30.6054C237.579 30.4152 236.78 30.1869 236.78 29.5403C236.78 29.0077 237.199 28.6654 238.074 28.4752C239.824 28.0568 241.687 27.4862 243.133 26.9537C243.551 26.8015 243.856 26.7254 244.236 26.7254C244.731 26.7254 245.225 26.9917 245.225 28.0187V29.8446C245.225 30.0348 245.301 30.1109 245.377 30.1109C245.453 30.1109 245.529 30.0348 245.605 29.9207C247.165 27.7144 249.409 26.7254 251.768 26.7254C253.784 26.7254 255.876 27.6003 257.093 29.5023C257.968 30.7956 258.234 32.5073 258.234 34.5614V39.2401C258.234 41.9028 258.462 42.7397 258.615 43.2722C258.805 43.8808 259.299 44.4514 260.022 44.8698ZM273.091 43.3103C275.297 43.3103 277.275 41.2562 277.275 36.6915C277.275 32.165 275.487 29.6544 272.901 29.6544C269.591 29.6544 268.678 33.5343 268.678 36.4633C268.678 40.4193 270.314 43.3103 273.091 43.3103ZM284.503 43.5765C284.921 43.7667 285.72 43.995 285.72 44.6796C285.72 45.1361 285.301 45.4404 284.426 45.6686C282.715 46.0871 280.737 46.6957 279.596 47.0761C279.025 47.2663 278.645 47.4184 278.264 47.4184C277.77 47.4184 277.275 47.1522 277.275 46.1251V44.6036C277.275 44.3373 277.161 44.1851 277.009 44.1851C276.895 44.1851 276.781 44.2612 276.667 44.4134C275.259 46.1632 273.053 47.4184 270.656 47.4184C265.94 47.4184 262.744 43.2722 262.744 38.099C262.744 32.4693 266.358 26.7254 272.673 26.7254C274.156 26.7254 275.64 27.0678 276.781 27.5623C276.971 27.6384 277.047 27.6764 277.123 27.6764C277.237 27.6764 277.275 27.6003 277.275 27.4101V26.1929C277.275 25.0898 277.237 24.291 277.009 23.6823C276.781 23.0737 276.362 22.7314 275.602 22.4271C275.221 22.2749 274.422 22.0467 274.422 21.4C274.422 20.8295 274.841 20.5632 275.716 20.335C277.427 19.9165 279.558 19.3079 280.889 18.8134C281.117 18.7373 281.497 18.5852 281.878 18.5852C282.372 18.5852 282.867 18.8514 282.867 19.8785V39.8107C282.867 40.9138 282.905 41.7126 283.133 42.3213C283.361 42.9299 283.78 43.2722 284.503 43.5765ZM302.318 38.0229C302.318 35.2841 301.519 29.5403 297.639 29.5403C295.052 29.5403 293.607 31.7465 293.607 35.5884C293.607 38.2511 294.52 44.4895 298.324 44.4895C300.986 44.4895 302.318 41.6366 302.318 38.0229ZM298.248 26.7254C304.334 26.7254 308.404 31.0238 308.404 36.9578C308.404 42.6636 303.877 47.4184 297.943 47.4184C291.857 47.4184 287.559 43.4244 287.559 37.186C287.559 31.4803 292.123 26.7254 298.248 26.7254Z" fill="#4573A6"/>
<g clip-path="url(#clip0_123_96)">
<path d="M347.091 5.57178C342.752 30.8181 353.699 53.9935 372.239 62.524C373.496 63.1157 390.977 70.808 407.495 61.7844C424.581 52.4649 433.309 29.2649 426.479 5.57178C411.341 8.50568 392.283 10.4781 370.513 8.77688C362.081 8.11121 354.241 6.97709 347.091 5.57178Z" fill="#4573A6" stroke="#4573A6" stroke-width="0.246546" stroke-miterlimit="10"/>
<path d="M347.091 5.81802C358.728 3.62376 373.176 1.89794 389.744 2.11983C403.772 2.31706 416.149 3.87031 426.479 5.81802" stroke="#4573A6" stroke-width="1.97237" stroke-miterlimit="10"/>
<path d="M425.715 16.4445C426.405 16.3459 437.401 14.8666 443.565 20.8577C448.496 25.6407 446.967 31.9276 446.597 33.4316C444.206 43.2194 430.227 50.9857 411.686 53.6484" stroke="#4573A6" stroke-width="5.67057" stroke-miterlimit="10"/>
</g>
<defs>
<clipPath id="clip0_123_96">
<rect width="104.289" height="65.5813" fill="white" transform="translate(345.859 0.887207)"/>
</clipPath>
</defs>
</svg>
