<svg width="29" height="30" viewBox="0 0 29 30" fill="none" xmlns="http://www.w3.org/2000/svg">
<path d="M3.4179 28.8512C6.47978 23.227 9.67706 17.6537 11.9998 11.6681C13.0105 9.06377 13.9339 6.15442 13.5584 3.31711C13.1068 -0.0951622 9.77883 0.0249522 7.38174 1.72003C2.97793 4.83415 1.7215 10.2305 1.12483 15.1875C0.575761 19.749 1.96019 23.6234 6.91994 22.232C10.9081 21.1131 17.178 18.5815 18.8885 14.4005C20.0095 11.6602 16.7159 14.1363 14.9246 17.0751C13.1333 20.014 14.4023 20.5184 17.2914 19.1532C21.4324 17.1965 24.9068 14.4962 28.0092 11.1871" stroke="#AAACB0" stroke-width="1.125" stroke-linecap="round"/>
<path d="M11.7305 23.3096C16.266 21.5916 20.5385 19.1915 24.892 17.0752" stroke="#AAACB0" stroke-width="1.125" stroke-linecap="round"/>
</svg>
