<svg width="214" height="270" viewBox="0 0 214 270" fill="none" xmlns="http://www.w3.org/2000/svg">
<g clip-path="url(#clip0_595_2990)">
<rect width="212" height="212" rx="106" fill="#605070"/>
<path d="M-2.35726 350.757L-4.77441 300.554L-2.08903 251.577L190.329 267.3L190.531 268.645C192.135 279.401 193.359 288.555 194.17 295.853C194.981 303.151 195.4 308.797 195.416 312.636V312.872C195.435 315.072 195.578 317.27 195.844 319.454C196.128 321.919 196.559 324.703 197.127 327.73C198.262 333.785 199.988 341.061 202.259 349.362L202.541 350.391L-2.35726 350.757ZM102.027 239.216C85.3045 239.216 65.7481 239.039 43.8992 238.691C44.1971 228.895 44.7378 220.14 45.5074 212.669C45.8919 208.933 46.3418 205.439 46.845 202.284C47.3482 199.128 47.9173 196.223 48.5404 193.648C49.0887 191.316 49.7726 189.017 50.5888 186.764C51.2278 184.981 52.0326 183.262 52.9926 181.63C53.7282 180.364 54.6595 179.222 55.7519 178.246C56.6423 177.457 57.7112 176.896 58.8666 176.612L59.6501 176.433C62.9555 175.69 65.9327 175.131 68.56 174.637C76.0888 173.223 81.0623 172.288 84.2654 168.885C85.0979 167.988 85.8157 166.992 86.4022 165.918C87.0137 164.805 87.5343 163.645 87.959 162.448C88.8086 159.948 89.5133 157.401 90.0697 154.819V154.819C90.4778 153.089 90.8636 151.456 91.3201 149.904C91.7146 148.928 92.4312 148.116 93.3509 147.603C94.6666 146.772 96.0856 146.116 97.5719 145.654C99.4373 145.046 101.35 144.594 103.29 144.302C105.448 143.967 107.629 143.798 109.813 143.797C110.49 143.797 111.168 143.814 111.828 143.847C113.769 143.952 115.697 144.221 117.593 144.65C119.329 145.036 121.034 145.553 122.692 146.196C124.004 146.69 125.26 147.322 126.439 148.081C127.408 148.736 127.997 149.365 128.145 149.902C128.426 150.918 128.736 152.595 129.129 154.718C129.931 159.526 131.029 164.28 132.417 168.953C133.088 171.172 134.003 173.309 135.146 175.325C135.629 176.157 136.207 176.93 136.866 177.631C137.432 178.236 138.107 178.729 138.857 179.084C141.528 180.288 145.29 180.63 149.271 180.994C152.589 181.296 156.02 181.609 158.959 182.451C160.361 182.824 161.698 183.406 162.927 184.177C163.498 184.545 164.026 184.975 164.501 185.459C164.977 185.947 165.388 186.494 165.724 187.087C166.819 189.017 168.561 192.476 170.502 196.579C172.601 201.013 174.818 205.952 176.745 210.487C179.024 215.849 180.848 220.503 182.167 224.322C183.703 228.77 184.482 231.891 184.482 233.596C184.482 234.062 184.048 234.505 183.193 234.912C181.952 235.437 180.655 235.819 179.328 236.052C175.908 236.751 170.706 237.341 163.867 237.808C157.028 238.276 148.359 238.628 138.1 238.861C127.842 239.094 115.704 239.216 102.027 239.216Z" fill="#E9B279"/>
<path d="M36.1512 353.453C35.9203 353.449 35.6944 353.385 35.4951 353.269C35.2958 353.152 35.1297 352.986 35.0128 352.787C34.258 351.559 33.729 350.205 33.4506 348.791C33.1491 347.345 32.9358 345.882 32.8118 344.411L32.7131 343.392C32.3698 339.861 32.1137 336.749 31.9314 333.874C31.5681 328.144 31.3259 322.462 31.2169 316.985C31.1019 311.266 31.1243 305.578 31.2842 300.08C31.4622 293.942 32.0344 287.953 32.5708 282.905C32.7828 280.924 32.9802 279.177 33.1763 277.565L33.18 276.933C33.18 276.77 33.18 276.557 33.1733 276.357L33.12 274.642C33.0776 273.278 33.0346 271.823 33.0171 270.351L33.0098 269.493L33.0013 267.895C32.1349 267.787 31.2771 267.62 30.434 267.393C29.966 267.279 29.5258 267.171 29.1153 267.09C27.3278 266.746 25.4599 266.361 23.564 265.943C20.0721 265.17 16.4797 264.235 12.5827 263.087L11.8107 262.859C8.42169 261.927 5.10689 260.744 1.89383 259.319C0.62941 258.758 -0.56707 258.054 -1.67256 257.222C-1.70284 257.646 -1.74098 258.077 -1.77792 258.494C-1.8203 258.966 -1.8639 259.455 -1.89538 259.934C-1.95109 260.772 -2.01225 261.623 -2.07219 262.445V262.46C-2.13819 263.375 -2.20661 264.322 -2.26777 265.261L-2.37797 266.952C-2.55053 269.637 -2.72068 272.52 -2.79637 275.412C-3.18086 289.888 -3.09912 301.655 -2.5463 312.442C-2.20782 319.084 -1.74643 325.128 -1.13669 330.919C-0.851504 333.638 -0.501526 336.841 -0.0704103 339.98C0.096102 341.188 0.318925 342.413 0.535089 343.598C0.909006 345.471 1.18569 347.361 1.36402 349.262C1.39738 349.571 1.36651 349.884 1.27335 350.18C1.1802 350.476 1.02677 350.75 0.822702 350.985C0.574346 351.246 0.274009 351.452 -0.0589734 351.591C-0.391956 351.729 -0.750205 351.796 -1.11066 351.787C-1.65451 351.791 -2.18718 351.633 -2.64136 351.334C-3.12233 351.008 -3.46702 350.517 -3.61016 349.953C-4.19341 347.511 -4.60075 345.03 -4.82903 342.53C-4.9362 341.604 -5.04701 340.646 -5.17356 339.717L-5.22624 339.342C-5.69368 336.06 -6.11208 332.517 -6.50444 328.511C-7.1166 322.27 -7.50291 315.959 -7.65368 309.752C-7.80627 303.488 -7.7221 297.164 -7.40422 290.958C-7.13961 285.75 -6.53411 280.059 -5.49992 273.045L-5.3982 272.36C-5.30192 271.719 -5.20625 271.068 -5.11301 270.439C-4.82055 268.457 -4.5178 266.407 -4.17448 264.396L-4.00131 263.403C-3.89959 262.831 -3.8015 262.237 -3.70704 261.661C-3.45029 259.881 -3.0894 258.117 -2.62622 256.379L-2.8218 256.193C-3.21435 255.834 -3.56662 255.434 -3.87234 254.999C-4.36355 254.941 -4.81751 254.708 -5.15176 254.343C-5.32904 254.129 -5.46084 253.88 -5.53912 253.613C-5.6174 253.346 -5.64052 253.066 -5.60709 252.79C-5.41575 250.67 -5.02653 248.573 -4.44454 246.526C-3.88142 244.449 -3.19236 242.399 -2.52631 240.416L-2.49543 240.323L-2.31984 239.801C-0.925966 235.64 0.69104 231.557 2.52415 227.57C5.7472 220.575 9.66445 213.922 14.2169 207.71C18.7415 201.527 23.8933 195.829 29.59 190.706C32.5895 187.998 35.7541 185.478 39.0654 183.161C40.7529 181.991 42.4653 180.898 44.1546 179.913C45.9209 178.884 47.7168 177.941 49.4933 177.111C53.0498 175.397 56.8159 174.157 60.6951 173.423C62.6206 173.052 64.5714 172.825 66.5309 172.746C67.1242 172.384 67.8065 172.196 68.5011 172.201C69.5997 172.234 70.6625 172.599 71.5498 173.248L71.6334 173.308L72.0276 173.388C72.0488 173.393 72.0676 173.405 72.0806 173.423C72.0937 173.44 72.1002 173.462 72.099 173.484C72.1008 173.507 72.0947 173.529 72.0817 173.548C72.0686 173.567 72.0496 173.581 72.0276 173.587C72.021 173.588 72.0146 173.59 72.0088 173.593C72.261 173.796 72.4997 174.016 72.7233 174.251C73.0558 174.585 73.2656 175.021 73.3185 175.49C73.3561 175.913 73.2721 176.337 73.0763 176.714C74.1292 177.744 75.0546 178.896 75.8325 180.147C76.6276 181.387 77.3463 182.731 78.0396 184.03L78.0493 184.048L78.2424 184.412C79.0314 185.884 79.9564 187.279 81.0053 188.579C82.0512 189.87 83.2138 191.063 84.4785 192.141C86.192 193.595 88.0315 194.895 89.9752 196.023C91.9313 197.165 93.9813 198.137 96.1028 198.93C98.225 199.722 100.412 200.33 102.639 200.746C104.852 201.161 107.099 201.371 109.351 201.375C112.705 201.389 116.041 200.879 119.239 199.865C121.405 199.163 123.473 198.186 125.39 196.958C127.329 195.721 129.109 194.25 130.69 192.58C132.276 190.91 133.643 189.046 134.759 187.031C135.875 185.017 136.702 182.857 137.214 180.612C136.96 180.708 136.419 180.759 136.419 180.759C136.419 180.759 135.943 180.717 135.718 180.634C134.694 180.228 133.835 179.491 133.278 178.541C132.698 177.573 132.211 176.551 131.825 175.49C131.759 175.325 131.691 175.155 131.624 174.99L131.581 174.884C130.71 172.777 129.985 170.612 129.411 168.405C128.837 166.14 128.481 163.825 128.347 161.492C128.302 160.578 128.307 159.663 128.363 158.751L128.403 157.995C128.403 157.955 128.405 157.914 128.409 157.874V157.859C128.374 157.551 128.407 157.24 128.506 156.947C128.606 156.654 128.662 156.265 128.983 156.163C128.983 156.163 129.019 156.141 129.04 156.14C129.04 156.14 129.063 156.144 129.074 156.149C129.306 156.294 129.504 156.486 129.655 156.713C129.806 156.941 129.906 157.198 129.95 157.467V157.474C129.971 157.542 129.994 157.612 130.017 157.681C130.211 158.264 130.429 158.849 130.64 159.414C130.761 159.736 130.882 160.069 131.003 160.401C131.13 160.756 131.256 161.112 131.396 161.506C131.902 162.932 132.426 164.408 133.006 165.839C133.611 167.34 134.435 169.316 135.412 171.281C135.868 172.204 136.352 173.088 136.765 173.83C136.874 174.028 136.979 174.247 137.091 174.48C137.287 174.93 137.811 175.76 137.811 175.76C137.811 175.76 137.887 175.427 137.943 175.266C137.887 175.293 137.834 175.323 137.782 175.356C137.764 175.368 137.743 175.375 137.721 175.375C137.698 175.374 137.675 175.367 137.656 175.355C137.636 175.342 137.62 175.325 137.609 175.304C137.598 175.285 137.592 175.264 137.592 175.242C137.592 175.22 137.598 175.198 137.609 175.18C137.814 174.822 138.118 174.531 138.485 174.342C138.569 174.246 138.812 174.197 139.205 174.197C140.932 174.313 142.644 174.59 144.319 175.025C146.769 175.59 149.556 176.377 152.167 177.243C156.073 178.539 163.081 181.174 166.12 184.263C168.692 186.883 171.085 189.673 173.284 192.614C175.463 195.534 177.464 198.583 179.275 201.744C181.084 204.906 182.723 208.161 184.185 211.498C185.612 214.746 186.931 218.185 188.104 221.719C189.93 227.216 191.681 232.843 193.372 238.284L193.378 238.303C194.041 240.432 194.726 242.635 195.406 244.798C196.723 248.99 198.091 253.238 199.414 257.346L199.42 257.364C200.666 261.231 201.954 265.231 203.195 269.171C203.329 269.59 203.366 270.033 203.304 270.468C203.243 270.878 203.098 271.27 202.88 271.622C202.434 272.332 201.768 272.876 200.984 273.174C198.029 274.296 195.098 275.332 192.272 276.253C193.676 281.881 194.726 287.59 195.417 293.349C195.973 297.812 196.351 302.385 196.717 306.808C197.02 310.472 197.334 314.26 197.747 317.97C198.209 322.132 198.751 325.75 199.4 329.032C199.969 331.902 200.691 334.683 201.322 337.024L201.487 337.635C201.581 337.979 201.676 338.336 201.761 338.651C202.08 339.848 202.412 341.086 202.818 342.274C202.959 342.686 203.117 343.106 203.268 343.512C203.624 344.405 203.922 345.319 204.161 346.25C204.346 347.032 204.3 347.852 204.029 348.609C203.763 349.361 203.235 349.992 202.542 350.387C202.132 350.617 201.67 350.736 201.2 350.734C200.769 350.736 200.345 350.634 199.962 350.437C199.571 350.235 199.248 349.924 199.03 349.542C198.89 349.295 198.801 349.022 198.766 348.741C198.657 348.501 198.561 348.264 198.479 348.036C198.45 347.955 198.419 347.865 198.388 347.751L198.304 347.464C198.099 346.774 197.908 346.071 197.724 345.396C197.417 344.28 197.112 343.187 196.769 342.083L196.596 341.534C195.742 338.858 194.983 336.164 194.34 333.529C193.817 331.38 193.371 329.169 192.98 326.773C192.631 324.638 192.332 322.403 192.067 319.941C191.573 315.368 191.274 310.696 190.985 306.179V306.173C190.937 305.435 190.888 304.673 190.84 303.924L190.807 303.412C190.455 298.083 190.271 293.978 190.209 290.097C190.132 285.261 190.257 280.91 190.589 276.797L190.491 276.83L190.393 276.861C189.399 277.174 188.481 277.455 187.589 277.72L187.568 277.728C187.546 277.737 187.525 277.745 187.503 277.751C186.897 277.944 186.276 278.127 185.659 278.292L185.282 278.392L185.016 278.466L184.736 278.548L184.49 278.623C183.737 278.891 182.948 279.049 182.149 279.091C182.106 279.091 182.064 279.091 182.022 279.091C180.501 279.348 178.962 279.485 177.42 279.499C177.923 287.968 178.466 295.723 179.08 303.206C179.758 311.487 180.678 319.806 181.486 326.954C181.96 331.156 182.429 334.982 182.92 338.65C183.214 340.851 183.477 342.696 183.806 344.543C183.878 344.942 183.963 345.355 184.044 345.754C184.38 347.394 184.726 349.087 184.419 350.708C184.411 350.705 184.403 350.703 184.395 350.702C184.328 351.009 184.198 351.298 184.014 351.552C183.829 351.806 183.594 352.018 183.323 352.176C182.966 352.389 182.558 352.5 182.142 352.498C181.723 352.498 181.312 352.391 180.947 352.186C180.572 351.978 180.264 351.669 180.058 351.294C180.004 351.198 179.953 351.097 179.905 350.995C179.199 351.283 178.44 351.421 177.678 351.399L165.878 351.52C161.001 351.57 155.335 351.631 149.785 351.714C144.423 351.795 139.013 351.881 133.782 351.964H133.775C122.458 352.146 110.755 352.328 99.2448 352.474L92.927 352.549C89.8311 352.582 86.6831 352.627 83.638 352.67H83.6168C77.4117 352.758 70.9958 352.851 64.6877 352.851H64.4964C59.2079 352.851 54.7666 352.828 50.2811 352.716C48.1122 352.661 45.9621 352.578 43.4008 352.47L42.9957 352.451C42.7874 352.441 42.5719 352.429 42.3684 352.417C41.6418 352.377 40.8868 352.335 40.1438 352.335C39.2321 352.319 38.3217 352.409 37.4312 352.605C37.3182 352.852 37.1385 353.062 36.9122 353.212C36.686 353.362 36.4224 353.445 36.1512 353.453Z" fill="#272727"/>
<path d="M151.683 69.7695C155.051 67.3511 150.029 59.3924 148.322 57.0231L143.87 47.759C144.052 45.2256 141.577 42.9713 139.132 43.7421C137.006 42.2168 133.44 42.9471 132.363 45.3352C108.846 35.0913 68.1573 39.3522 66.0532 70.9562C61.5041 79.9546 56.9956 89.0298 52.9599 98.2709C47.3603 98.5737 44.6458 105.375 47.9797 109.771C48.4235 116.91 52.9496 117.476 58.9919 117.158C61.4187 117.797 63.934 118.143 65.7535 120.017C67.0658 121.499 68.1542 123.165 68.9838 124.962C73.1709 132.985 78.4902 139.926 85.7005 145.476C96.9137 153.867 112.093 159.893 126.075 155.807C156.135 144.002 162.039 96.8244 151.683 69.7695Z" fill="#E9B279"/>
<path d="M101.984 22.316C97.5957 22.3119 93.2216 22.808 88.946 23.7947C79.1779 26.1037 70.2924 31.2046 63.3727 38.4756C56.4339 45.7342 51.5232 54.6879 49.132 64.4406C47.7288 69.8934 47.1873 75.5322 47.5274 81.1524C47.7017 83.8897 48.1349 86.6044 48.8214 89.26C49.2793 91.1587 49.9943 92.9861 50.9467 94.6913C50.2481 95.0694 49.5937 95.5241 48.9958 96.047C47.79 97.1411 46.8193 98.469 46.1428 99.9499C45.4662 101.431 45.0978 103.034 45.06 104.661C44.9754 106.582 45.2715 108.5 45.9313 110.305C46.5911 112.11 47.6015 113.767 48.9043 115.18C50.4407 116.745 52.353 117.889 54.458 118.503C56.5769 119.133 58.779 119.439 60.9895 119.411C61.6289 119.411 62.2883 119.389 62.9489 119.345C63.1119 119.336 63.2739 119.313 63.4333 119.278C63.5465 119.641 63.6924 119.993 63.845 120.355C64.1853 121.165 64.5674 121.976 64.9349 122.76V122.764C65.1166 123.15 65.3055 123.551 65.4859 123.944C66.4668 126.077 67.6227 128.133 68.726 130.036L69.3393 131.09C69.4838 131.339 69.6292 131.59 69.7753 131.843L69.7892 131.867C70.8507 133.704 71.9484 135.604 73.2127 137.37C74.4232 139.138 75.9054 140.705 77.6044 142.011C78.3395 142.552 80.2625 143.809 82.248 143.809C82.8337 143.816 83.4134 143.69 83.9434 143.441C84.5569 143.179 85.0606 142.713 85.3683 142.121C85.676 141.529 85.7686 140.849 85.6303 140.196C85.3148 139.046 84.4011 138.297 82.8365 137.905C79.829 137.154 77.8048 134.185 76.0162 131.565C75.6226 130.988 75.252 130.444 74.8778 129.93L74.7113 129.706C72.913 127.278 70.9932 124.944 68.9591 122.711C68.2452 121.933 67.5107 121.184 66.8235 120.489L65.7663 119.424C65.5065 119.164 65.1608 118.826 64.783 118.516C64.8706 118.411 64.9434 118.294 64.9991 118.17C65.206 117.804 65.3148 117.392 65.3148 116.972C65.3148 116.552 65.206 116.14 64.9991 115.775C64.7891 115.417 64.4895 115.121 64.1298 114.915C63.7702 114.708 63.3629 114.6 62.9483 114.599C62.493 114.581 62.0231 114.568 61.5684 114.556C57.8833 114.458 54.0729 114.358 51.6055 111.215C50.6749 110.004 50.0404 108.593 49.7526 107.093C49.4649 105.593 49.5319 104.046 49.9482 102.577C50.7862 99.6782 53.339 97.519 56.7801 96.8021C57.6329 96.6229 58.502 96.532 59.3734 96.5308C61.8959 96.5668 64.3609 97.2899 66.5032 98.6222C66.5293 98.6388 66.5595 98.6478 66.5904 98.6483C66.6155 98.6477 66.6402 98.6408 66.662 98.6282C66.6838 98.6157 66.7021 98.5978 66.7151 98.5762C66.7324 98.5496 66.7429 98.519 66.7457 98.4874C66.7484 98.4557 66.7433 98.4238 66.7308 98.3946C66.4394 97.7111 66.056 97.0706 65.5913 96.4909L65.8226 96.3014L65.848 96.3347C65.9161 96.4156 66.0111 96.4692 66.1157 96.4854C68.2453 96.7181 70.2904 97.4482 72.0859 98.6168C72.2821 98.7512 72.4801 98.9014 72.675 99.0636C72.9988 99.3266 73.4042 99.4683 73.8212 99.4645C74.0411 99.4694 74.2597 99.4302 74.4641 99.3491C74.6684 99.2679 74.8545 99.1466 75.011 98.9922C75.1415 98.8525 75.2417 98.6873 75.3052 98.5071C75.3688 98.3268 75.3944 98.1353 75.3804 97.9447C75.2684 95.3283 74.9251 92.6714 74.5933 90.1016C74.3541 88.2525 74.1089 86.3403 73.9484 84.462C73.5626 79.8285 73.4343 75.1772 73.5639 70.5295V70.4211C73.5639 70.2818 73.5687 70.1408 73.5712 69.9973V69.9918C73.593 68.4781 73.6178 66.7578 74.7216 65.6068C75.1539 65.1527 77.0177 65.0921 79.3767 65.0146C82.4345 64.9147 86.2406 64.79 88.3381 63.7067C88.6829 63.5421 88.9783 63.2896 89.1945 62.9745C89.4107 62.6595 89.5401 62.293 89.5697 61.912C89.5934 61.409 89.4935 60.9078 89.2788 60.4522C89.0641 59.9967 88.7412 59.6006 88.3381 59.2987C86.9357 58.2566 85.8138 55.9685 85.6703 53.8492C85.5896 53.1116 85.6717 52.3653 85.9106 51.6628C86.1495 50.9603 86.5396 50.3187 87.0532 49.7833C89.1246 47.7536 92.6335 46.3543 97.4829 45.6247L97.8305 45.5739C99.7966 45.3015 101.78 45.1698 103.764 45.1797C108.104 45.2724 112.434 45.6307 116.729 46.2526C118.97 46.5305 121.287 46.8182 123.544 47.0186C126.205 47.2608 128.563 47.377 130.75 47.3819H131.072C133.246 47.3819 135.709 47.3819 137.762 46.1479C138.87 46.0165 139.956 45.7388 140.991 45.322C145.746 52.5518 149.174 60.5716 151.114 69.0048C152.865 76.4422 153.53 84.631 153.271 95.5554C152.782 116.148 150.14 136.683 134.259 147.405C130.026 150.316 125.043 151.942 119.908 152.088C119.602 152.097 119.29 152.101 118.981 152.101C116.338 152.09 113.705 151.791 111.127 151.209C109.859 150.932 108.594 150.543 107.373 150.16C105.734 149.606 104.056 149.178 102.353 148.879C102.217 148.859 102.08 148.849 101.943 148.849C101.425 148.838 100.917 148.994 100.495 149.295C100.074 149.596 99.7605 150.026 99.6028 150.52C99.4661 150.987 99.4909 151.488 99.6732 151.94C99.8556 152.392 100.185 152.769 100.608 153.011C102.797 154.479 105.467 155.225 108.013 155.862L108.688 156.03C111.504 156.727 114.375 157.18 117.269 157.383C118.075 157.439 118.892 157.468 119.697 157.468C124.345 157.471 128.945 156.525 133.215 154.69C137.623 152.75 141.587 149.929 144.863 146.399C148.167 142.894 150.877 138.874 152.887 134.497C155.266 129.173 156.914 123.551 157.784 117.785C158.668 112.02 159.159 106.201 159.254 100.37L159.267 99.8532C159.579 88.0823 158.985 79.1839 157.341 71.0012C156.347 65.6957 154.565 60.5686 152.055 55.7898C150.826 53.5041 148.167 50.6703 146.154 48.6958C143.988 46.5717 142.094 44.9678 142.037 44.9217H142.047C142.268 44.9639 142.492 44.9856 142.717 44.9865C142.919 44.9886 143.121 44.9659 143.318 44.9187C143.869 44.7794 143.869 44.7794 144.31 44.0892L144.453 43.8651C144.802 43.3524 144.974 42.7398 144.942 42.1205C144.911 41.5012 144.678 40.9091 144.279 40.4344C141.621 37.5026 138.639 34.8822 135.39 32.6234C132.153 30.3744 128.688 28.4724 125.053 26.9487C121.411 25.4216 117.626 24.2619 113.753 23.4871C109.877 22.7099 105.934 22.3177 101.981 22.316H101.984ZM56.843 104.168C55.4298 104.168 54.4537 104.477 53.9409 105.085C53.7326 105.368 53.5902 105.694 53.5239 106.039C53.4576 106.384 53.4691 106.74 53.5576 107.08C53.5653 107.116 53.5859 107.148 53.6157 107.171C53.6454 107.193 53.6822 107.204 53.7193 107.201C53.7559 107.204 53.7923 107.193 53.8215 107.17C53.8507 107.148 53.8705 107.116 53.8773 107.08C53.8827 106.896 53.9252 106.716 54.0021 106.549C54.079 106.382 54.1889 106.233 54.325 106.11C54.4611 105.986 54.6207 105.892 54.7943 105.832C54.9678 105.772 55.1516 105.748 55.3347 105.761C56.4919 105.761 58.0389 106.592 59.0628 107.141C59.3111 107.275 59.5242 107.389 59.6877 107.468L60.0225 107.625C60.5245 107.858 61.0422 108.082 61.5429 108.298C62.6312 108.747 63.6938 109.255 64.726 109.821L64.8102 109.868C65.1181 110.039 65.4636 110.132 65.8159 110.138C66.9664 110.138 67.7348 109.018 67.8092 107.935C67.8436 107.712 67.8322 107.484 67.7758 107.265C67.7193 107.046 67.619 106.84 67.481 106.661C67.3429 106.482 67.1699 106.333 66.9725 106.223C66.775 106.113 66.5573 106.044 66.3324 106.021L66.261 106.01C65.8202 105.939 65.1105 105.751 64.2089 105.513C62.0667 104.945 59.1324 104.168 56.843 104.168Z" fill="#1A1A1A"/>
<path d="M124.66 102.203C124.562 102.203 124.465 102.203 124.365 102.207C124.084 102.176 123.801 102.248 123.571 102.411C123.34 102.574 123.177 102.816 123.112 103.091C123.071 103.289 123.1 103.495 123.193 103.674C123.287 103.853 123.44 103.995 123.626 104.074C126.065 104.827 129.025 106.375 130.021 108.465C130.249 108.937 130.373 109.454 130.383 109.978C130.394 110.503 130.291 111.024 130.082 111.505C129.34 112.721 128.104 113.338 126.407 113.338C124.093 113.338 121.392 112.214 119.604 111.47L119.184 111.296C118.941 111.213 118.687 111.17 118.431 111.168C117.96 111.164 117.504 111.337 117.155 111.653C116.825 111.953 116.599 112.351 116.509 112.788C116.415 113.226 116.469 113.683 116.662 114.087C116.899 114.547 117.293 114.907 117.773 115.101C120.373 116.212 123.157 116.83 125.983 116.923C128.752 116.923 130.965 116.092 132.381 114.52C132.974 113.85 133.418 113.062 133.683 112.208C133.948 111.353 134.029 110.452 133.92 109.564C133.699 107.603 132.748 105.796 131.255 104.504C129.416 102.951 127.067 102.131 124.66 102.203ZM130.082 128.941C129.748 128.931 129.417 129.011 129.124 129.172C128.83 129.333 128.586 129.569 128.415 129.857C128.35 129.971 128.294 130.073 128.244 130.171C128.105 130.482 127.903 130.76 127.651 130.989C127.398 131.218 127.101 131.391 126.778 131.499C126.099 131.732 125.382 131.833 124.664 131.796C122.909 131.796 120.734 131.406 120.097 130.55L119.431 129.581C119.332 129.46 119.207 129.363 119.066 129.296C118.925 129.23 118.77 129.196 118.614 129.198C118.444 129.182 118.275 129.235 118.143 129.344C118.011 129.453 117.927 129.609 117.91 129.779C117.833 130.415 117.895 131.06 118.092 131.67C118.289 132.279 118.617 132.838 119.052 133.308C119.63 133.961 120.336 134.486 121.128 134.851C121.919 135.215 122.777 135.412 123.648 135.427H123.779C125.965 135.37 129.901 134.398 131.394 132.483C131.644 132.188 131.821 131.839 131.914 131.464C132.006 131.088 132.01 130.697 131.926 130.32C131.825 129.912 131.587 129.552 131.25 129.301C130.914 129.05 130.502 128.923 130.082 128.941Z" fill="black"/>
<path d="M137.923 64.7807C136.802 64.7784 135.686 64.9231 134.603 65.2112C131.969 65.9172 130.262 66.8618 129.53 68.0201C129.35 68.2585 129.228 68.5358 129.175 68.8297C129.121 69.1235 129.137 69.4259 129.221 69.7125C129.316 69.9188 129.46 70.0988 129.64 70.2369C129.82 70.3749 130.031 70.4668 130.255 70.5045C130.279 70.5103 130.303 70.5134 130.327 70.5136C130.383 70.5126 130.438 70.4956 130.484 70.4645C130.531 70.4333 130.568 70.3894 130.591 70.338C130.615 70.2909 130.625 70.238 130.62 70.1854C130.614 70.1328 130.594 70.0828 130.562 70.0413C130.739 69.8588 130.951 69.7145 131.186 69.6174C131.699 69.4226 132.239 69.3096 132.786 69.2826L133.17 69.2469C133.547 69.2117 133.943 69.1936 134.348 69.1936C135.168 69.1957 135.986 69.2625 136.796 69.3934C139.183 69.7751 141.432 70.7647 143.327 72.2671L143.398 72.321C143.978 72.7739 144.689 73.0286 145.425 73.0476C145.776 73.0479 146.124 72.9771 146.447 72.8394C146.771 72.7018 147.063 72.5001 147.306 72.2465C147.579 71.9558 147.791 71.6129 147.929 71.2383C148.066 70.8637 148.127 70.4652 148.107 70.0667C148.101 69.7263 148.026 69.3907 147.884 69.0812C147.743 68.7716 147.538 68.4948 147.284 68.2684C144.67 66.0431 141.356 64.8085 137.923 64.7807ZM102.043 66.0946C100.777 66.1734 99.5306 66.4412 98.3442 66.889C97.9694 67.0101 97.5819 67.1312 97.201 67.2421L96.6839 67.3934C94.5977 67.9264 92.5966 68.7494 90.7391 69.8384C89.0095 70.8844 87.546 72.3172 86.4637 74.0242C85.1661 76.1913 84.7574 77.8643 85.2151 79.1431C85.2704 79.3084 85.3744 79.453 85.5135 79.5579C85.6527 79.6627 85.8204 79.7229 85.9944 79.7305C86.1313 79.7299 86.2652 79.6906 86.3807 79.6172C87.0379 79.1682 87.6358 78.638 88.1603 78.0393C88.6331 77.5108 89.1558 77.0292 89.7213 76.6013C92.5161 74.581 95.7909 73.3272 99.2203 72.9646C99.6327 72.9313 100.042 72.9132 100.438 72.8962C102.462 72.8078 104.21 72.7315 105.482 70.7812C105.809 70.2195 105.941 69.5654 105.858 68.9208C105.775 68.2761 105.481 67.677 105.022 67.2166C104.208 66.478 103.143 66.0773 102.043 66.0946Z" fill="black"/>
<path d="M138.955 88.9467C138.376 88.7892 137.76 88.8334 137.209 89.0721C136.016 89.2907 133.04 92.8486 134.05 94.108C134.605 94.7995 138.036 92.0729 138.036 92.0729C138.036 92.0729 140.023 95.3535 140.841 95.2996C142.653 95.1785 140.901 91.0611 140.845 90.8371L140.841 90.8401C140.707 90.3934 140.465 89.9868 140.136 89.6564C139.807 89.3261 139.401 89.0823 138.955 88.9467V88.9467Z" fill="black"/>
<path d="M136.027 120.218C134.147 119.345 132.129 118.808 130.064 118.631C129.169 118.551 127.409 118.298 126.457 118.882C126.003 119.166 125.619 119.55 125.336 120.004C125.204 119.854 125.082 119.696 124.969 119.532C124.447 118.598 121.246 118.578 120.279 118.657C117.997 118.838 115.759 119.389 113.654 120.289C109.882 121.914 106.714 125.29 107.71 129.576C107.804 129.851 107.998 130.081 108.255 130.218C108.511 130.355 108.811 130.389 109.091 130.314L120.419 128.19L123.049 127.697C123.905 127.615 124.75 127.435 125.565 127.159C125.888 127.288 126.222 127.382 126.564 127.442C131.106 128.344 135.656 129.22 140.202 130.106C140.484 130.178 140.783 130.137 141.036 129.994C141.289 129.85 141.476 129.614 141.559 129.335C142.212 125.306 139.646 121.91 136.027 120.218Z" fill="black"/>
<path opacity="0.95" d="M100.739 107.188C99.1877 107.194 97.6449 106.958 96.1664 106.488C94.6998 106.025 93.3305 105.298 92.1259 104.342C90.874 103.338 89.8399 102.09 89.0869 100.673C88.2323 99.033 87.698 97.2452 87.5126 95.4052C87.4714 95.4052 87.4351 95.4052 87.4012 95.4052C86.4925 95.3821 85.6109 95.0909 84.8671 94.5684C84.0926 94.0476 83.4426 93.3622 82.9635 92.5612C81.8802 92.6308 80.7298 92.6641 79.4479 92.6641C77.2203 92.6641 74.897 92.5594 72.6494 92.4583H72.6106C70.3449 92.3565 68.0022 92.2512 65.7007 92.2512C63.8466 92.2401 61.9934 92.3288 60.1489 92.517C58.3514 92.6981 56.5741 93.0416 54.8386 93.5433C54.6996 93.8065 54.488 94.0242 54.2289 94.1707C53.9698 94.3172 53.6741 94.3863 53.377 94.3698C52.8897 94.3655 52.4132 94.2259 52.0007 93.9666C51.8171 93.8683 51.6579 93.73 51.5351 93.5619C51.4122 93.3937 51.3288 93.2001 51.291 92.9953C51.2915 92.7562 51.3569 92.5216 51.4803 92.3168C51.6037 92.1119 51.7804 91.9444 51.9916 91.8322C52.8563 91.309 53.814 90.958 54.812 90.7986C56.5878 90.353 58.3957 90.0463 60.2191 89.8813C61.8836 89.7214 63.6928 89.6439 65.7503 89.6439C68.0088 89.6439 70.3085 89.7365 72.5319 89.8255H72.5392C74.7589 89.9152 77.0532 90.0072 79.2826 90.0072C80.8696 90.0072 82.2835 89.9612 83.6065 89.8661C85.4463 88.6935 87.1422 87.3092 88.6594 85.7415C89.5368 84.9028 90.4444 84.0364 91.3841 83.2631C92.3126 82.4806 93.3286 81.8081 94.4116 81.2589C96.8901 79.8894 99.6737 79.1666 102.505 79.1573C104.972 79.1218 107.401 79.7619 109.529 81.0083C110.603 81.6583 111.561 82.4821 112.365 83.446C113.243 84.5099 113.938 85.7114 114.424 87.0021C116.621 86.1638 118.957 85.7514 121.308 85.7869C122.74 85.7868 124.169 85.9163 125.577 86.1738C125.972 85.1873 126.517 84.2672 127.191 83.4454C127.785 82.4276 128.517 81.4963 129.365 80.6777C131.115 78.981 133.251 77.7359 135.59 77.0501C136.74 76.7122 137.932 76.5379 139.131 76.5324C140.562 76.5108 141.981 76.7969 143.291 77.3715C144.602 77.9461 145.774 78.7957 146.727 79.8627C147.022 79.8942 147.145 80.1872 147.234 80.4016C147.254 80.4745 147.292 80.5415 147.343 80.5971C147.659 81.0065 147.949 81.435 148.213 81.8802C148.897 82.4076 149.661 82.8236 150.475 83.113C151.16 83.3643 151.811 83.6993 152.413 84.1102C152.686 84.3112 152.922 84.559 153.109 84.8423C153.306 85.1505 153.435 85.4973 153.487 85.8595C153.559 86.2005 153.556 86.5531 153.479 86.8929C153.401 87.2326 153.251 87.5515 153.038 87.8274C152.602 88.3346 152.094 88.7742 151.529 89.1316C150.977 89.4801 150.48 89.9086 150.053 90.4032C149.97 90.6645 149.839 90.9078 149.665 91.1201C149.289 93.1125 148.632 95.0416 147.714 96.8499C146.925 98.4052 145.892 99.8236 144.653 101.051C143.559 102.136 142.276 103.012 140.867 103.635C139.569 104.212 138.165 104.515 136.744 104.523C135.417 104.524 134.105 104.249 132.89 103.714C131.575 103.127 130.39 102.285 129.403 101.236C128.243 99.995 127.299 98.5683 126.61 97.0152C125.756 95.0906 125.158 93.0619 124.832 90.9814C124.399 90.6046 123.896 90.3149 123.353 90.1283C122.836 89.9379 122.292 89.8356 121.741 89.8255C121.605 89.8251 121.468 89.8342 121.332 89.8528C120.722 90.1275 120.08 90.3283 119.422 90.451C117.78 91.4259 116.417 92.808 115.464 94.4637C115.37 96.3559 114.855 98.2032 113.957 99.8714C113.109 101.421 111.954 102.781 110.561 103.868C109.174 104.953 107.609 105.79 105.935 106.34C104.26 106.901 102.505 107.187 100.739 107.188V107.188ZM103.677 82.9307C101.431 82.9753 99.2264 83.5436 97.2387 84.5904C94.9803 85.7502 92.9769 87.3502 91.3466 89.2963C90.4539 91.2238 90.0039 93.3266 90.0296 95.4506C90.0561 96.7193 90.3544 97.9675 90.9042 99.1112C91.454 100.255 92.2427 101.267 93.217 102.08C93.8917 102.646 94.6361 103.123 95.4319 103.5C97.0787 104.272 98.8763 104.668 100.695 104.661C103.477 104.691 106.182 103.745 108.34 101.988C109.474 101.038 110.403 99.8672 111.071 98.5465C111.837 97.0037 112.302 95.3292 112.442 93.6123C112.514 91.9445 112.299 90.2766 111.805 88.6818C111.41 87.4256 110.732 86.2765 109.825 85.3225C109.017 84.5265 108.055 83.9038 106.997 83.4925C105.94 83.0813 104.81 82.8901 103.677 82.9307V82.9307ZM138.784 79.7506C137.806 79.7479 136.835 79.9341 135.927 80.2992C134.953 80.6958 134.07 81.2862 133.331 82.0346C131.725 83.8221 130.41 85.8516 129.436 88.0484C128.42 90.2069 128.12 92.6334 128.581 94.9741C129.004 95.9732 129.528 96.9267 130.144 97.82C130.691 98.6153 131.338 99.3369 132.069 99.967C132.732 100.537 133.482 100.995 134.292 101.323C135.073 101.634 135.906 101.795 136.747 101.796C137.727 101.787 138.696 101.585 139.598 101.202C140.676 100.738 141.676 100.11 142.562 99.3404C143.973 97.5605 145.088 95.5651 145.865 93.4307V93.1643C146.569 91.2272 146.926 89.1812 146.92 87.1202C146.886 86.45 146.81 85.7826 146.692 85.122C146.38 84.3186 145.943 83.57 145.395 82.9047C144.858 82.2503 144.226 81.6789 143.522 81.2093C142.823 80.7418 142.06 80.3774 141.257 80.1273C140.457 79.8778 139.623 79.7511 138.784 79.7513V79.7506Z" fill="#F2F2F2"/>
<path d="M101.033 90.8838C101.612 90.7268 102.226 90.771 102.776 91.0091C103.972 91.2277 106.948 94.7868 105.938 96.0451C105.383 96.7366 101.952 94.01 101.952 94.01C101.952 94.01 99.9645 97.2906 99.147 97.2367C97.3348 97.1156 99.0865 92.9982 99.1428 92.7742L99.147 92.7772C99.2809 92.3305 99.5231 91.9239 99.8522 91.5935C100.181 91.2631 100.587 91.0193 101.033 90.8838V90.8838Z" fill="black"/>
</g>
<path d="M206.898 244.681C206.338 244.781 205.918 244.531 205.638 243.931C205.378 243.331 205.418 242.371 205.758 241.051C205.878 240.811 205.978 240.581 206.058 240.361C206.138 240.121 206.178 239.931 206.178 239.791C206.258 239.531 206.358 239.231 206.478 238.891C206.618 238.531 206.758 238.201 206.898 237.901C207.038 237.581 207.138 237.371 207.198 237.271C207.278 237.271 207.358 237.201 207.438 237.061C207.538 236.921 207.588 236.781 207.588 236.641C207.588 236.481 207.618 236.301 207.678 236.101C207.758 235.901 207.838 235.761 207.918 235.681C207.918 235.581 207.958 235.471 208.038 235.351C208.118 235.231 208.158 235.131 208.158 235.051C208.158 234.971 208.178 234.901 208.218 234.841C208.278 234.781 208.308 234.711 208.308 234.631C208.488 234.311 208.718 233.841 208.998 233.221C209.298 232.581 209.588 231.911 209.868 231.211C210.168 230.511 210.418 229.891 210.618 229.351C210.818 228.811 210.918 228.481 210.918 228.361C210.958 228.201 211.018 228.061 211.098 227.941C211.178 227.821 211.298 227.781 211.458 227.821C211.538 227.761 211.638 227.731 211.758 227.731C211.898 227.711 212.008 227.701 212.088 227.701C212.088 227.701 212.158 227.741 212.298 227.821C212.438 227.901 212.578 228.021 212.718 228.181C212.878 228.321 212.968 228.501 212.988 228.721C213.008 228.941 213.018 229.171 213.018 229.411C212.998 229.791 212.858 230.221 212.598 230.701C212.338 231.181 212.048 231.711 211.728 232.291C211.528 232.671 211.328 233.031 211.128 233.371C210.948 233.711 210.858 233.921 210.858 234.001C210.858 234.081 210.818 234.201 210.738 234.361C210.658 234.521 210.568 234.721 210.468 234.961C210.348 235.161 210.228 235.401 210.108 235.681C209.988 235.961 209.878 236.221 209.778 236.461C209.698 236.681 209.658 236.821 209.658 236.881C209.638 236.961 209.608 237.041 209.568 237.121C209.548 237.201 209.498 237.281 209.418 237.361C209.338 237.361 209.288 237.421 209.268 237.541C209.268 237.641 209.268 237.691 209.268 237.691C209.268 237.771 209.218 237.961 209.118 238.261C209.038 238.541 208.898 238.881 208.698 239.281C208.318 240.341 208.048 241.191 207.888 241.831C207.728 242.451 207.628 242.981 207.588 243.421C207.548 243.901 207.458 244.211 207.318 244.351C207.198 244.491 207.058 244.601 206.898 244.681ZM205.308 249.391C204.908 249.531 204.568 249.601 204.288 249.601C204.028 249.581 203.728 249.451 203.388 249.211C203.008 248.831 202.878 248.441 202.998 248.041C203.138 247.641 203.488 247.251 204.048 246.871C204.428 246.631 204.708 246.511 204.888 246.511C205.068 246.491 205.348 246.561 205.728 246.721C206.368 247.121 206.648 247.571 206.568 248.071C206.508 248.551 206.088 248.991 205.308 249.391Z" fill="#1967D2"/>
<path d="M196.066 249.151C195.286 248.831 194.756 248.341 194.476 247.681C194.216 247.021 194.156 246.091 194.296 244.891C194.336 244.271 194.326 243.861 194.266 243.661C194.226 243.441 194.096 243.231 193.876 243.031C193.816 242.951 193.686 242.831 193.486 242.671C193.286 242.491 193.196 242.351 193.216 242.251C193.196 242.111 193.216 241.951 193.276 241.771C193.356 241.571 193.426 241.461 193.486 241.441C193.606 241.401 193.726 241.351 193.846 241.291C193.986 241.231 194.096 241.221 194.176 241.261C194.256 241.261 194.366 241.301 194.506 241.381C194.646 241.441 194.716 241.511 194.716 241.591C194.796 241.731 194.926 241.701 195.106 241.501C195.286 241.281 195.476 240.971 195.676 240.571C195.876 240.251 196.126 239.951 196.426 239.671C196.746 239.371 197.056 239.101 197.356 238.861C197.676 238.601 197.946 238.411 198.166 238.291C198.266 238.251 198.446 238.201 198.706 238.141C198.966 238.061 199.236 238.001 199.516 237.961C199.816 237.901 200.046 237.881 200.206 237.901C200.566 237.921 200.916 238.061 201.256 238.321C201.596 238.561 201.876 238.801 202.096 239.041C202.356 239.221 202.526 239.481 202.606 239.821C202.706 240.161 202.736 240.521 202.696 240.901C202.676 241.281 202.596 241.611 202.456 241.891C202.396 242.091 202.196 242.361 201.856 242.701C201.536 243.021 201.166 243.331 200.746 243.631C200.346 243.931 199.996 244.141 199.696 244.261C199.436 244.321 199.116 244.371 198.736 244.411C198.356 244.451 198.006 244.461 197.686 244.441C197.366 244.401 197.146 244.351 197.026 244.291C196.886 244.211 196.766 244.271 196.666 244.471C196.586 244.671 196.526 245.051 196.486 245.611C196.446 245.911 196.446 246.151 196.486 246.331C196.526 246.491 196.566 246.611 196.606 246.691C196.746 246.891 196.906 247.071 197.086 247.231C197.266 247.371 197.556 247.401 197.956 247.321C198.336 247.261 198.716 247.021 199.096 246.601C199.496 246.181 199.856 245.841 200.176 245.581C200.256 245.441 200.416 245.351 200.656 245.311C200.896 245.251 201.176 245.271 201.496 245.371C201.716 245.511 201.816 245.711 201.796 245.971C201.776 246.211 201.626 246.591 201.346 247.111C201.286 247.251 201.136 247.451 200.896 247.711C200.656 247.951 200.386 248.191 200.086 248.431C199.806 248.671 199.566 248.851 199.366 248.971C198.766 249.291 198.186 249.451 197.626 249.451C197.066 249.431 196.546 249.331 196.066 249.151ZM198.136 242.671C198.476 242.571 198.756 242.491 198.976 242.431C199.216 242.371 199.436 242.251 199.636 242.071C199.856 241.871 200.116 241.561 200.416 241.141C200.496 240.921 200.536 240.721 200.536 240.541C200.536 240.361 200.506 240.241 200.446 240.181C200.286 240.001 200.096 239.941 199.876 240.001C199.676 240.061 199.466 240.171 199.246 240.331C199.106 240.391 198.906 240.531 198.646 240.751C198.386 240.951 198.136 241.181 197.896 241.441C197.656 241.681 197.466 241.911 197.326 242.131C197.186 242.331 197.156 242.451 197.236 242.491C197.196 242.571 197.306 242.621 197.566 242.641C197.846 242.661 198.036 242.671 198.136 242.671Z" fill="#1967D2"/>
<path d="M186.853 251.281C185.993 251.241 185.433 250.981 185.173 250.501C184.913 250.021 184.843 249.381 184.963 248.581C185.083 248.201 185.153 247.861 185.173 247.561C185.213 247.241 185.303 247.041 185.443 246.961C185.443 246.961 185.453 246.931 185.473 246.871C185.513 246.811 185.503 246.751 185.443 246.691C185.443 246.431 185.533 246.071 185.713 245.611C185.753 245.491 185.803 245.351 185.863 245.191C185.943 245.011 185.983 244.921 185.983 244.921C185.883 244.761 185.883 244.631 185.983 244.531C186.083 244.431 186.183 244.341 186.283 244.261C186.403 244.161 186.413 244.051 186.313 243.931C186.273 243.851 186.323 243.671 186.463 243.391C186.603 243.091 186.763 242.781 186.943 242.461C187.123 242.141 187.243 241.891 187.303 241.711C187.303 241.671 187.353 241.531 187.453 241.291C187.553 241.051 187.673 240.771 187.813 240.451C187.953 240.131 188.083 239.841 188.203 239.581C188.343 239.321 188.433 239.151 188.473 239.071C188.673 238.971 188.593 238.901 188.233 238.861C187.873 238.821 187.493 238.811 187.093 238.831C186.473 238.811 185.973 238.781 185.593 238.741C185.233 238.701 184.933 238.611 184.693 238.471C184.453 238.191 184.403 237.911 184.543 237.631C184.683 237.331 184.953 237.171 185.353 237.151C185.613 237.131 185.813 237.121 185.953 237.121C186.113 237.121 186.313 237.111 186.553 237.091C186.813 237.051 187.213 237.001 187.753 236.941L189.283 236.821L189.373 236.311C189.533 236.051 189.653 235.861 189.733 235.741C189.813 235.601 189.873 235.461 189.913 235.321C189.953 235.181 189.993 234.991 190.033 234.751C190.033 234.751 190.123 234.591 190.303 234.271C190.483 233.931 190.593 233.581 190.633 233.221C190.873 232.821 191.083 232.461 191.263 232.141C191.443 231.801 191.553 231.591 191.593 231.511C191.893 231.131 192.163 230.931 192.403 230.911C192.643 230.871 192.913 230.951 193.213 231.151C193.393 231.251 193.553 231.381 193.693 231.541C193.853 231.681 193.953 231.851 193.993 232.051C194.033 232.251 193.963 232.491 193.783 232.771C193.743 232.851 193.683 233.001 193.603 233.221C193.523 233.421 193.463 233.591 193.423 233.731C193.303 233.871 193.153 234.101 192.973 234.421C192.813 234.721 192.703 235.031 192.643 235.351C192.483 235.691 192.363 235.941 192.283 236.101C192.203 236.241 192.123 236.311 192.043 236.311C192.083 236.511 192.203 236.611 192.403 236.611C192.603 236.591 192.933 236.571 193.393 236.551C193.773 236.511 194.033 236.471 194.173 236.431C194.333 236.371 194.513 236.391 194.713 236.491C194.813 236.631 194.873 236.821 194.893 237.061C194.933 237.301 194.923 237.531 194.863 237.751C194.803 237.951 194.703 238.081 194.563 238.141C194.463 238.141 194.253 238.201 193.933 238.321C193.633 238.421 193.253 238.481 192.793 238.501L191.203 238.651L190.693 239.671C190.553 239.931 190.433 240.171 190.333 240.391C190.233 240.591 190.163 240.711 190.123 240.751C190.123 240.871 190.053 241.051 189.913 241.291C189.793 241.531 189.663 241.791 189.523 242.071C189.403 242.411 189.263 242.721 189.103 243.001C188.963 243.281 188.893 243.421 188.893 243.421C188.813 243.421 188.773 243.481 188.773 243.601C188.873 243.841 188.843 244.021 188.683 244.141C188.583 244.201 188.493 244.291 188.413 244.411C188.353 244.511 188.323 244.561 188.323 244.561C188.403 244.641 188.413 244.741 188.353 244.861C188.313 244.981 188.253 245.111 188.173 245.251C188.173 245.411 188.123 245.641 188.023 245.941C187.943 246.241 187.853 246.521 187.753 246.781C187.773 247.141 187.793 247.371 187.813 247.471C187.833 247.571 187.883 247.611 187.963 247.591C188.063 247.611 188.183 247.611 188.323 247.591C188.463 247.571 188.573 247.561 188.653 247.561C188.953 247.421 188.813 248.121 188.233 249.661C187.913 250.161 187.623 250.551 187.363 250.831C187.123 251.131 186.953 251.281 186.853 251.281Z" fill="#1967D2"/>
<path d="M175.475 248.851C175.415 248.871 175.295 248.861 175.115 248.821C174.955 248.781 174.785 248.731 174.605 248.671C174.445 248.611 174.345 248.561 174.305 248.521C174.225 248.441 174.125 248.311 174.005 248.131C173.885 247.931 173.835 247.661 173.855 247.321C173.875 246.981 174.055 246.561 174.395 246.061C174.495 245.861 174.615 245.561 174.755 245.161C174.895 244.761 175.035 244.341 175.175 243.901C175.335 243.441 175.475 243.031 175.595 242.671C175.735 242.311 175.835 242.061 175.895 241.921C175.935 241.581 175.915 241.341 175.835 241.201C175.775 241.041 175.605 240.951 175.325 240.931C175.125 240.931 174.965 240.881 174.845 240.781C174.745 240.681 174.695 240.451 174.695 240.091C174.735 239.811 174.805 239.581 174.905 239.401C175.025 239.221 175.185 239.061 175.385 238.921C175.585 238.821 175.815 238.751 176.075 238.711C176.355 238.671 176.625 238.661 176.885 238.681C177.145 238.701 177.335 238.771 177.455 238.891C177.595 238.971 177.705 239.151 177.785 239.431C177.865 239.691 177.925 239.961 177.965 240.241C178.005 240.521 178.035 240.731 178.055 240.871C178.255 240.711 178.495 240.491 178.775 240.211C179.055 239.911 179.325 239.631 179.585 239.371C179.905 239.151 180.285 238.931 180.725 238.711C181.165 238.471 181.485 238.351 181.685 238.351C181.905 238.351 182.155 238.441 182.435 238.621C182.735 238.801 182.925 238.971 183.005 239.131C183.205 239.471 183.325 239.811 183.365 240.151C183.425 240.471 183.345 240.771 183.125 241.051C182.925 241.311 182.655 241.541 182.315 241.741C181.995 241.921 181.645 241.981 181.265 241.921C181.145 241.901 181.005 241.781 180.845 241.561C180.705 241.321 180.635 241.141 180.635 241.021C180.635 240.961 180.525 241.021 180.305 241.201C180.105 241.361 179.875 241.561 179.615 241.801C179.375 242.041 179.155 242.261 178.955 242.461C178.615 242.881 178.255 243.451 177.875 244.171C177.495 244.891 177.045 245.761 176.525 246.781C176.285 247.281 176.095 247.741 175.955 248.161C175.815 248.561 175.655 248.791 175.475 248.851Z" fill="#1967D2"/>
<path d="M166.323 249.961C165.303 249.961 164.503 249.641 163.923 249.001C163.343 248.341 163.063 247.411 163.083 246.211C163.083 245.491 163.213 244.711 163.473 243.871C163.753 243.011 164.113 242.181 164.553 241.381C164.993 240.581 165.473 239.881 165.993 239.281C166.513 238.681 167.043 238.261 167.583 238.021C167.783 237.921 167.993 237.851 168.213 237.811C168.453 237.751 168.683 237.721 168.903 237.721C169.143 237.721 169.393 237.741 169.653 237.781C169.933 237.821 170.183 237.891 170.403 237.991C170.823 238.131 171.173 238.371 171.453 238.711C171.753 239.031 171.933 239.501 171.993 240.121C172.013 240.401 172.003 240.641 171.963 240.841C171.943 241.041 171.883 241.271 171.783 241.531C171.523 242.211 171.153 242.841 170.673 243.421C170.213 243.981 169.683 244.401 169.083 244.681C168.923 244.781 168.753 244.851 168.573 244.891C168.413 244.911 168.243 244.921 168.063 244.921C167.643 244.921 167.253 244.861 166.893 244.741C166.553 244.601 166.263 244.421 166.023 244.201L165.783 243.961L165.663 244.231C165.503 244.671 165.383 245.061 165.303 245.401C165.223 245.741 165.183 246.021 165.183 246.241C165.183 246.481 165.193 246.721 165.213 246.961C165.253 247.181 165.323 247.371 165.423 247.531C165.503 247.651 165.623 247.741 165.783 247.801C165.943 247.841 166.123 247.861 166.323 247.861C166.443 247.861 166.563 247.861 166.683 247.861C166.823 247.841 166.943 247.821 167.043 247.801C167.403 247.701 167.693 247.571 167.913 247.411C168.133 247.231 168.363 247.061 168.603 246.901L168.723 246.841L168.693 246.811C168.993 246.651 169.213 246.531 169.353 246.451C169.513 246.371 169.613 246.321 169.653 246.301C169.733 246.241 169.813 246.191 169.893 246.151C170.133 246.111 170.383 246.181 170.643 246.361C170.903 246.521 171.033 246.731 171.033 246.991C171.033 247.091 170.943 247.271 170.763 247.531C170.603 247.771 170.413 248.001 170.193 248.221C169.973 248.441 169.753 248.601 169.533 248.701C169.493 248.721 169.433 248.751 169.353 248.791C169.273 248.811 169.203 248.841 169.143 248.881H169.173C168.993 249.121 168.813 249.241 168.633 249.241H168.393C168.313 249.381 168.053 249.531 167.613 249.691C167.173 249.871 166.743 249.961 166.323 249.961ZM167.823 242.971C168.063 242.971 168.273 242.921 168.453 242.821C168.653 242.701 168.833 242.561 168.993 242.401C169.453 242.001 169.733 241.541 169.833 241.021C169.953 240.481 169.903 240.081 169.683 239.821C169.623 239.761 169.553 239.721 169.473 239.701C169.413 239.681 169.303 239.681 169.143 239.701C168.943 239.721 168.693 239.831 168.393 240.031C168.113 240.211 167.833 240.441 167.553 240.721C167.273 241.001 167.033 241.291 166.833 241.591L166.443 242.221C166.543 242.201 166.623 242.191 166.683 242.191C166.763 242.171 166.813 242.161 166.833 242.161C166.953 242.241 167.043 242.351 167.103 242.491C167.163 242.611 167.243 242.721 167.343 242.821C167.443 242.921 167.603 242.971 167.823 242.971Z" fill="#1967D2"/>
<path d="M156.024 249.541C155.444 249.641 154.884 249.601 154.344 249.421C153.804 249.241 153.364 248.931 153.024 248.491C152.684 248.051 152.514 247.511 152.514 246.871C152.454 246.271 152.514 245.571 152.694 244.771C152.874 243.951 153.144 243.131 153.504 242.311C153.864 241.471 154.274 240.761 154.734 240.181C155.134 239.701 155.534 239.261 155.934 238.861C156.334 238.461 156.694 238.191 157.014 238.051C157.294 237.931 157.614 237.841 157.974 237.781C158.334 237.721 158.594 237.691 158.754 237.691C159.074 237.771 159.424 237.911 159.804 238.111C160.184 238.311 160.374 238.531 160.374 238.771C160.374 238.771 160.394 238.801 160.434 238.861C160.494 238.901 160.524 238.921 160.524 238.921C160.644 238.921 160.764 239.061 160.884 239.341C161.024 239.601 161.114 239.911 161.154 240.271C161.214 240.631 161.184 240.921 161.064 241.141C160.984 241.521 160.834 241.881 160.614 242.221C160.394 242.541 160.204 242.701 160.044 242.701C159.964 242.701 159.884 242.711 159.804 242.731C159.744 242.731 159.714 242.781 159.714 242.881C159.714 242.981 159.624 243.031 159.444 243.031C159.284 243.011 159.114 242.961 158.934 242.881C158.754 242.781 158.634 242.651 158.574 242.491C158.574 242.391 158.594 242.251 158.634 242.071C158.694 241.871 158.764 241.581 158.844 241.201C158.964 240.641 158.964 240.271 158.844 240.091C158.744 239.911 158.494 239.901 158.094 240.061C157.594 240.341 157.154 240.691 156.774 241.111C156.414 241.531 156.084 242.101 155.784 242.821C155.484 243.521 155.184 244.461 154.884 245.641C154.764 246.101 154.734 246.481 154.794 246.781C154.874 247.061 154.944 247.211 155.004 247.231C155.284 247.311 155.614 247.331 155.994 247.291C156.394 247.231 156.704 247.141 156.924 247.021C157.244 246.861 157.554 246.671 157.854 246.451C158.154 246.231 158.454 246.011 158.754 245.791C158.854 245.731 158.954 245.621 159.054 245.461C159.154 245.301 159.284 245.181 159.444 245.101C159.604 244.861 159.784 244.731 159.984 244.711C160.204 244.691 160.434 244.681 160.674 244.681C160.834 244.721 160.994 244.811 161.154 244.951C161.314 245.071 161.434 245.191 161.514 245.311C161.594 245.431 161.574 245.521 161.454 245.581C161.374 245.581 161.324 245.611 161.304 245.671C161.304 245.711 161.304 245.731 161.304 245.731C161.344 245.811 161.254 245.991 161.034 246.271C160.834 246.531 160.574 246.821 160.254 247.141C159.934 247.441 159.624 247.701 159.324 247.921C159.044 248.141 158.844 248.251 158.724 248.251C158.524 248.251 158.424 248.311 158.424 248.431C158.424 248.471 158.274 248.571 157.974 248.731C157.694 248.891 157.364 249.051 156.984 249.211C156.624 249.371 156.304 249.481 156.024 249.541Z" fill="#1967D2"/>
<path d="M143.77 249.301C143.51 249.301 143.3 249.251 143.14 249.151C143 249.051 142.82 248.911 142.6 248.731C142.22 248.331 141.93 247.921 141.73 247.501C141.53 247.061 141.46 246.671 141.52 246.331C141.58 246.171 141.6 246.021 141.58 245.881C141.58 245.721 141.58 245.641 141.58 245.641C141.48 245.541 141.45 245.481 141.49 245.461C141.53 245.421 141.57 245.361 141.61 245.281C141.73 245.281 141.77 245.171 141.73 244.951C141.69 244.791 141.76 244.451 141.94 243.931C142.12 243.391 142.36 242.881 142.66 242.401C142.78 242.201 142.96 241.941 143.2 241.621C143.44 241.281 143.7 240.951 143.98 240.631C144.28 240.291 144.55 240.021 144.79 239.821C145.29 239.401 145.74 239.071 146.14 238.831C146.56 238.591 146.99 238.421 147.43 238.321C147.87 238.221 148.27 238.171 148.63 238.171C148.99 238.171 149.32 238.331 149.62 238.651C150.08 238.851 150.41 239.111 150.61 239.431C150.81 239.751 150.94 240.181 151 240.721C151.06 241.321 151 242.041 150.82 242.881C150.66 243.701 150.18 244.681 149.38 245.821C148.88 246.541 148.4 247.091 147.94 247.471C147.48 247.851 146.96 248.211 146.38 248.551C145.96 248.831 145.53 249.021 145.09 249.121C144.67 249.201 144.23 249.261 143.77 249.301ZM146.77 245.821C147.23 245.381 147.57 244.931 147.79 244.471C148.03 243.991 148.26 243.421 148.48 242.761C148.56 242.601 148.61 242.371 148.63 242.071C148.67 241.771 148.68 241.491 148.66 241.231C148.64 240.951 148.57 240.791 148.45 240.751C148.23 240.611 148 240.571 147.76 240.631C147.54 240.691 147.26 240.841 146.92 241.081C146.32 241.601 145.77 242.211 145.27 242.911C144.79 243.591 144.4 244.411 144.1 245.371C143.96 245.951 143.97 246.401 144.13 246.721C144.31 247.041 144.63 247.141 145.09 247.021C145.55 246.901 146.11 246.501 146.77 245.821Z" fill="#1967D2"/>
<path d="M129.58 248.461C129.5 248.461 129.33 248.401 129.07 248.281C128.83 248.141 128.67 248.031 128.59 247.951C128.45 247.791 128.36 247.621 128.32 247.441C128.28 247.261 128.26 246.891 128.26 246.331C128.26 245.691 128.39 244.981 128.65 244.201C128.91 243.401 129.35 242.321 129.97 240.961L131.11 238.621C131.21 238.481 131.3 238.361 131.38 238.261C131.46 238.161 131.54 238.061 131.62 237.961C131.68 237.961 131.74 237.961 131.8 237.961C131.86 237.961 131.91 237.971 131.95 237.991C132.11 237.991 132.34 238.091 132.64 238.291C132.96 238.491 133.16 238.761 133.24 239.101C133.24 239.361 133.2 239.651 133.12 239.971C133.04 240.291 132.8 240.731 132.4 241.291C132.24 241.491 132.07 241.811 131.89 242.251C131.71 242.691 131.57 243.081 131.47 243.421C131.45 243.461 131.4 243.561 131.32 243.721C131.24 243.861 131.16 244.011 131.08 244.171C131 244.331 130.95 244.451 130.93 244.531L130.81 244.951L132.34 243.391C133.26 242.471 134.02 241.821 134.62 241.441C135.24 241.061 135.74 240.901 136.12 240.961C136.52 241.021 136.85 241.271 137.11 241.711C137.25 241.931 137.35 242.141 137.41 242.341C137.47 242.541 137.51 242.791 137.53 243.091C137.55 243.391 137.54 243.791 137.5 244.291V246.031C137.86 245.951 138.13 245.881 138.31 245.821C138.51 245.741 138.71 245.661 138.91 245.581C139.07 245.541 139.25 245.501 139.45 245.461C139.65 245.401 139.9 245.361 140.2 245.341C140.18 245.601 140.07 245.901 139.87 246.241C139.69 246.581 139.46 246.921 139.18 247.261C138.92 247.601 138.63 247.881 138.31 248.101C137.99 248.321 137.69 248.431 137.41 248.431C137.15 248.431 136.85 248.331 136.51 248.131C136.19 247.931 135.93 247.611 135.73 247.171C135.65 246.931 135.58 246.661 135.52 246.361C135.48 246.041 135.46 245.631 135.46 245.131V243.901C135.46 243.701 135.42 243.611 135.34 243.631C135.26 243.631 135.19 243.651 135.13 243.691C134.97 243.791 134.69 244.041 134.29 244.441C133.91 244.821 133.52 245.221 133.12 245.641C132.2 246.601 131.43 247.311 130.81 247.771C130.21 248.231 129.8 248.461 129.58 248.461Z" fill="#1967D2"/>
<path d="M120.238 249.691C119.978 249.711 119.768 249.681 119.608 249.601C119.448 249.541 119.248 249.441 119.008 249.301C118.568 248.961 118.218 248.571 117.958 248.131C117.698 247.691 117.578 247.301 117.598 246.961C117.638 246.781 117.638 246.621 117.598 246.481C117.578 246.341 117.568 246.271 117.568 246.271C117.448 246.171 117.408 246.111 117.448 246.091C117.488 246.051 117.518 245.991 117.538 245.911C117.698 245.871 117.718 245.761 117.598 245.581C117.538 245.421 117.568 245.061 117.688 244.501C117.828 243.921 118.008 243.381 118.228 242.881C118.328 242.661 118.468 242.371 118.648 242.011C118.848 241.651 119.068 241.291 119.308 240.931C119.548 240.551 119.768 240.251 119.968 240.031C120.408 239.531 120.798 239.141 121.138 238.861C121.498 238.561 121.898 238.331 122.338 238.171C122.738 238.011 123.098 237.931 123.418 237.931C123.758 237.931 124.088 238.061 124.408 238.321C124.888 238.461 125.288 238.671 125.608 238.951C125.948 239.231 126.188 239.631 126.328 240.151C126.488 240.731 126.538 241.421 126.478 242.221C126.438 243.001 126.098 244.011 125.458 245.251C125.078 246.031 124.698 246.651 124.318 247.111C123.958 247.551 123.518 247.991 122.998 248.431C122.618 248.751 122.178 249.021 121.678 249.241C121.178 249.441 120.698 249.591 120.238 249.691ZM122.788 245.521C123.088 245.081 123.328 244.661 123.508 244.261C123.688 243.861 123.848 243.321 123.988 242.641C124.048 242.421 124.078 242.151 124.078 241.831C124.078 241.511 124.048 241.221 123.988 240.961C123.948 240.681 123.868 240.531 123.748 240.511C123.488 240.411 123.208 240.411 122.908 240.511C122.628 240.591 122.308 240.831 121.948 241.231C121.628 241.591 121.358 241.961 121.138 242.341C120.918 242.721 120.718 243.161 120.538 243.661C120.358 244.161 120.178 244.751 119.998 245.431C119.818 246.111 119.818 246.651 119.998 247.051C120.178 247.451 120.508 247.561 120.988 247.381C121.468 247.181 122.068 246.561 122.788 245.521Z" fill="#1967D2"/>
<path d="M109.364 249.181C108.924 249.181 108.594 249.161 108.374 249.121C108.174 249.081 108.014 249.021 107.894 248.941C107.794 248.861 107.664 248.751 107.504 248.611C107.424 248.451 107.294 248.261 107.114 248.041C106.954 247.821 106.834 247.671 106.754 247.591C106.674 247.291 106.644 246.891 106.664 246.391C106.684 245.891 106.754 245.351 106.874 244.771C107.014 244.171 107.184 243.631 107.384 243.151C107.464 242.991 107.534 242.831 107.594 242.671C107.654 242.511 107.684 242.431 107.684 242.431C107.684 242.331 107.804 242.091 108.044 241.711C108.304 241.331 108.584 240.931 108.884 240.511C109.204 240.091 109.464 239.791 109.664 239.611C109.804 239.451 110.014 239.281 110.294 239.101C110.594 238.921 110.854 238.791 111.074 238.711C111.294 238.631 111.564 238.541 111.884 238.441C112.224 238.341 112.544 238.291 112.844 238.291C113.124 238.291 113.404 238.351 113.684 238.471C113.984 238.591 114.244 238.801 114.464 239.101C114.824 239.461 115.044 239.861 115.124 240.301C115.204 240.741 115.204 241.141 115.124 241.501C115.024 241.901 114.844 242.221 114.584 242.461C114.344 242.701 114.074 242.821 113.774 242.821C113.494 242.801 113.224 242.651 112.964 242.371C112.884 242.211 112.844 242.081 112.844 241.981C112.844 241.861 112.884 241.691 112.964 241.471C113.044 241.191 113.064 240.931 113.024 240.691C113.004 240.451 112.904 240.331 112.724 240.331C112.464 240.331 112.224 240.421 112.004 240.601C111.804 240.761 111.544 241.011 111.224 241.351C111.084 241.511 110.894 241.751 110.654 242.071C110.434 242.371 110.214 242.711 109.994 243.091C109.774 243.451 109.584 243.811 109.424 244.171C109.204 244.831 109.054 245.301 108.974 245.581C108.894 245.841 108.854 245.971 108.854 245.971C108.854 246.051 108.854 246.131 108.854 246.211C108.854 246.271 108.854 246.341 108.854 246.421C108.854 246.661 108.994 246.851 109.274 246.991C109.494 247.131 109.704 247.201 109.904 247.201C110.124 247.201 110.454 247.101 110.894 246.901C111.214 246.741 111.514 246.531 111.794 246.271C112.094 246.011 112.404 245.781 112.724 245.581C112.944 245.441 113.114 245.321 113.234 245.221C113.374 245.121 113.444 245.111 113.444 245.191C113.444 245.271 113.474 245.311 113.534 245.311C113.594 245.311 113.664 245.271 113.744 245.191C113.864 245.031 114.004 244.951 114.164 244.951C114.324 244.951 114.474 244.981 114.614 245.041C114.754 245.081 114.824 245.131 114.824 245.191C114.784 245.371 114.824 245.521 114.944 245.641C114.944 245.721 114.914 245.831 114.854 245.971C114.814 246.091 114.754 246.191 114.674 246.271C114.574 246.411 114.424 246.601 114.224 246.841C114.044 247.061 113.874 247.261 113.714 247.441C113.554 247.601 113.474 247.681 113.474 247.681C113.394 247.661 113.314 247.681 113.234 247.741C113.174 247.801 113.104 247.871 113.024 247.951C112.864 248.091 112.714 248.201 112.574 248.281C112.434 248.341 112.324 248.371 112.244 248.371C112.104 248.451 111.994 248.501 111.914 248.521C111.854 248.541 111.824 248.591 111.824 248.671C111.624 248.871 111.304 249.011 110.864 249.091C110.424 249.151 109.924 249.181 109.364 249.181Z" fill="#1967D2"/>
<path d="M91.4679 249.031C91.0479 249.111 90.7479 249.111 90.5679 249.031C90.3879 248.931 90.1879 248.781 89.9679 248.581C89.6479 248.421 89.3679 248.201 89.1279 247.921C88.8879 247.641 88.7079 247.351 88.5879 247.051C88.4679 246.751 88.4179 246.511 88.4379 246.331C88.4979 245.631 88.6579 244.881 88.9179 244.081C89.1979 243.261 89.5479 242.471 89.9679 241.711C90.3879 240.951 90.8579 240.281 91.3779 239.701C91.8979 239.101 92.4479 238.691 93.0279 238.471C93.4279 238.311 93.8379 238.251 94.2579 238.291C94.6779 238.331 94.9679 238.521 95.1279 238.861C95.4279 239.441 95.3579 239.811 94.9179 239.971C94.8579 239.971 94.7879 240.001 94.7079 240.061C94.6279 240.101 94.5879 240.161 94.5879 240.241C94.6679 240.281 94.8879 240.291 95.2479 240.271C95.6079 240.231 95.9679 240.171 96.3279 240.091C96.7079 239.991 96.9579 239.891 97.0779 239.791C97.1979 239.731 97.2879 239.701 97.3479 239.701C97.4079 239.701 97.5579 239.721 97.7979 239.761C98.1379 239.861 98.3079 239.981 98.3079 240.121C98.3079 240.201 98.3379 240.311 98.3979 240.451C98.4579 240.571 98.5279 240.631 98.6079 240.631C98.7479 240.651 98.7579 240.771 98.6379 240.991C98.5379 241.211 98.2879 241.461 97.8879 241.741C97.5079 241.981 97.2679 242.141 97.1679 242.221C97.0879 242.281 97.0779 242.421 97.1379 242.641C97.2979 243.021 97.2979 243.481 97.1379 244.021C96.9779 244.541 96.6979 245.081 96.2979 245.641C95.8979 246.201 95.4179 246.721 94.8579 247.201C94.3179 247.681 93.7479 248.091 93.1479 248.431C92.5679 248.771 92.0079 248.971 91.4679 249.031ZM91.3179 246.961C91.3979 246.961 91.5379 246.921 91.7379 246.841C91.9379 246.741 92.0979 246.661 92.2179 246.601C92.2979 246.521 92.3979 246.431 92.5179 246.331C92.6579 246.211 92.7679 246.141 92.8479 246.121C92.9279 246.121 92.9979 246.091 93.0579 246.031C93.1179 245.951 93.2279 245.801 93.3879 245.581C93.5479 245.341 93.8079 244.991 94.1679 244.531C94.5679 244.091 94.8379 243.721 94.9779 243.421C95.1379 243.101 95.1679 242.781 95.0679 242.461C95.0479 242.381 94.9879 242.331 94.8879 242.311C94.8079 242.291 94.6979 242.241 94.5579 242.161C94.3579 242.161 94.2079 242.171 94.1079 242.191C94.0079 242.211 93.8479 242.131 93.6279 241.951L93.1479 241.351L92.6379 241.861C92.3179 242.181 92.0079 242.611 91.7079 243.151C91.4279 243.671 91.1979 244.211 91.0179 244.771C90.8379 245.331 90.7279 245.801 90.6879 246.181C90.6679 246.481 90.7179 246.681 90.8379 246.781C90.9579 246.881 91.1179 246.941 91.3179 246.961Z" fill="#1967D2"/>
<path d="M80.788 249.541C80.568 249.501 80.328 249.381 80.068 249.181C79.828 248.961 79.608 248.711 79.408 248.431C79.228 248.151 79.108 247.911 79.048 247.711C79.048 247.671 79.0181 247.621 78.9581 247.561C78.9181 247.501 78.8981 247.471 78.8981 247.471C78.8181 247.411 78.768 247.151 78.748 246.691C78.748 246.211 78.778 245.681 78.838 245.101C78.898 244.521 78.968 244.061 79.048 243.721C79.148 243.401 79.298 242.971 79.498 242.431C79.698 241.871 79.8681 241.371 80.0081 240.931L80.818 239.191L79.6181 238.861C79.4781 238.821 79.358 238.741 79.258 238.621C79.178 238.501 79.138 238.401 79.138 238.321C79.138 238.161 79.228 237.951 79.408 237.691C79.588 237.411 79.718 237.271 79.798 237.271C79.898 237.291 80.0781 237.301 80.3381 237.301C80.6181 237.301 80.888 237.291 81.148 237.271C81.408 237.251 81.568 237.231 81.628 237.211C81.708 237.171 81.788 237.121 81.868 237.061C81.948 236.981 82.0081 236.871 82.0481 236.731C82.1481 236.511 82.2381 236.331 82.3181 236.191C82.3981 236.031 82.5081 235.831 82.6481 235.591C82.7881 235.331 82.8981 235.111 82.9781 234.931C83.0781 234.751 83.2281 234.501 83.4281 234.181C83.5281 234.041 83.6381 233.871 83.7581 233.671C83.8781 233.471 84.028 233.301 84.208 233.161C84.388 233.001 84.638 232.901 84.958 232.861C85.278 232.821 85.588 232.931 85.888 233.191C86.048 233.391 86.138 233.571 86.158 233.731C86.178 233.871 86.098 234.081 85.918 234.361C85.758 234.701 85.5681 235.021 85.3481 235.321C85.1481 235.621 84.958 235.941 84.778 236.281C84.458 236.721 84.398 236.971 84.598 237.031C84.798 237.091 85.358 237.051 86.278 236.911C86.858 236.811 87.278 236.861 87.538 237.061C87.798 237.241 87.9481 237.501 87.9881 237.841C88.0481 238.321 87.9981 238.611 87.8381 238.711C87.6781 238.811 87.2181 238.861 86.4581 238.861C85.9781 238.941 85.568 238.991 85.228 239.011C84.888 239.011 84.6381 239.011 84.4781 239.011C84.2181 239.031 84.0481 239.041 83.9681 239.041C83.8881 239.041 83.768 239.061 83.608 239.101C83.448 239.141 83.328 239.211 83.248 239.311C83.188 239.391 83.1181 239.511 83.0381 239.671C82.9581 239.751 82.838 239.961 82.678 240.301C82.518 240.641 82.318 241.011 82.078 241.411C81.798 242.251 81.558 243.071 81.358 243.871C81.178 244.651 81.0181 245.431 80.878 246.211C80.8181 246.631 80.828 246.931 80.908 247.111C81.008 247.291 81.268 247.401 81.688 247.441C81.908 247.461 82.238 247.461 82.678 247.441C83.138 247.401 83.508 247.341 83.788 247.261C84.008 247.161 84.2381 247.061 84.4781 246.961C84.7181 246.841 84.938 246.721 85.138 246.601C85.318 246.501 85.498 246.401 85.6781 246.301C85.8581 246.181 85.948 246.121 85.948 246.121C86.048 245.961 86.178 245.961 86.338 246.121C86.498 246.261 86.618 246.451 86.698 246.691C86.698 246.931 86.648 247.201 86.548 247.501C86.448 247.801 86.078 248.131 85.438 248.491C84.538 249.051 83.668 249.391 82.828 249.511C81.988 249.631 81.308 249.641 80.788 249.541Z" fill="#1967D2"/>
<path d="M71.0476 249.571C70.0076 249.571 69.2476 249.231 68.7676 248.551C68.6276 248.271 68.5576 247.991 68.5576 247.711C68.5776 247.411 68.6476 247.201 68.7676 247.081C68.9076 246.961 69.0676 247.011 69.2476 247.231C69.5276 247.391 69.9176 247.471 70.4176 247.471C70.6576 247.471 70.8876 247.461 71.1076 247.441C71.3276 247.401 71.5776 247.361 71.8576 247.321C72.2576 247.241 72.5176 247.111 72.6376 246.931C72.7576 246.731 72.7276 246.561 72.5476 246.421H72.5776C72.0376 246.281 71.5076 246.071 70.9876 245.791C70.4676 245.511 70.0176 245.201 69.6376 244.861C69.2776 244.521 69.0676 244.201 69.0076 243.901C68.8476 243.241 68.8876 242.571 69.1276 241.891C69.3676 241.211 69.7176 240.621 70.1776 240.121C70.3376 240.001 70.5576 239.841 70.8376 239.641C71.1376 239.441 71.3576 239.331 71.4976 239.311V239.341C71.8776 238.941 72.3176 238.621 72.8176 238.381C73.3376 238.141 73.9076 237.911 74.5276 237.691L75.0076 237.631C75.2476 237.591 75.4576 237.571 75.6376 237.571C75.6176 237.571 75.6576 237.591 75.7576 237.631C75.8776 237.671 75.9776 237.701 76.0576 237.721C76.1776 237.781 76.2876 237.811 76.3876 237.811C76.6676 237.851 76.9276 237.991 77.1676 238.231C77.4276 238.451 77.6376 238.711 77.7976 239.011C77.9576 239.311 78.0176 239.601 77.9776 239.881C77.9176 240.301 77.7576 240.711 77.4976 241.111C77.2576 241.511 76.9876 241.731 76.6876 241.771C76.7276 241.751 76.6876 241.721 76.5676 241.681C76.4676 241.621 76.3676 241.561 76.2676 241.501L76.1776 241.561C76.1776 241.561 76.1676 241.531 76.1476 241.471C76.1476 241.411 76.1276 241.341 76.0876 241.261C76.0076 241.121 75.9576 240.981 75.9376 240.841C75.9176 240.681 75.9176 240.501 75.9376 240.301C75.9776 240.081 75.9876 239.951 75.9676 239.911C75.9476 239.871 75.8176 239.841 75.5776 239.821C75.3176 239.761 74.9576 239.801 74.4976 239.941C74.0576 240.061 73.6676 240.251 73.3276 240.511C72.9076 240.791 72.5776 241.031 72.3376 241.231C72.1176 241.411 71.9376 241.591 71.7976 241.771C71.6776 241.951 71.5576 242.191 71.4376 242.491C71.3576 242.611 71.2776 242.731 71.1976 242.851C71.1376 242.971 71.1076 243.081 71.1076 243.181C71.1076 243.381 71.2776 243.591 71.6176 243.811C71.9576 244.031 72.4576 244.291 73.1176 244.591C73.6576 244.811 74.0476 245.091 74.2876 245.431C74.5276 245.751 74.7176 246.081 74.8576 246.421C74.8976 246.501 74.9276 246.631 74.9476 246.811C74.9876 246.991 74.9876 247.101 74.9476 247.141C74.9876 247.181 75.0076 247.211 75.0076 247.231V247.201C75.1676 247.481 75.1476 247.771 74.9476 248.071C74.7676 248.371 74.4676 248.651 74.0476 248.911C73.6476 249.151 73.1776 249.321 72.6376 249.421H72.6676C72.3876 249.481 72.1076 249.521 71.8276 249.541C71.5676 249.561 71.3076 249.571 71.0476 249.571Z" fill="#1967D2"/>
<path d="M64.174 249.541C63.974 249.341 63.794 249.071 63.634 248.731C63.494 248.371 63.364 247.961 63.244 247.501C63.204 247.341 63.184 247.151 63.184 246.931C63.204 246.691 63.204 246.511 63.184 246.391C63.124 246.531 63.024 246.701 62.884 246.901C62.764 247.081 62.644 247.221 62.524 247.321C62.444 247.401 62.264 247.561 61.984 247.801C61.704 248.021 61.424 248.201 61.144 248.341C60.484 248.761 59.914 248.971 59.434 248.971C58.954 248.971 58.524 248.731 58.144 248.251C57.824 247.991 57.574 247.681 57.394 247.321C57.234 246.941 57.214 246.471 57.334 245.911C57.374 245.211 57.474 244.531 57.634 243.871C57.794 243.191 58.124 242.291 58.624 241.171C59.044 240.351 59.364 239.731 59.584 239.311C59.804 238.871 59.944 238.611 60.004 238.531C60.304 238.431 60.624 238.441 60.964 238.561C61.324 238.661 61.524 238.851 61.564 239.131C61.684 239.331 61.674 239.691 61.534 240.211C61.414 240.731 61.174 241.341 60.814 242.041C60.534 242.721 60.264 243.391 60.004 244.051C59.764 244.691 59.624 245.241 59.584 245.701C59.544 246.161 59.664 246.441 59.944 246.541C60.124 246.641 60.404 246.621 60.784 246.481C61.184 246.341 61.634 245.971 62.134 245.371C62.654 244.751 63.184 243.791 63.724 242.491C63.884 242.091 64.004 241.741 64.084 241.441C64.164 241.121 64.214 240.771 64.234 240.391C64.194 240.151 64.234 239.921 64.354 239.701C64.494 239.461 64.684 239.271 64.924 239.131C65.004 239.031 65.114 238.941 65.254 238.861C65.394 238.761 65.484 238.761 65.524 238.861L66.004 238.831C66.084 238.811 66.164 238.881 66.244 239.041C66.324 239.181 66.414 239.291 66.514 239.371C66.734 239.551 66.814 239.941 66.754 240.541C66.714 241.141 66.464 241.981 66.004 243.061C65.624 243.881 65.364 244.501 65.224 244.921C65.104 245.341 65.034 245.751 65.014 246.151C65.014 246.511 65.054 246.831 65.134 247.111C65.234 247.391 65.434 247.661 65.734 247.921C65.954 248.061 66.074 248.271 66.094 248.551C66.134 248.811 66.144 249.061 66.124 249.301C66.084 249.481 65.944 249.611 65.704 249.691C65.464 249.791 65.194 249.821 64.894 249.781C64.614 249.761 64.374 249.681 64.174 249.541Z" fill="#1967D2"/>
<path d="M48.833 255.361C48.613 255.381 48.273 255.331 47.813 255.211C47.373 255.091 46.973 254.921 46.613 254.701C46.173 254.341 45.843 254.001 45.623 253.681C45.403 253.361 45.253 253.061 45.173 252.781C45.113 252.521 45.093 252.301 45.113 252.121C45.193 251.781 45.393 251.631 45.713 251.671C46.033 251.731 46.263 251.841 46.403 252.001C46.603 252.181 46.813 252.381 47.033 252.601C47.273 252.821 47.503 253.011 47.723 253.171C47.963 253.331 48.163 253.401 48.323 253.381C48.763 253.321 49.123 253.121 49.403 252.781C49.683 252.441 49.953 251.961 50.213 251.341C50.373 250.901 50.493 250.521 50.573 250.201C50.673 249.901 50.773 249.571 50.873 249.211C50.973 248.831 51.093 248.321 51.233 247.681C51.373 247.121 51.463 246.731 51.503 246.511C51.563 246.271 51.593 246.121 51.593 246.061C51.593 245.981 51.583 245.931 51.563 245.911C51.563 245.911 51.463 245.971 51.263 246.091C51.083 246.191 50.853 246.301 50.573 246.421C50.313 246.541 50.063 246.651 49.823 246.751C49.263 246.931 48.703 247.071 48.143 247.171C47.583 247.271 47.153 247.271 46.853 247.171C46.613 247.071 46.403 246.891 46.223 246.631C46.063 246.371 45.953 246.091 45.893 245.791C45.833 245.491 45.813 245.241 45.833 245.041C45.853 244.881 45.933 244.631 46.073 244.291C46.233 243.931 46.403 243.561 46.583 243.181C46.783 242.801 46.963 242.471 47.123 242.191C47.303 241.891 47.433 241.741 47.513 241.741C47.593 241.721 47.653 241.661 47.693 241.561C47.733 241.441 47.753 241.341 47.753 241.261C47.773 241.181 47.883 241.041 48.083 240.841C48.303 240.621 48.733 240.271 49.373 239.791C50.093 239.111 50.743 238.601 51.323 238.261C51.923 237.921 52.473 237.731 52.973 237.691C53.113 237.711 53.243 237.721 53.363 237.721C53.503 237.721 53.573 237.721 53.573 237.721C53.573 237.721 53.663 237.751 53.843 237.811C54.023 237.871 54.223 237.951 54.443 238.051C54.723 238.151 55.003 238.371 55.283 238.711C55.563 239.051 55.793 239.431 55.973 239.851C56.173 240.271 56.283 240.661 56.303 241.021C56.283 241.461 56.183 241.901 56.003 242.341C55.843 242.761 55.683 242.961 55.523 242.941C55.363 242.921 55.173 242.981 54.953 243.121C54.753 243.261 54.623 243.461 54.563 243.721C54.523 243.801 54.463 243.921 54.383 244.081C54.323 244.221 54.223 244.391 54.083 244.591C54.063 244.691 54.013 244.941 53.933 245.341C53.853 245.741 53.753 246.191 53.633 246.691C53.513 247.191 53.413 247.641 53.333 248.041C53.253 248.441 53.203 248.701 53.183 248.821C53.163 248.901 53.113 249.091 53.033 249.391C52.953 249.671 52.853 249.981 52.733 250.321C52.633 250.681 52.523 251.011 52.403 251.311C52.323 251.891 52.183 252.371 51.983 252.751C51.783 253.131 51.543 253.491 51.263 253.831C50.863 254.331 50.443 254.701 50.003 254.941C49.563 255.181 49.173 255.321 48.833 255.361ZM48.023 245.011C48.083 245.191 48.283 245.261 48.623 245.221C48.983 245.161 49.413 245.031 49.913 244.831C50.433 244.611 50.853 244.431 51.173 244.291C51.493 244.151 51.723 243.961 51.863 243.721C51.983 243.541 52.093 243.371 52.193 243.211C52.293 243.031 52.403 242.831 52.523 242.611C52.543 242.551 52.593 242.471 52.673 242.371C52.773 242.271 52.863 242.191 52.943 242.131C53.043 242.071 53.133 242.021 53.213 241.981C53.313 241.941 53.413 241.921 53.513 241.921C53.613 241.881 53.693 241.781 53.753 241.621C53.833 241.461 53.853 241.301 53.813 241.141C53.793 241.001 53.693 240.811 53.513 240.571C53.353 240.311 53.133 240.111 52.853 239.971C52.573 239.811 52.243 239.921 51.863 240.301C51.503 240.661 50.983 241.141 50.303 241.741C49.843 242.201 49.423 242.651 49.043 243.091C48.683 243.511 48.403 243.891 48.203 244.231C48.023 244.551 47.963 244.811 48.023 245.011Z" fill="#1967D2"/>
<path d="M35.685 248.641C35.265 248.621 34.915 248.531 34.635 248.371C34.355 248.211 34.125 247.911 33.945 247.471C33.865 247.171 33.815 246.851 33.795 246.511C33.795 246.151 33.805 245.811 33.825 245.491C33.845 245.151 33.865 244.891 33.885 244.711C33.925 244.651 33.935 244.551 33.915 244.411C33.915 244.251 33.915 244.091 33.915 243.931C33.895 243.611 33.815 243.421 33.675 243.361C33.555 243.281 33.345 243.311 33.045 243.451C32.665 243.651 32.205 243.931 31.665 244.291C31.145 244.631 30.605 245.021 30.045 245.461C29.485 245.881 28.925 246.331 28.365 246.811C27.925 247.291 27.615 247.671 27.435 247.951C27.275 248.231 27.095 248.371 26.895 248.371C26.735 248.451 26.575 248.441 26.415 248.341C26.275 248.241 26.105 248.111 25.905 247.951C25.765 247.791 25.605 247.611 25.425 247.411C25.265 247.191 25.165 247.041 25.125 246.961C25.125 246.721 25.145 246.461 25.185 246.181C25.245 245.901 25.325 245.611 25.425 245.311C25.525 245.011 25.635 244.731 25.755 244.471C25.835 244.371 25.905 244.241 25.965 244.081C26.045 243.921 26.145 243.731 26.265 243.511C26.345 243.251 26.455 242.931 26.595 242.551C26.755 242.171 26.905 241.821 27.045 241.501C27.305 241.001 27.485 240.571 27.585 240.211C27.705 239.851 27.795 239.451 27.855 239.011C27.835 238.951 27.845 238.881 27.885 238.801C27.945 238.721 28.015 238.681 28.095 238.681H28.125C28.285 238.541 28.525 238.511 28.845 238.591C29.185 238.651 29.445 238.781 29.625 238.981C30.025 239.381 30.205 239.861 30.165 240.421C30.125 240.981 29.815 241.731 29.235 242.671C29.095 242.991 28.965 243.271 28.845 243.511C28.725 243.731 28.665 243.891 28.665 243.991C28.665 243.991 28.755 243.931 28.935 243.811C29.115 243.671 29.325 243.511 29.565 243.331C29.805 243.151 30.005 243.011 30.165 242.911C30.265 242.811 30.485 242.631 30.825 242.371C31.185 242.111 31.565 241.841 31.965 241.561C32.365 241.281 32.675 241.081 32.895 240.961C33.095 240.821 33.335 240.691 33.615 240.571C33.895 240.431 34.075 240.361 34.155 240.361C34.335 240.361 34.565 240.441 34.845 240.601C35.125 240.741 35.385 240.921 35.625 241.141C35.865 241.341 36.005 241.521 36.045 241.681C36.045 241.761 36.035 241.861 36.015 241.981C36.015 242.081 36.015 242.171 36.015 242.251C36.035 242.551 36.045 242.931 36.045 243.391C36.065 243.831 36.065 244.261 36.045 244.681C36.045 245.101 35.995 245.431 35.895 245.671C35.895 245.671 35.905 245.691 35.925 245.731C35.945 245.771 35.975 245.811 36.015 245.851C35.995 245.891 35.985 245.931 35.985 245.971C36.005 245.991 36.015 246.001 36.015 246.001C36.015 246.101 36.025 246.231 36.045 246.391C36.085 246.531 36.155 246.691 36.255 246.871C36.355 247.051 36.455 247.241 36.555 247.441C36.635 247.701 36.575 247.951 36.375 248.191C36.195 248.431 35.965 248.581 35.685 248.641Z" fill="#1967D2"/>
<path d="M14.5839 251.311C13.5839 251.011 12.8139 250.481 12.2739 249.721C11.7539 248.961 11.4739 247.901 11.4339 246.541C11.3939 245.161 11.5839 243.431 12.0039 241.351C12.1439 240.651 12.3439 239.851 12.6039 238.951C12.8639 238.051 13.1639 237.131 13.5039 236.191C13.8639 235.231 14.2339 234.311 14.6139 233.431C15.0139 232.531 15.4039 231.741 15.7839 231.061C16.2439 230.241 16.6239 229.711 16.9239 229.471C17.2439 229.211 17.5439 229.101 17.8239 229.141C18.2639 229.221 18.5939 229.411 18.8139 229.711C19.0339 229.991 19.1239 230.301 19.0839 230.641C19.0639 230.981 18.8839 231.261 18.5439 231.481C18.3239 231.741 18.0339 232.221 17.6739 232.921C17.3339 233.601 16.9839 234.261 16.6239 234.901C16.2239 236.061 15.8739 237.091 15.5739 237.991C15.2739 238.871 15.0239 239.701 14.8239 240.481C14.6239 241.261 14.4439 242.081 14.2839 242.941C14.1039 243.781 13.9639 244.441 13.8639 244.921C13.7839 245.401 13.7239 245.781 13.6839 246.061C13.6639 246.341 13.6439 246.581 13.6239 246.781C13.6239 246.981 13.6239 247.221 13.6239 247.501C13.7839 247.761 13.9139 247.991 14.0139 248.191C14.1139 248.391 14.2439 248.511 14.4039 248.551C14.7439 248.711 15.1039 248.781 15.4839 248.761C15.8639 248.721 16.2639 248.581 16.6839 248.341C16.7839 248.141 16.9139 248.001 17.0739 247.921C17.2339 247.841 17.3139 247.801 17.3139 247.801C17.3539 247.901 17.3939 247.931 17.4339 247.891C17.4939 247.831 17.5339 247.761 17.5539 247.681C17.5339 247.601 17.5539 247.531 17.6139 247.471C17.6739 247.391 17.7439 247.311 17.8239 247.231C17.9839 247.171 18.1939 246.991 18.4539 246.691C18.7339 246.391 19.0139 246.051 19.2939 245.671C19.5739 245.271 19.8039 244.911 19.9839 244.591C20.1839 244.271 20.2839 244.071 20.2839 243.991C20.2839 243.891 20.3239 243.801 20.4039 243.721C20.4839 243.641 20.5739 243.541 20.6739 243.421C20.7739 243.321 20.9739 243.001 21.2739 242.461C21.5939 241.901 21.9339 241.251 22.2939 240.511C22.6739 239.771 23.0139 239.091 23.3139 238.471C23.3739 238.251 23.4839 237.901 23.6439 237.421C23.8039 236.921 23.9739 236.351 24.1539 235.711C24.3539 235.071 24.5439 234.431 24.7239 233.791C24.9039 233.131 25.0639 232.551 25.2039 232.051C25.3639 231.531 25.4639 231.151 25.5039 230.911C25.5439 230.651 25.6039 230.441 25.6839 230.281C25.7639 230.101 25.8139 229.971 25.8339 229.891C26.0139 229.771 26.2139 229.751 26.4339 229.831C26.6539 229.891 26.8739 229.981 27.0939 230.101C27.3139 230.221 27.4839 230.311 27.6039 230.371C27.7239 230.531 27.7739 230.731 27.7539 230.971C27.7339 231.211 27.6639 231.581 27.5439 232.081C27.4439 232.561 27.2939 233.261 27.0939 234.181C26.6739 235.821 26.1639 237.331 25.5639 238.711C24.9839 240.091 24.3539 241.551 23.6739 243.091C23.6739 243.091 23.6739 243.101 23.6739 243.121C23.6739 243.121 23.6739 243.171 23.6739 243.271C23.4339 243.411 23.2439 243.621 23.1039 243.901C23.0039 244.081 22.9139 244.241 22.8339 244.381C22.7739 244.501 22.6939 244.591 22.5939 244.651C22.5339 244.831 22.4739 244.991 22.4139 245.131C22.3539 245.271 22.3239 245.341 22.3239 245.341C22.3039 245.441 22.2339 245.531 22.1139 245.611C21.9939 245.691 21.8739 245.771 21.7539 245.851C21.6539 245.891 21.5939 245.971 21.5739 246.091C21.5539 246.211 21.5139 246.311 21.4539 246.391C21.0139 247.051 20.4839 247.711 19.8639 248.371C19.2639 249.031 18.6439 249.601 18.0039 250.081C17.3639 250.581 16.7739 250.931 16.2339 251.131C15.8739 251.271 15.5739 251.351 15.3339 251.371C15.1139 251.391 14.8639 251.371 14.5839 251.311Z" fill="#1967D2"/>
<path d="M9.36344 237.021C9.92344 236.921 10.3434 237.171 10.6234 237.771C10.8834 238.371 10.8434 239.331 10.5034 240.651C10.3834 240.891 10.2834 241.121 10.2034 241.341C10.1234 241.581 10.0834 241.771 10.0834 241.911C10.0034 242.171 9.90344 242.471 9.78344 242.811C9.64344 243.171 9.50344 243.501 9.36344 243.801C9.22344 244.121 9.12344 244.331 9.06344 244.431C8.98344 244.431 8.90344 244.501 8.82344 244.641C8.72344 244.781 8.67344 244.921 8.67344 245.061C8.67344 245.221 8.64344 245.401 8.58344 245.601C8.50344 245.801 8.42344 245.941 8.34344 246.021C8.34344 246.121 8.30344 246.231 8.22344 246.351C8.14344 246.471 8.10344 246.571 8.10344 246.651C8.10344 246.731 8.08344 246.801 8.04344 246.861C7.98344 246.921 7.95344 246.991 7.95344 247.071C7.77344 247.391 7.54344 247.861 7.26344 248.481C6.96344 249.121 6.67344 249.791 6.39344 250.491C6.09344 251.191 5.84344 251.811 5.64344 252.351C5.44344 252.891 5.34344 253.221 5.34344 253.341C5.30344 253.501 5.24344 253.641 5.16344 253.761C5.08344 253.881 4.96344 253.921 4.80344 253.881C4.72344 253.941 4.62344 253.971 4.50344 253.971C4.36344 253.991 4.25344 254.001 4.17344 254.001C4.17344 254.001 4.10344 253.961 3.96344 253.881C3.82344 253.801 3.68344 253.681 3.54344 253.521C3.38344 253.381 3.29344 253.201 3.27344 252.981C3.25344 252.761 3.24344 252.531 3.24344 252.291C3.26344 251.911 3.40344 251.481 3.66344 251.001C3.92344 250.521 4.21344 249.991 4.53344 249.411C4.73344 249.031 4.93344 248.671 5.13344 248.331C5.31344 247.991 5.40344 247.781 5.40344 247.701C5.40344 247.621 5.44344 247.501 5.52344 247.341C5.60344 247.181 5.69344 246.981 5.79344 246.741C5.91344 246.541 6.03344 246.301 6.15344 246.021C6.27344 245.741 6.38344 245.481 6.48344 245.241C6.56344 245.021 6.60344 244.881 6.60344 244.821C6.62344 244.741 6.65344 244.661 6.69344 244.581C6.71344 244.501 6.76344 244.421 6.84344 244.341C6.92344 244.341 6.97344 244.281 6.99344 244.161C6.99344 244.061 6.99344 244.011 6.99344 244.011C6.99344 243.931 7.04344 243.741 7.14344 243.441C7.22344 243.161 7.36344 242.821 7.56344 242.421C7.94344 241.361 8.21344 240.511 8.37344 239.871C8.53344 239.251 8.63344 238.721 8.67344 238.281C8.71344 237.801 8.80344 237.491 8.94344 237.351C9.06344 237.211 9.20344 237.101 9.36344 237.021ZM10.9534 232.311C11.3534 232.171 11.6934 232.101 11.9734 232.101C12.2334 232.121 12.5334 232.251 12.8734 232.491C13.2534 232.871 13.3834 233.261 13.2634 233.661C13.1234 234.061 12.7734 234.451 12.2134 234.831C11.8334 235.071 11.5534 235.191 11.3734 235.191C11.1934 235.211 10.9134 235.141 10.5334 234.981C9.89344 234.581 9.61344 234.131 9.69344 233.631C9.75344 233.151 10.1734 232.711 10.9534 232.311Z" fill="#1967D2"/>
<defs>
<clipPath id="clip0_595_2990">
<rect width="212" height="212" rx="106" fill="white"/>
</clipPath>
</defs>
</svg>
