<svg width="304" height="153" viewBox="0 0 304 153" fill="none" xmlns="http://www.w3.org/2000/svg">
<g filter="url(#filter0_d_605_3075)">
<path fill-rule="evenodd" clip-rule="evenodd" d="M140.342 0.369385H296.829C299.409 0.369385 301.5 1.5552 301.5 3.01792V110.284C301.5 111.746 299.409 112.932 296.829 112.932H140.342C137.762 112.932 135.671 111.746 135.671 110.284V3.01792C135.671 1.5552 137.762 0.369385 140.342 0.369385V0.369385Z" fill="#F6F6F6"/>
</g>
<path fill-rule="evenodd" clip-rule="evenodd" d="M146.639 16.2606H288.541C289.837 16.2606 290.887 16.7775 290.887 17.4151V37.6187C290.887 38.2563 289.837 38.7732 288.541 38.7732H146.639C145.344 38.7732 144.294 38.2563 144.294 37.6187V17.4151C144.294 16.7775 145.344 16.2606 146.639 16.2606V16.2606Z" fill="#EDEDED"/>
<path fill-rule="evenodd" clip-rule="evenodd" d="M146.639 45.3945H288.541C289.837 45.3945 290.887 45.9114 290.887 46.549V66.7526C290.887 67.3902 289.837 67.9071 288.541 67.9071H146.639C145.344 67.9071 144.294 67.3902 144.294 66.7526V46.549C144.294 45.9114 145.344 45.3945 146.639 45.3945V45.3945Z" fill="#EDEDED"/>
<path fill-rule="evenodd" clip-rule="evenodd" d="M146.639 74.5284H288.541C289.837 74.5284 290.887 75.0453 290.887 75.6829V95.8865C290.887 96.5241 289.837 97.041 288.541 97.041H146.639C145.344 97.041 144.294 96.5241 144.294 95.8865V75.6829C144.294 75.0453 145.344 74.5284 146.639 74.5284V74.5284Z" fill="#EDEDED"/>
<path fill-rule="evenodd" clip-rule="evenodd" d="M147.504 6.21624C148.238 6.94922 148.238 8.13762 147.504 8.8706C146.769 9.60359 145.579 9.60359 144.845 8.8706C144.11 8.13762 144.11 6.94922 144.845 6.21624C145.579 5.48326 146.769 5.48326 147.504 6.21624" fill="#CCCCCC"/>
<path fill-rule="evenodd" clip-rule="evenodd" d="M155.026 6.21612C155.761 6.9491 155.761 8.1375 155.026 8.87048C154.292 9.60346 153.101 9.60346 152.367 8.87048C151.633 8.1375 151.633 6.9491 152.367 6.21612C153.101 5.48314 154.292 5.48314 155.026 6.21612" fill="#CCCCCC"/>
<path fill-rule="evenodd" clip-rule="evenodd" d="M162.547 6.21624C163.281 6.94922 163.281 8.13762 162.547 8.8706C161.812 9.60359 160.622 9.60359 159.888 8.8706C159.153 8.13762 159.153 6.94922 159.888 6.21624C160.622 5.48326 161.812 5.48326 162.547 6.21624" fill="#CCCCCC"/>
<path d="M218.187 88.3007C235.552 88.3007 249.628 74.2491 249.628 56.9156C249.628 39.5821 235.552 25.5305 218.187 25.5305C200.823 25.5305 186.746 39.5821 186.746 56.9156C186.746 74.2491 200.823 88.3007 218.187 88.3007Z" fill="url(#paint0_radial_605_3075)"/>
<path opacity="0.5" d="M218.187 88.3007C235.552 88.3007 249.628 74.2491 249.628 56.9156C249.628 39.5821 235.552 25.5305 218.187 25.5305C200.823 25.5305 186.746 39.5821 186.746 56.9156C186.746 74.2491 200.823 88.3007 218.187 88.3007Z" fill="url(#paint1_radial_605_3075)"/>
<path d="M218.187 88.3007C235.552 88.3007 249.628 74.2491 249.628 56.9156C249.628 39.5821 235.552 25.5305 218.187 25.5305C200.823 25.5305 186.746 39.5821 186.746 56.9156C186.746 74.2491 200.823 88.3007 218.187 88.3007Z" fill="url(#paint2_radial_605_3075)"/>
<path d="M218.187 88.3007C235.552 88.3007 249.628 74.2491 249.628 56.9156C249.628 39.5821 235.552 25.5305 218.187 25.5305C200.823 25.5305 186.746 39.5821 186.746 56.9156C186.746 74.2491 200.823 88.3007 218.187 88.3007Z" fill="url(#paint3_radial_605_3075)"/>
<path d="M239.863 67.3513C239.882 67.1748 239.902 66.9982 239.921 66.8413C239.882 66.2725 239.528 65.7428 238.959 65.5467C238.664 65.429 238.349 65.429 238.035 65.5074C231.609 67.2925 224.928 68.2144 218.188 68.2144C211.448 68.2144 204.766 67.3121 198.341 65.5074C198.046 65.429 197.712 65.429 197.417 65.5467C196.867 65.7624 196.513 66.2528 196.454 66.8217C196.474 67.0178 196.493 67.214 196.533 67.4298L196.886 68.901C196.965 69.1756 197.063 69.4698 197.181 69.7837C199.382 74.923 205.12 83.9658 218.207 83.9658C231.275 83.9658 237.013 74.9034 239.234 69.764C239.332 69.4894 239.43 69.2344 239.489 68.9794L239.863 67.3513Z" fill="url(#paint4_radial_605_3075)"/>
<path d="M218.187 82.5339C223.257 82.5339 227.148 81.0823 230.115 79.0227C226.853 77.5123 222.923 76.5315 218.187 76.5315C213.451 76.5315 209.501 77.5123 206.239 79.0423C209.226 81.1019 213.117 82.5339 218.187 82.5339Z" fill="url(#paint5_radial_605_3075)"/>
<path d="M239.488 68.9206L239.842 67.4102C239.881 67.1944 239.901 66.9982 239.901 66.8217C239.862 66.2528 239.488 65.7624 238.938 65.5467C238.643 65.429 238.329 65.429 238.014 65.5074C231.589 67.2925 224.907 68.2144 218.167 68.2144C211.427 68.2144 204.746 67.3121 198.32 65.5074C198.025 65.429 197.691 65.429 197.396 65.5467C196.846 65.7624 196.493 66.2528 196.434 66.8217C196.453 66.9982 196.473 67.214 196.493 67.4298L196.846 68.9206C196.925 69.1952 197.023 69.4894 197.141 69.7837C198.025 71.8629 199.499 74.5699 201.779 77.0611C199.637 74.5111 202.27 73.1183 207.006 73.6872C211.722 74.256 218.167 74.2757 218.167 74.2757C218.167 74.2757 224.613 74.256 229.329 73.6872C234.045 73.1183 236.698 74.5307 234.556 77.0611C236.855 74.5699 238.309 71.8629 239.194 69.7837C239.311 69.4698 239.41 69.1952 239.488 68.9206Z" fill="url(#paint6_linear_605_3075)"/>
<path d="M218.187 69.6462C211.388 69.6462 204.667 68.7439 198.163 66.9392L198.242 67.8219C198.399 69.5089 199.637 70.9016 201.288 71.2743C206.809 72.4904 212.469 73.0985 218.168 73.0985C224.318 73.0985 230.41 72.3924 236.344 70.98C237.229 70.7643 237.877 70.0189 237.975 69.1166L238.192 66.9588C231.707 68.7439 224.986 69.6462 218.187 69.6462Z" fill="url(#paint7_radial_605_3075)"/>
<path d="M205.532 38.7711C203.41 39.7322 202.015 41.6546 201.622 43.7731C199.755 42.655 197.397 42.4196 195.275 43.3808C191.836 44.9304 190.323 48.9712 191.875 52.3844C195.294 59.9364 209.718 61.6233 209.718 61.6233C209.718 61.6233 217.971 49.7166 214.552 42.145C213.019 38.7515 208.971 37.2214 205.532 38.7711Z" fill="url(#paint8_radial_605_3075)"/>
<path opacity="0.5" d="M208.362 38.163C214.218 42.0469 214.297 50.5601 211.448 54.2675C208.303 58.3671 204.982 58.6025 197.594 57.916C202.958 60.8387 209.718 61.6233 209.718 61.6233C209.718 61.6233 217.972 49.7166 214.552 42.1449C213.432 39.6734 210.956 38.1826 208.362 38.163Z" fill="url(#paint9_radial_605_3075)"/>
<path opacity="0.5" d="M205.532 38.7711C203.41 39.7322 202.015 41.6546 201.622 43.7731C199.755 42.655 197.397 42.4196 195.275 43.3808C191.836 44.9304 190.323 48.9712 191.875 52.3844C195.294 59.9364 209.718 61.6233 209.718 61.6233C209.718 61.6233 217.971 49.7166 214.552 42.145C213.019 38.7515 208.971 37.2214 205.532 38.7711Z" fill="url(#paint10_radial_605_3075)"/>
<path opacity="0.5" d="M205.532 38.7711C203.41 39.7322 202.015 41.6546 201.622 43.7731C199.755 42.655 197.397 42.4196 195.275 43.3808C191.836 44.9304 190.323 48.9712 191.875 52.3844C195.294 59.9364 209.718 61.6233 209.718 61.6233C209.718 61.6233 217.971 49.7166 214.552 42.145C213.019 38.7515 208.971 37.2214 205.532 38.7711Z" fill="url(#paint11_radial_605_3075)"/>
<path opacity="0.24" d="M200.011 44.3027C201.289 45.4797 200.817 48.0885 198.93 50.1286C197.044 52.1686 194.489 52.8552 193.192 51.6782C191.915 50.5013 192.387 47.8924 194.273 45.8524C196.16 43.8123 198.714 43.1258 200.011 44.3027Z" fill="url(#paint12_radial_605_3075)"/>
<path opacity="0.24" d="M207.065 39.6932C208.382 40.2621 208.716 42.4394 207.792 44.5579C206.869 46.6568 205.061 47.8926 203.724 47.3237C202.388 46.7549 202.074 44.5775 202.997 42.459C203.921 40.3602 205.729 39.1244 207.065 39.6932Z" fill="url(#paint13_radial_605_3075)"/>
<path opacity="0.32" d="M206.397 40.3795C209.993 40.0264 215.063 43.2826 212.626 51.2858C211.172 56.072 208.677 59.289 204.177 60.5052C207.301 61.3683 209.738 61.6625 209.738 61.6625C209.738 61.6625 217.991 49.7558 214.572 42.1841C213.019 38.7514 208.971 37.241 205.552 38.7906C203.43 39.7518 202.035 41.6741 201.642 43.7926C201.642 43.7926 203.764 40.6345 206.397 40.3795Z" fill="url(#paint14_linear_605_3075)"/>
<path d="M241.572 43.3613C239.449 42.4001 237.072 42.6355 235.224 43.7732C234.831 41.6351 233.436 39.7324 231.314 38.7712C227.875 37.2412 223.847 38.7712 222.294 42.204C218.895 49.756 227.207 61.6431 227.207 61.6431C227.207 61.6431 241.611 59.917 245.011 52.3453C246.543 48.9322 245.011 44.8913 241.572 43.3613Z" fill="url(#paint15_radial_605_3075)"/>
<path opacity="0.5" d="M243.91 45.0677C244.892 52.0117 238.545 57.7199 233.868 58.0533C228.7 58.426 226.342 56.0918 221.94 50.1286C223.296 56.0721 227.187 61.6626 227.187 61.6626C227.187 61.6626 241.591 59.9364 244.991 52.3648C246.13 49.8344 245.62 47.0097 243.91 45.0677Z" fill="url(#paint16_radial_605_3075)"/>
<path opacity="0.5" d="M241.572 43.3613C239.449 42.4001 237.072 42.6355 235.224 43.7732C234.831 41.6351 233.436 39.7324 231.314 38.7712C227.875 37.2412 223.847 38.7712 222.294 42.204C218.895 49.756 227.207 61.6431 227.207 61.6431C227.207 61.6431 241.611 59.917 245.011 52.3453C246.543 48.9322 245.011 44.8913 241.572 43.3613Z" fill="url(#paint17_radial_605_3075)"/>
<path opacity="0.5" d="M241.572 43.3613C239.449 42.4001 237.072 42.6355 235.224 43.7732C234.831 41.6351 233.436 39.7324 231.314 38.7712C227.875 37.2412 223.847 38.7712 222.294 42.204C218.895 49.756 227.207 61.6431 227.207 61.6431C227.207 61.6431 241.611 59.917 245.011 52.3453C246.543 48.9322 245.011 44.8913 241.572 43.3613Z" fill="url(#paint18_radial_605_3075)"/>
<path opacity="0.24" d="M233.751 42.8905C233.711 44.6363 231.432 46.0094 228.661 45.9505C225.89 45.8917 223.67 44.4401 223.69 42.6943C223.729 40.9485 226.008 39.5754 228.779 39.6343C231.57 39.6931 233.79 41.1447 233.751 42.8905Z" fill="url(#paint19_radial_605_3075)"/>
<path opacity="0.24" d="M241.906 45.107C242.358 46.4801 240.943 48.1671 238.762 48.8733C236.58 49.5794 234.438 49.0498 233.986 47.6767C233.535 46.3036 234.949 44.6167 237.131 43.9105C239.312 43.1847 241.454 43.7339 241.906 45.107Z" fill="url(#paint20_radial_605_3075)"/>
<path opacity="0.32" d="M240.943 45.0478C243.595 47.4997 244.499 53.4433 236.894 56.9349C232.335 59.0141 228.268 59.2887 224.377 56.7387C225.792 59.6418 227.207 61.6622 227.207 61.6622C227.207 61.6622 241.611 59.9361 245.01 52.3644C246.543 48.9317 245.01 44.9104 241.571 43.3608C239.449 42.3996 237.071 42.635 235.224 43.7727C235.224 43.7531 239.017 43.2627 240.943 45.0478Z" fill="url(#paint21_linear_605_3075)"/>
<g filter="url(#filter1_d_605_3075)">
<path fill-rule="evenodd" clip-rule="evenodd" d="M4.15412 29.0126H93.067C94.5328 29.0126 95.7211 29.6875 95.7211 30.5201V91.5754C95.7211 92.408 94.5328 93.0829 93.067 93.0829H4.15412C2.68829 93.0829 1.5 92.408 1.5 91.5754V30.5201C1.5 29.6875 2.68829 29.0126 4.15412 29.0126V29.0126Z" fill="#F6F6F6"/>
</g>
<path fill-rule="evenodd" clip-rule="evenodd" d="M7.73208 38.0577H88.3582C89.0942 38.0577 89.6909 38.3519 89.6909 38.7149V50.2147C89.6909 50.5776 89.0942 50.8718 88.3582 50.8718H7.73208C6.99607 50.8718 6.39941 50.5776 6.39941 50.2147V38.7149C6.39941 38.3519 6.99607 38.0577 7.73208 38.0577V38.0577Z" fill="#EDEDED"/>
<path fill-rule="evenodd" clip-rule="evenodd" d="M7.73208 54.6407H88.3582C89.0942 54.6407 89.6909 54.9349 89.6909 55.2979V66.7977C89.6909 67.1606 89.0942 67.4548 88.3582 67.4548H7.73208C6.99607 67.4548 6.39941 67.1606 6.39941 66.7977V55.2979C6.39941 54.9349 6.99607 54.6407 7.73208 54.6407V54.6407Z" fill="#EDEDED"/>
<path fill-rule="evenodd" clip-rule="evenodd" d="M7.73208 71.2236H88.3582C89.0942 71.2236 89.6909 71.5178 89.6909 71.8808V83.3806C89.6909 83.7435 89.0942 84.0377 88.3582 84.0377H7.73208C6.99607 84.0377 6.39941 83.7435 6.39941 83.3806V71.8808C6.39941 71.5178 6.99607 71.2236 7.73208 71.2236V71.2236Z" fill="#EDEDED"/>
<path fill-rule="evenodd" clip-rule="evenodd" d="M8.22317 32.3405C8.64039 32.7577 8.64039 33.4341 8.22317 33.8514C7.80597 34.2686 7.12953 34.2686 6.71232 33.8514C6.29511 33.4341 6.29511 32.7577 6.71232 32.3405C7.12953 31.9233 7.80597 31.9233 8.22317 32.3405" fill="#CCCCCC"/>
<path fill-rule="evenodd" clip-rule="evenodd" d="M12.4966 32.3405C12.9138 32.7577 12.9138 33.4341 12.4966 33.8514C12.0794 34.2686 11.403 34.2686 10.9858 33.8514C10.5685 33.4341 10.5685 32.7577 10.9858 32.3405C11.403 31.9233 12.0794 31.9233 12.4966 32.3405" fill="#CCCCCC"/>
<path fill-rule="evenodd" clip-rule="evenodd" d="M16.7701 32.3405C17.1873 32.7577 17.1873 33.4341 16.7701 33.8514C16.3528 34.2686 15.6764 34.2686 15.2592 33.8514C14.842 33.4341 14.842 32.7577 15.2592 32.3405C15.6764 31.9233 16.3528 31.9233 16.7701 32.3405" fill="#CCCCCC"/>
<path d="M48.9868 74.6157C56.4801 74.6157 62.5547 68.5412 62.5547 61.0478C62.5547 53.5545 56.4801 47.48 48.9868 47.48C41.4935 47.48 35.4189 53.5545 35.4189 61.0478C35.4189 68.5412 41.4935 74.6157 48.9868 74.6157Z" fill="url(#paint22_radial_605_3075)"/>
<path d="M39.8382 57.4097C39.906 57.9524 40.5335 58.2153 41.5342 58.0796C42.3906 57.9693 44.1969 57.2655 45.2738 55.4338C45.4688 55.0946 45.0872 54.9759 44.8752 55.2049C44.1714 55.9766 42.1532 57.1129 40.4742 57.1468C39.8043 57.1722 39.8382 57.4097 39.8382 57.4097Z" fill="url(#paint23_linear_605_3075)"/>
<path d="M43.526 62.7265C43.526 62.7265 41.2619 62.5993 40.558 60.9203C40.5156 60.8186 40.4902 60.6998 40.4817 60.5896C40.4732 60.3606 40.6683 60.1147 41.0838 60.3182C43.6193 61.5648 45.0185 60.8694 46.0615 60.3691C46.4685 60.1741 46.8501 60.5811 46.7484 60.9542C46.7144 61.0645 46.6975 61.1747 46.6466 61.2765C45.7901 62.8622 43.526 62.7265 43.526 62.7265Z" fill="url(#paint24_radial_605_3075)"/>
<path d="M46.7568 60.9033C46.8247 60.5387 46.4516 60.1741 46.0615 60.3606C45.0185 60.8525 43.6193 61.5563 41.0838 60.3098C40.6683 60.1062 40.4732 60.3606 40.4817 60.5811C40.4817 60.5896 40.4817 60.6066 40.4817 60.615C41.0414 60.7761 42.2201 61.4715 43.5514 61.4715C45.1117 61.48 46.1039 60.7253 46.7568 60.9033Z" fill="url(#paint25_linear_605_3075)"/>
<path d="M58.1379 57.4182C58.0701 57.9609 57.4426 58.2238 56.4419 58.0881C55.5855 57.9779 53.7792 57.274 52.7023 55.4424C52.5073 55.1032 52.8889 54.9845 53.1008 55.2134C53.8047 55.9851 55.8229 57.1214 57.5019 57.1553C58.1718 57.1808 58.1379 57.4182 58.1379 57.4182Z" fill="url(#paint26_linear_605_3075)"/>
<path d="M54.4568 62.7265C54.4568 62.7265 56.7209 62.5993 57.4248 60.9203C57.4672 60.8186 57.4926 60.6998 57.5011 60.5896C57.5096 60.3606 57.3145 60.1147 56.899 60.3182C54.3635 61.5648 52.9643 60.8694 51.9213 60.3691C51.5143 60.1741 51.1327 60.5811 51.2344 60.9542C51.2683 61.0645 51.2853 61.1747 51.3362 61.2765C52.1927 62.8622 54.4568 62.7265 54.4568 62.7265Z" fill="url(#paint27_radial_605_3075)"/>
<path d="M51.2258 60.9118C51.158 60.5471 51.5311 60.1825 51.9212 60.3691C52.9642 60.8609 54.3634 61.5647 56.8989 60.3182C57.3144 60.1147 57.5094 60.3691 57.5009 60.5895C57.5009 60.598 57.5009 60.615 57.5009 60.6235C56.9413 60.7846 55.7626 61.4799 54.4312 61.4799C52.8709 61.4884 51.8788 60.7337 51.2258 60.9118Z" fill="url(#paint28_linear_605_3075)"/>
<path d="M48.9868 70.1636C51.0803 70.1636 52.7773 69.7573 52.7773 69.2562C52.7773 68.7551 51.0803 68.3489 48.9868 68.3489C46.8934 68.3489 45.1963 68.7551 45.1963 69.2562C45.1963 69.7573 46.8934 70.1636 48.9868 70.1636Z" fill="url(#paint29_radial_605_3075)"/>
<path d="M48.9868 68.739C51.3188 68.739 52.3533 68.9086 52.7773 69.2817C52.7773 69.2732 52.7773 69.2647 52.7773 69.2562C52.7773 68.7559 52.2092 68.3489 48.9868 68.3489C45.7644 68.3489 45.1963 68.7559 45.1963 69.2562C45.1963 69.2647 45.1963 69.2732 45.1963 69.2817C45.6203 68.9086 46.6548 68.739 48.9868 68.739Z" fill="url(#paint30_linear_605_3075)"/>
<path d="M48.569 132.53C48.569 131.05 49.7689 129.85 51.249 129.85C52.7292 129.85 53.9291 131.05 53.9291 132.53C53.9291 134.01 52.7292 135.21 51.249 135.21C49.7689 135.21 48.569 134.01 48.569 132.53ZM220.093 132.53L216.779 137.293L214.311 132.042L220.093 132.53ZM132.827 152.088L132.835 151.585L132.827 152.088ZM51.4653 132.077C82.0178 146.642 100.598 151.095 132.835 151.585L132.82 152.59C100.431 152.098 81.7091 147.608 51.0328 132.984L51.4653 132.077ZM132.835 151.585C165.801 152.087 185.531 147.999 215.787 133.999L216.209 134.911C185.815 148.975 165.935 153.094 132.82 152.59L132.835 151.585Z" fill="#1967D2"/>
<path d="M248.15 141.233C248.15 141.233 248.101 141.211 248.005 141.168C247.908 141.125 247.823 141.061 247.748 140.975C247.672 140.89 247.63 140.782 247.619 140.654C247.597 140.525 247.587 140.396 247.587 140.268C247.608 140.053 247.683 139.818 247.812 139.56C247.951 139.303 248.107 139.024 248.278 138.724C248.385 138.52 248.487 138.327 248.584 138.145C248.691 137.963 248.745 137.85 248.745 137.808C248.745 137.765 248.766 137.7 248.809 137.615C248.852 137.529 248.9 137.422 248.954 137.293C249.018 137.186 249.082 137.057 249.147 136.907C249.211 136.757 249.259 136.618 249.291 136.489C249.334 136.36 249.356 136.285 249.356 136.264C249.377 136.221 249.393 136.178 249.404 136.135C249.415 136.092 249.441 136.049 249.484 136.007C249.527 136.007 249.549 135.98 249.549 135.926C249.559 135.862 249.565 135.83 249.565 135.83C249.565 135.787 249.586 135.69 249.629 135.54C249.683 135.379 249.763 135.192 249.87 134.977C250.074 134.409 250.219 133.959 250.304 133.627C250.401 133.284 250.454 132.994 250.465 132.758C250.487 132.501 250.546 132.329 250.642 132.244C250.749 132.147 250.84 132.078 250.915 132.035C251.226 131.981 251.462 132.11 251.623 132.421C251.794 132.731 251.784 133.268 251.591 134.029C251.526 134.157 251.473 134.281 251.43 134.398C251.387 134.516 251.366 134.618 251.366 134.704C251.333 134.843 251.28 135.01 251.205 135.203C251.13 135.385 251.055 135.556 250.98 135.717C250.905 135.878 250.851 135.99 250.819 136.055C250.776 136.055 250.728 136.092 250.674 136.167C250.631 136.232 250.61 136.307 250.61 136.392C250.61 136.478 250.594 136.575 250.562 136.682C250.529 136.789 250.487 136.864 250.433 136.907C250.433 136.95 250.412 137.004 250.369 137.068C250.326 137.132 250.304 137.191 250.304 137.245C250.304 137.288 250.288 137.325 250.256 137.357C250.235 137.379 250.224 137.416 250.224 137.47C250.127 137.641 249.999 137.893 249.838 138.226C249.688 138.569 249.532 138.928 249.372 139.303C249.222 139.678 249.093 140.011 248.986 140.3C248.879 140.589 248.825 140.766 248.825 140.831C248.814 140.916 248.782 140.997 248.728 141.072C248.686 141.147 248.621 141.179 248.535 141.168C248.493 141.201 248.428 141.217 248.343 141.217C248.257 141.227 248.192 141.233 248.15 141.233ZM251.526 131.038C251.173 130.813 251.017 130.566 251.06 130.298C251.103 130.019 251.339 129.773 251.768 129.558C251.993 129.473 252.18 129.435 252.33 129.446C252.491 129.446 252.657 129.51 252.829 129.639C253.043 129.853 253.113 130.073 253.038 130.298C252.974 130.512 252.786 130.727 252.475 130.941C252.261 131.07 252.1 131.14 251.993 131.15C251.896 131.15 251.741 131.113 251.526 131.038ZM252.41 138.001C252.217 137.893 252.11 137.775 252.089 137.647C252.078 137.518 252.153 137.293 252.314 136.971C252.475 136.65 252.726 136.151 253.07 135.476C253.327 134.993 253.498 134.618 253.584 134.35C253.681 134.072 253.734 133.873 253.745 133.755C253.756 133.637 253.761 133.562 253.761 133.53C253.74 133.434 253.75 133.359 253.793 133.305C253.836 133.241 253.906 133.187 254.002 133.144C254.056 133.091 254.179 132.994 254.372 132.855C254.565 132.715 254.715 132.549 254.822 132.356C254.919 132.131 255.026 131.901 255.144 131.665C255.273 131.429 255.439 131.134 255.642 130.78C255.846 130.416 256.119 129.944 256.462 129.365C256.677 128.99 256.929 128.567 257.218 128.095C257.518 127.623 257.813 127.194 258.103 126.809C258.221 126.658 258.344 126.541 258.473 126.455C258.601 126.369 258.714 126.326 258.81 126.326C259.046 126.326 259.282 126.39 259.518 126.519C259.754 126.637 259.963 126.787 260.145 126.969C260.327 127.152 260.45 127.323 260.515 127.484C260.568 127.57 260.59 127.752 260.579 128.031C260.568 128.309 260.547 128.647 260.515 129.044C260.483 129.44 260.445 129.864 260.402 130.314C260.37 130.754 260.322 131.274 260.257 131.874C260.193 132.474 260.129 133.101 260.064 133.755C260.011 134.409 259.968 135.042 259.936 135.653C259.904 136.253 259.904 136.778 259.936 137.229C259.947 137.325 259.947 137.416 259.936 137.502C259.925 137.588 259.92 137.657 259.92 137.711C259.855 137.775 259.716 137.802 259.502 137.791C259.287 137.791 259.078 137.759 258.875 137.695C258.671 137.631 258.558 137.55 258.537 137.454C258.505 137.422 258.483 137.395 258.473 137.373C258.462 137.352 258.462 137.25 258.473 137.068C258.483 136.875 258.499 136.526 258.521 136.023L258.601 133.562L258.392 133.578C258.296 133.578 258.119 133.589 257.861 133.611C257.615 133.632 257.342 133.664 257.041 133.707C256.752 133.739 256.484 133.777 256.237 133.82C255.991 133.852 255.819 133.884 255.723 133.916C255.626 133.916 255.508 133.98 255.369 134.109C255.24 134.238 255.117 134.404 254.999 134.608C254.956 134.758 254.876 134.918 254.758 135.09C254.651 135.251 254.597 135.358 254.597 135.412C254.522 135.465 254.458 135.529 254.404 135.605C254.361 135.68 254.34 135.717 254.34 135.717C254.34 135.781 254.292 135.942 254.195 136.199C254.099 136.446 253.981 136.725 253.841 137.036C253.702 137.336 253.557 137.598 253.407 137.824L252.973 138.435L252.41 138.001ZM256.253 132.469C256.253 132.469 256.312 132.458 256.43 132.437C256.548 132.415 256.688 132.394 256.848 132.372C257.02 132.34 257.17 132.324 257.299 132.324C257.545 132.26 257.749 132.212 257.91 132.179C258.081 132.147 258.221 132.131 258.328 132.131C258.435 132.12 258.521 132.131 258.585 132.163C258.628 132.217 258.665 132.249 258.698 132.26C258.741 132.271 258.762 132.276 258.762 132.276C258.773 132.254 258.794 132.142 258.826 131.938C258.858 131.735 258.896 131.483 258.939 131.182C258.982 130.882 259.025 130.571 259.068 130.25C259.11 129.917 259.148 129.612 259.18 129.333C259.212 129.044 259.234 128.819 259.244 128.658C259.255 128.454 259.25 128.272 259.228 128.111C259.207 127.94 259.196 127.854 259.196 127.854C259.132 127.854 259.009 127.972 258.826 128.208C258.655 128.433 258.451 128.738 258.215 129.124C257.99 129.499 257.765 129.907 257.54 130.346C257.433 130.55 257.331 130.711 257.234 130.829C257.149 130.947 257.079 131.006 257.025 131.006C257.004 131.027 256.945 131.113 256.848 131.263C256.763 131.402 256.666 131.563 256.559 131.745C256.462 131.917 256.377 132.078 256.302 132.228C256.237 132.367 256.221 132.447 256.253 132.469ZM268.891 137.148C268.57 137.33 268.227 137.438 267.862 137.47C267.509 137.491 267.176 137.443 266.865 137.325C266.554 137.196 266.303 137.009 266.11 136.762C266.002 136.623 265.901 136.403 265.804 136.103C265.708 135.792 265.691 135.374 265.756 134.849C265.82 134.356 265.97 133.857 266.206 133.353C266.453 132.849 266.753 132.405 267.107 132.019C267.46 131.633 267.846 131.37 268.264 131.231C268.414 131.177 268.565 131.14 268.715 131.118C268.875 131.086 269.084 131.081 269.342 131.102C269.588 131.134 269.808 131.198 270.001 131.295C270.194 131.381 270.333 131.477 270.419 131.584C270.591 131.756 270.703 131.922 270.757 132.083C270.81 132.244 270.832 132.399 270.821 132.549C270.768 132.892 270.612 133.262 270.355 133.659C270.108 134.055 269.76 134.35 269.31 134.543C269.127 134.618 268.913 134.666 268.666 134.688C268.42 134.709 268.082 134.677 267.653 134.591C267.396 134.538 267.224 134.565 267.139 134.672C267.064 134.779 267.032 134.988 267.042 135.299C267.064 135.492 267.107 135.663 267.171 135.814C267.246 135.953 267.38 136.049 267.573 136.103C267.819 136.146 267.996 136.151 268.104 136.119C268.211 136.076 268.345 136.017 268.506 135.942C268.591 135.889 268.672 135.83 268.747 135.765C268.833 135.701 268.913 135.637 268.988 135.572C269.074 135.508 269.143 135.46 269.197 135.428C269.251 135.385 269.304 135.358 269.358 135.347C269.411 135.337 269.465 135.331 269.519 135.331C269.637 135.342 269.749 135.406 269.856 135.524C269.964 135.642 270.033 135.755 270.065 135.862C270.065 135.948 270.012 136.071 269.905 136.232C269.797 136.382 269.653 136.543 269.47 136.714C269.299 136.875 269.106 137.02 268.891 137.148ZM268.682 133.562C268.757 133.53 268.865 133.455 269.004 133.337C269.154 133.219 269.288 133.096 269.406 132.967C269.524 132.828 269.583 132.721 269.583 132.646C269.583 132.528 269.503 132.426 269.342 132.34C269.192 132.254 268.993 132.238 268.747 132.292C268.661 132.313 268.559 132.372 268.441 132.469C268.323 132.565 268.205 132.678 268.087 132.807C267.97 132.924 267.868 133.042 267.782 133.16C267.696 133.268 267.637 133.353 267.605 133.418C267.648 133.471 267.734 133.514 267.862 133.546C267.991 133.578 268.13 133.594 268.28 133.594C268.441 133.594 268.575 133.584 268.682 133.562ZM272.332 137.566C271.968 137.416 271.7 137.261 271.528 137.1C271.368 136.928 271.303 136.778 271.335 136.65C271.357 136.585 271.394 136.526 271.448 136.473C271.502 136.419 271.62 136.398 271.802 136.409C271.995 136.409 272.29 136.457 272.686 136.553C272.804 136.553 272.922 136.548 273.04 136.537C273.158 136.526 273.265 136.51 273.362 136.489C273.469 136.468 273.555 136.441 273.619 136.409C273.672 136.387 273.689 136.36 273.667 136.328C273.646 136.285 273.608 136.242 273.555 136.199C273.512 136.146 273.463 136.114 273.41 136.103C273.356 136.082 273.308 136.071 273.265 136.071C273.244 136.017 273.195 135.964 273.12 135.91C273.056 135.856 272.976 135.797 272.879 135.733C272.643 135.54 272.429 135.369 272.236 135.219C272.043 135.069 271.968 134.956 272.011 134.881C272.011 134.838 272.011 134.817 272.011 134.817C272.011 134.806 272.011 134.801 272.011 134.801C271.936 134.801 271.866 134.699 271.802 134.495C271.737 134.281 271.705 134.088 271.705 133.916C271.705 133.702 271.748 133.487 271.834 133.273C271.93 133.058 272.048 132.855 272.188 132.662C272.338 132.469 272.488 132.297 272.638 132.147C272.842 131.954 273.056 131.767 273.281 131.584C273.517 131.391 273.769 131.22 274.037 131.07C274.316 130.92 274.621 130.802 274.954 130.716C275.104 130.684 275.275 130.668 275.468 130.668C275.661 130.668 275.8 130.695 275.886 130.748C275.972 130.695 276.079 130.711 276.208 130.796C276.336 130.872 276.465 130.979 276.594 131.118C276.722 131.257 276.819 131.397 276.883 131.536C276.883 131.665 276.878 131.826 276.867 132.019C276.867 132.201 276.856 132.362 276.835 132.501C276.814 132.64 276.765 132.71 276.69 132.71C276.69 132.71 276.674 132.715 276.642 132.726C276.621 132.726 276.61 132.753 276.61 132.807C276.61 132.914 276.529 133.037 276.369 133.176C276.165 133.316 275.972 133.428 275.79 133.514C275.607 133.6 275.468 133.605 275.372 133.53C275.307 133.487 275.248 133.444 275.195 133.402C275.141 133.359 275.093 133.305 275.05 133.241C275.05 133.241 275.034 133.219 275.002 133.176C274.98 133.123 274.97 133.075 274.97 133.032C274.97 132.989 274.986 132.951 275.018 132.919C275.05 132.876 275.066 132.855 275.066 132.855C275.216 132.715 275.329 132.587 275.404 132.469C275.49 132.351 275.549 132.249 275.581 132.163C275.613 132.067 275.629 131.992 275.629 131.938C275.629 131.874 275.613 131.836 275.581 131.826C275.559 131.804 275.506 131.793 275.42 131.793C275.366 131.793 275.248 131.836 275.066 131.922C274.895 132.008 274.712 132.115 274.519 132.244C274.326 132.362 274.176 132.469 274.069 132.565C274.026 132.64 273.994 132.689 273.973 132.71C273.962 132.731 273.935 132.742 273.892 132.742C273.892 132.699 273.865 132.705 273.812 132.758C273.758 132.812 273.694 132.887 273.619 132.983C273.544 133.08 273.469 133.182 273.394 133.289C273.319 133.396 273.26 133.482 273.217 133.546C273.206 133.643 273.179 133.734 273.136 133.82C273.104 133.895 273.094 133.975 273.104 134.061C273.115 134.168 273.169 134.27 273.265 134.366C273.362 134.463 273.501 134.586 273.683 134.736C274.058 135.015 274.337 135.235 274.519 135.395C274.712 135.556 274.846 135.685 274.921 135.781C274.996 135.878 275.045 135.974 275.066 136.071C275.248 136.403 275.27 136.693 275.13 136.939C274.991 137.175 274.777 137.357 274.487 137.486C274.38 137.54 274.192 137.588 273.924 137.631C273.656 137.684 273.372 137.706 273.072 137.695C272.783 137.695 272.536 137.652 272.332 137.566ZM279.514 137.566C279.364 137.523 279.214 137.448 279.064 137.341C278.914 137.234 278.758 137.111 278.598 136.971C278.469 136.8 278.378 136.644 278.324 136.505C278.271 136.355 278.238 136.183 278.228 135.99C278.228 135.787 278.228 135.529 278.228 135.219C278.228 135.09 278.249 134.908 278.292 134.672C278.346 134.436 278.399 134.189 278.453 133.932C278.517 133.675 278.576 133.45 278.63 133.257C278.683 133.053 278.715 132.919 278.726 132.855C278.758 132.715 278.705 132.635 278.565 132.614C278.426 132.592 278.271 132.587 278.099 132.597C277.938 132.597 277.831 132.581 277.777 132.549C277.735 132.539 277.713 132.485 277.713 132.388C277.713 132.281 277.713 132.228 277.713 132.228C277.713 132.185 277.692 132.158 277.649 132.147C277.606 132.126 277.568 132.088 277.536 132.035C277.515 131.992 277.542 131.911 277.617 131.793C277.692 131.676 277.788 131.606 277.906 131.584C278.003 131.563 278.147 131.547 278.34 131.536C278.533 131.515 278.726 131.477 278.919 131.424C279.123 131.359 279.278 131.263 279.385 131.134C279.482 130.898 279.589 130.646 279.707 130.378C279.825 130.1 279.938 129.858 280.045 129.655C280.152 129.44 280.227 129.306 280.27 129.253C280.452 129.156 280.64 129.119 280.833 129.14C281.026 129.151 281.176 129.242 281.283 129.414C281.337 129.489 281.379 129.542 281.412 129.574C281.454 129.607 281.471 129.655 281.46 129.719C281.46 129.783 281.417 129.901 281.331 130.073C281.256 130.234 281.128 130.486 280.945 130.829C280.892 130.936 280.843 131.032 280.801 131.118C280.758 131.193 280.736 131.231 280.736 131.231C280.779 131.241 280.843 131.247 280.929 131.247C281.015 131.247 281.122 131.241 281.251 131.231C281.369 131.209 281.497 131.193 281.637 131.182C281.776 131.161 281.899 131.161 282.007 131.182C282.253 131.182 282.435 131.252 282.553 131.391C282.671 131.531 282.736 131.708 282.746 131.922C282.768 132.04 282.725 132.142 282.618 132.228C282.51 132.313 282.312 132.356 282.023 132.356C281.926 132.356 281.787 132.362 281.605 132.372C281.422 132.383 281.235 132.394 281.042 132.405C280.849 132.415 280.683 132.431 280.543 132.453C280.415 132.463 280.35 132.48 280.35 132.501C280.318 132.522 280.265 132.608 280.189 132.758C280.125 132.898 280.055 133.069 279.98 133.273C279.916 133.477 279.857 133.67 279.804 133.852C279.729 134.216 279.675 134.57 279.643 134.913C279.611 135.256 279.605 135.556 279.627 135.814C279.659 136.06 279.723 136.237 279.82 136.344C279.916 136.441 280.061 136.441 280.254 136.344C280.457 136.237 280.645 136.114 280.817 135.974C281.01 135.814 281.176 135.765 281.315 135.83C281.454 135.883 281.54 136.001 281.572 136.183C281.615 136.355 281.567 136.543 281.428 136.746C281.299 136.95 281.117 137.121 280.881 137.261C280.645 137.4 280.404 137.497 280.157 137.55C279.911 137.615 279.696 137.62 279.514 137.566ZM284.596 137.341C284.371 137.384 284.2 137.373 284.082 137.309C283.975 137.234 283.862 137.143 283.744 137.036C283.573 136.95 283.417 136.832 283.278 136.682C283.138 136.521 283.031 136.355 282.956 136.183C282.881 136.012 282.849 135.878 282.86 135.781C282.892 135.406 282.978 134.999 283.117 134.559C283.267 134.12 283.455 133.691 283.68 133.273C283.916 132.855 284.178 132.485 284.468 132.163C284.768 131.831 285.09 131.59 285.433 131.44C285.647 131.354 285.877 131.322 286.124 131.343C286.371 131.365 286.537 131.466 286.623 131.649C286.783 131.96 286.746 132.158 286.51 132.244C286.478 132.244 286.44 132.26 286.397 132.292C286.355 132.313 286.333 132.346 286.333 132.388C286.376 132.41 286.494 132.415 286.687 132.405C286.88 132.383 287.073 132.351 287.266 132.308C287.469 132.254 287.603 132.201 287.668 132.147C287.732 132.115 287.78 132.099 287.812 132.099C287.845 132.099 287.925 132.11 288.054 132.131C288.236 132.185 288.327 132.249 288.327 132.324C288.327 132.367 288.343 132.437 288.375 132.533C288.407 132.619 288.445 132.662 288.488 132.662C288.563 132.673 288.579 132.748 288.536 132.887C288.504 133.026 288.381 133.171 288.166 133.321C287.963 133.45 287.834 133.536 287.78 133.578C287.737 133.611 287.732 133.686 287.764 133.804C287.85 134.007 287.845 134.254 287.748 134.543C287.652 134.833 287.491 135.133 287.266 135.444C287.041 135.755 286.773 136.049 286.462 136.328C286.162 136.596 285.845 136.827 285.513 137.02C285.191 137.202 284.886 137.309 284.596 137.341ZM284.645 135.99C284.688 135.99 284.763 135.969 284.87 135.926C284.977 135.873 285.063 135.83 285.127 135.797C285.17 135.755 285.224 135.706 285.288 135.653C285.363 135.588 285.422 135.551 285.465 135.54C285.508 135.54 285.534 135.524 285.545 135.492C285.556 135.449 285.593 135.369 285.658 135.251C285.722 135.122 285.851 134.935 286.044 134.688C286.258 134.452 286.397 134.264 286.462 134.125C286.526 133.975 286.531 133.814 286.478 133.643C286.467 133.6 286.435 133.573 286.381 133.562C286.338 133.552 286.279 133.525 286.204 133.482C286.097 133.482 286.022 133.509 285.979 133.562C285.947 133.605 285.872 133.578 285.754 133.482L285.497 133.16L285.224 133.434C285.052 133.605 284.897 133.82 284.757 134.077C284.629 134.334 284.527 134.597 284.452 134.865C284.377 135.133 284.328 135.369 284.307 135.572C284.296 135.733 284.323 135.84 284.387 135.894C284.452 135.948 284.537 135.98 284.645 135.99ZM290.808 134.881C290.508 134.935 290.272 134.811 290.101 134.511C289.929 134.2 289.94 133.659 290.133 132.887C290.197 132.758 290.251 132.635 290.294 132.517C290.337 132.388 290.358 132.287 290.358 132.212C290.401 132.072 290.455 131.911 290.519 131.729C290.594 131.536 290.669 131.359 290.744 131.198C290.819 131.027 290.873 130.914 290.905 130.861C290.948 130.861 290.991 130.823 291.033 130.748C291.087 130.673 291.114 130.598 291.114 130.523C291.114 130.437 291.13 130.341 291.162 130.234C291.205 130.126 291.248 130.051 291.291 130.009C291.291 129.955 291.312 129.896 291.355 129.832C291.398 129.767 291.419 129.714 291.419 129.671C291.419 129.628 291.43 129.59 291.452 129.558C291.484 129.526 291.5 129.489 291.5 129.446C291.596 129.274 291.72 129.022 291.87 128.69C292.03 128.347 292.186 127.988 292.336 127.613C292.497 127.237 292.631 126.905 292.738 126.616C292.845 126.326 292.899 126.149 292.899 126.085C292.92 125.999 292.952 125.919 292.995 125.844C293.038 125.769 293.102 125.742 293.188 125.763C293.231 125.731 293.295 125.715 293.381 125.715C293.467 125.704 293.531 125.699 293.574 125.699C293.574 125.699 293.622 125.72 293.719 125.763C293.815 125.806 293.901 125.871 293.976 125.956C294.062 126.031 294.11 126.133 294.121 126.262C294.132 126.39 294.137 126.519 294.137 126.648C294.126 126.851 294.051 127.082 293.912 127.339C293.772 127.596 293.617 127.881 293.446 128.191C293.338 128.395 293.231 128.588 293.124 128.77C293.027 128.953 292.979 129.065 292.979 129.108C292.979 129.151 292.958 129.215 292.915 129.301C292.872 129.387 292.824 129.494 292.77 129.623C292.706 129.73 292.641 129.858 292.577 130.009C292.524 130.159 292.475 130.298 292.432 130.427C292.39 130.545 292.368 130.62 292.368 130.652C292.357 130.695 292.341 130.738 292.32 130.78C292.309 130.823 292.282 130.866 292.239 130.909C292.197 130.909 292.17 130.941 292.159 131.006C292.159 131.059 292.159 131.086 292.159 131.086C292.159 131.129 292.132 131.231 292.079 131.391C292.036 131.542 291.961 131.724 291.854 131.938C291.65 132.506 291.505 132.962 291.419 133.305C291.334 133.637 291.28 133.921 291.259 134.157C291.237 134.415 291.178 134.591 291.082 134.688C290.985 134.774 290.894 134.838 290.808 134.881ZM289.956 137.373C289.731 137.459 289.543 137.497 289.393 137.486C289.243 137.486 289.077 137.416 288.895 137.277C288.68 137.062 288.605 136.848 288.67 136.634C288.745 136.409 288.938 136.194 289.249 135.99C289.463 135.851 289.618 135.781 289.715 135.781C289.822 135.771 289.978 135.808 290.181 135.894C290.546 136.119 290.706 136.371 290.664 136.65C290.621 136.918 290.385 137.159 289.956 137.373Z" fill="#1967D2"/>
<path d="M3.84925 118.917C3.7206 118.917 3.6134 118.847 3.52764 118.708C3.46332 118.643 3.39363 118.541 3.31859 118.402C3.24355 118.263 3.21675 118.038 3.23819 117.727C3.27035 117.405 3.38827 116.939 3.59196 116.328C3.69916 115.92 3.78492 115.625 3.84925 115.443C3.91357 115.25 3.94573 115.111 3.94573 115.025C3.94573 114.907 3.95645 114.811 3.97789 114.736C4.01005 114.65 4.02613 114.57 4.02613 114.494C4.09045 114.494 4.15477 114.436 4.2191 114.318C4.28342 114.2 4.33702 114.039 4.3799 113.835C4.42278 113.653 4.4603 113.508 4.49246 113.401C4.53534 113.283 4.55678 113.203 4.55678 113.16C4.61039 113.074 4.66399 112.94 4.71759 112.758C4.78191 112.576 4.87839 112.356 5.00704 112.098C5.0928 111.777 5.18928 111.445 5.29648 111.102C5.40369 110.748 5.51089 110.421 5.61809 110.121C5.73601 109.81 5.8325 109.569 5.90754 109.397C6.02546 109.065 6.11658 108.834 6.1809 108.706C6.24523 108.566 6.24523 108.475 6.1809 108.432C6.10586 108.379 6.06834 108.245 6.06834 108.03C6.07906 107.805 6.1809 107.612 6.37387 107.451C6.49179 107.312 6.64188 107.215 6.82412 107.162C7.00637 107.097 7.21541 107.065 7.45126 107.065C7.6871 107.065 7.93367 107.076 8.19096 107.097C8.38392 107.108 8.58761 107.114 8.80201 107.114C9.02714 107.114 9.1665 107.114 9.2201 107.114C9.31658 107.156 9.43451 107.205 9.57387 107.258C9.71323 107.312 9.83652 107.365 9.94372 107.419C10.0616 107.462 10.1206 107.499 10.1206 107.532C10.1206 107.596 10.142 107.639 10.1849 107.66C10.2385 107.671 10.2921 107.682 10.3457 107.692C10.4208 107.692 10.5441 107.762 10.7156 107.902C10.8871 108.03 11.0586 108.191 11.2302 108.384C11.4124 108.566 11.541 108.748 11.6161 108.931C11.7018 109.113 11.7715 109.284 11.8251 109.445C11.8894 109.606 11.8948 109.837 11.8412 110.137C11.8305 110.297 11.8037 110.458 11.7608 110.619C11.7286 110.78 11.6911 110.887 11.6482 110.941C11.5839 110.984 11.525 111.037 11.4714 111.102C11.4178 111.166 11.391 111.225 11.391 111.278C11.391 111.321 11.3481 111.428 11.2623 111.6C11.1766 111.761 11.0693 111.948 10.9407 112.163C10.8121 112.366 10.6727 112.57 10.5226 112.774C10.3725 112.978 10.2332 113.138 10.1045 113.256C9.96516 113.428 9.799 113.589 9.60603 113.739C9.42379 113.889 9.25762 114.012 9.10754 114.109C8.82881 114.237 8.5072 114.36 8.14271 114.478C7.78895 114.596 7.4459 114.693 7.11357 114.768C6.78124 114.832 6.51323 114.859 6.30955 114.848C5.99866 114.891 5.79498 114.934 5.69849 114.977C5.60201 115.009 5.53233 115.1 5.48945 115.25C5.43585 115.39 5.38224 115.534 5.32864 115.684C5.28576 115.835 5.26432 115.942 5.26432 116.006C5.24288 116.049 5.19464 116.167 5.1196 116.36C5.05528 116.553 4.97487 116.778 4.87839 117.035C4.79263 117.292 4.71223 117.55 4.63719 117.807C4.56214 118.064 4.50318 118.284 4.4603 118.466C4.41742 118.616 4.3263 118.729 4.18693 118.804C4.05829 118.879 3.94573 118.917 3.84925 118.917ZM6.13266 113.546C6.17554 113.589 6.31491 113.594 6.55075 113.562C6.7866 113.53 7.07069 113.449 7.40302 113.321C7.61742 113.246 7.83183 113.154 8.04623 113.047C8.27136 112.94 8.48576 112.822 8.68945 112.693C8.79665 112.618 8.90921 112.527 9.02714 112.42C9.14506 112.302 9.31122 112.109 9.52563 111.841C9.55779 111.788 9.61139 111.686 9.68643 111.536C9.77219 111.375 9.84724 111.225 9.91156 111.085C10.008 110.935 10.1045 110.716 10.201 110.426C10.2975 110.126 10.3189 109.879 10.2653 109.686C10.2117 109.408 10.1045 109.177 9.94372 108.995C9.78292 108.802 9.57923 108.663 9.33266 108.577C9.09682 108.534 8.89849 108.507 8.73769 108.496C8.58761 108.486 8.42144 108.496 8.2392 108.529C8.06767 108.582 7.94439 108.657 7.86935 108.754C7.80503 108.85 7.70854 109.054 7.5799 109.365C7.50486 109.515 7.39766 109.724 7.25829 109.992C7.11893 110.249 7.00101 110.512 6.90452 110.78C6.71156 111.487 6.54003 112.029 6.38995 112.404C6.25059 112.779 6.15946 113.026 6.11658 113.144C6.1273 113.262 6.12194 113.347 6.1005 113.401C6.07906 113.444 6.08978 113.492 6.13266 113.546ZM11.1937 117.662C11.1508 117.577 11.0544 117.491 10.9043 117.405C10.7649 117.319 10.6952 117.255 10.6952 117.212C10.6952 117.169 10.6684 117.105 10.6148 117.019C10.5719 116.923 10.5291 116.853 10.4862 116.81C10.4326 116.746 10.4487 116.59 10.5344 116.344C10.6202 116.086 10.7488 115.776 10.9204 115.411C11.0919 115.047 11.2795 114.677 11.4832 114.302C11.5689 114.216 11.6547 114.103 11.7405 113.964C11.8262 113.824 11.8905 113.733 11.9334 113.69C11.9334 113.648 11.9495 113.61 11.9817 113.578C12.0138 113.535 12.0513 113.514 12.0942 113.514L12.2229 113.256C12.2443 113.213 12.3086 113.128 12.4158 112.999C12.5338 112.87 12.6731 112.731 12.8339 112.581C12.9947 112.42 13.1555 112.27 13.3163 112.131C13.4879 111.991 13.6272 111.889 13.7344 111.825C13.9595 111.675 14.19 111.605 14.4259 111.616C14.6724 111.627 14.8815 111.702 15.053 111.841C15.0852 111.873 15.1549 111.938 15.2621 112.034C15.38 112.131 15.5086 112.238 15.648 112.356C15.7981 112.474 15.9267 112.581 16.0339 112.677L16.6289 113.208L16.3555 114.012C16.2162 114.441 16.1786 114.816 16.243 115.138C16.3073 115.459 16.4091 115.738 16.5485 115.974C16.6021 116.092 16.6718 116.183 16.7575 116.247C16.854 116.312 16.9773 116.354 17.1274 116.376C17.2132 116.387 17.2936 116.419 17.3686 116.472C17.4436 116.526 17.4812 116.612 17.4812 116.73C17.4812 116.987 17.4329 117.175 17.3364 117.292C17.2507 117.4 17.1542 117.464 17.047 117.485C16.6932 117.528 16.3555 117.491 16.0339 117.373C15.7123 117.255 15.4229 116.949 15.1656 116.456C15.1227 116.392 15.0637 116.274 14.9887 116.103C14.9244 115.92 14.8869 115.802 14.8761 115.749C14.8333 115.802 14.7743 115.872 14.6992 115.958C14.6349 116.033 14.5706 116.103 14.5063 116.167C13.7451 116.939 13.0912 117.443 12.5445 117.678C12.0085 117.904 11.5582 117.898 11.1937 117.662ZM12.0781 116.328C12.1532 116.338 12.2711 116.301 12.4319 116.215C12.5927 116.119 12.8071 115.963 13.0751 115.749C13.4396 115.438 13.7398 115.181 13.9756 114.977C14.2115 114.773 14.442 114.511 14.6671 114.189L15.0209 113.61C14.9137 113.363 14.8172 113.203 14.7314 113.128C14.6456 113.053 14.5599 113.015 14.4741 113.015C14.3348 113.015 14.1686 113.106 13.9756 113.288C13.7827 113.46 13.5629 113.717 13.3163 114.06C13.0805 114.393 12.8125 114.811 12.5123 115.315C12.3729 115.55 12.2657 115.781 12.1907 116.006C12.1157 116.22 12.0781 116.328 12.0781 116.328ZM19.1582 118.096C18.7937 117.946 18.5257 117.791 18.3541 117.63C18.1933 117.459 18.129 117.309 18.1612 117.18C18.1826 117.116 18.2201 117.057 18.2737 117.003C18.3273 116.949 18.4453 116.928 18.6275 116.939C18.8205 116.939 19.1153 116.987 19.5119 117.083C19.6299 117.083 19.7478 117.078 19.8657 117.067C19.9836 117.057 20.0908 117.041 20.1873 117.019C20.2945 116.998 20.3803 116.971 20.4446 116.939C20.4982 116.917 20.5143 116.89 20.4928 116.858C20.4714 116.815 20.4339 116.773 20.3803 116.73C20.3374 116.676 20.2892 116.644 20.2356 116.633C20.182 116.612 20.1337 116.601 20.0908 116.601C20.0694 116.547 20.0211 116.494 19.9461 116.44C19.8818 116.387 19.8014 116.328 19.7049 116.263C19.4691 116.07 19.2546 115.899 19.0617 115.749C18.8687 115.599 18.7937 115.486 18.8366 115.411C18.8366 115.368 18.8366 115.347 18.8366 115.347C18.8366 115.336 18.8366 115.331 18.8366 115.331C18.7615 115.331 18.6918 115.229 18.6275 115.025C18.5632 114.811 18.531 114.618 18.531 114.446C18.531 114.232 18.5739 114.017 18.6597 113.803C18.7562 113.589 18.8741 113.385 19.0134 113.192C19.1635 112.999 19.3136 112.827 19.4637 112.677C19.6674 112.484 19.8818 112.297 20.1069 112.115C20.3428 111.922 20.5947 111.75 20.8627 111.6C21.1414 111.45 21.4469 111.332 21.7793 111.246C21.9294 111.214 22.1009 111.198 22.2938 111.198C22.4868 111.198 22.6262 111.225 22.7119 111.278C22.7977 111.225 22.9049 111.241 23.0335 111.327C23.1622 111.402 23.2908 111.509 23.4195 111.648C23.5481 111.788 23.6446 111.927 23.7089 112.066C23.7089 112.195 23.7036 112.356 23.6928 112.549C23.6928 112.731 23.6821 112.892 23.6607 113.031C23.6392 113.171 23.591 113.24 23.516 113.24C23.516 113.24 23.4999 113.246 23.4677 113.256C23.4463 113.256 23.4356 113.283 23.4356 113.337C23.4356 113.444 23.3552 113.567 23.1943 113.707C22.9907 113.846 22.7977 113.958 22.6155 114.044C22.4332 114.13 22.2938 114.135 22.1974 114.06C22.133 114.017 22.0741 113.975 22.0205 113.932C21.9669 113.889 21.9186 113.835 21.8758 113.771C21.8758 113.771 21.8597 113.749 21.8275 113.707C21.8061 113.653 21.7954 113.605 21.7954 113.562C21.7954 113.519 21.8114 113.481 21.8436 113.449C21.8758 113.406 21.8918 113.385 21.8918 113.385C22.0419 113.246 22.1545 113.117 22.2295 112.999C22.3153 112.881 22.3742 112.779 22.4064 112.693C22.4386 112.597 22.4546 112.522 22.4546 112.468C22.4546 112.404 22.4386 112.366 22.4064 112.356C22.385 112.334 22.3314 112.324 22.2456 112.324C22.192 112.324 22.0741 112.366 21.8918 112.452C21.7203 112.538 21.5381 112.645 21.3451 112.774C21.1521 112.892 21.0021 112.999 20.8948 113.095C20.852 113.171 20.8198 113.219 20.7984 113.24C20.7876 113.262 20.7608 113.272 20.718 113.272C20.718 113.229 20.6912 113.235 20.6376 113.288C20.584 113.342 20.5196 113.417 20.4446 113.514C20.3696 113.61 20.2945 113.712 20.2195 113.819C20.1444 113.926 20.0855 114.012 20.0426 114.076C20.0319 114.173 20.0051 114.264 19.9622 114.35C19.93 114.425 19.9193 114.505 19.93 114.591C19.9407 114.698 19.9943 114.8 20.0908 114.896C20.1873 114.993 20.3267 115.116 20.5089 115.266C20.8841 115.545 21.1629 115.765 21.3451 115.926C21.5381 116.086 21.6721 116.215 21.7471 116.312C21.8222 116.408 21.8704 116.505 21.8918 116.601C22.0741 116.933 22.0955 117.223 21.9562 117.469C21.8168 117.705 21.6024 117.887 21.3129 118.016C21.2057 118.07 21.0181 118.118 20.7501 118.161C20.4821 118.214 20.198 118.236 19.8979 118.225C19.6084 118.225 19.3619 118.182 19.1582 118.096ZM25.6805 117.775C25.5948 117.796 25.4822 117.807 25.3428 117.807C25.2035 117.796 25.0802 117.78 24.973 117.759C24.8765 117.727 24.8283 117.694 24.8283 117.662C24.8283 117.609 24.8015 117.582 24.7479 117.582C24.7479 117.582 24.6889 117.539 24.571 117.453C24.4531 117.357 24.3459 117.287 24.2494 117.244C24.1529 117.094 24.0886 116.923 24.0564 116.73C24.035 116.526 24.0993 116.172 24.2494 115.668C24.2601 115.325 24.3566 114.966 24.5388 114.591C24.7211 114.205 24.9516 113.83 25.2303 113.465C25.509 113.101 25.7985 112.779 26.0986 112.501C26.3988 112.211 26.6668 111.997 26.9026 111.857C27.0527 111.707 27.251 111.627 27.4976 111.616C27.7549 111.605 27.98 111.654 28.173 111.761C28.2802 111.814 28.3981 111.922 28.5268 112.082C28.6554 112.243 28.7787 112.415 28.8966 112.597C29.0145 112.769 29.1057 112.924 29.17 113.063C29.2021 113.181 29.2289 113.288 29.2504 113.385C29.2825 113.471 29.304 113.578 29.3147 113.707C29.3254 113.835 29.3147 114.028 29.2825 114.285C29.2289 114.478 29.1807 114.677 29.1378 114.88C29.1057 115.073 29.0896 115.272 29.0896 115.475C29.0681 115.679 29.0896 115.824 29.1539 115.91C29.2289 115.995 29.3361 116.001 29.4755 115.926C29.6041 115.861 29.7382 115.856 29.8775 115.91C30.0169 115.952 30.1134 116.038 30.167 116.167C30.2313 116.285 30.2152 116.44 30.1187 116.633C30.0544 116.773 29.9526 116.907 29.8132 117.035C29.6738 117.164 29.5184 117.271 29.3469 117.357C29.1753 117.432 29.0092 117.469 28.8484 117.469C28.7304 117.469 28.6125 117.426 28.4946 117.341C28.3767 117.244 28.2695 117.116 28.173 116.955C28.0765 116.794 27.9961 116.617 27.9318 116.424L27.8353 116.054L27.2564 116.585C27.117 116.735 26.9777 116.874 26.8383 117.003C26.7097 117.121 26.6293 117.207 26.5971 117.26C26.5435 117.357 26.4363 117.443 26.2755 117.518C26.1254 117.593 25.9271 117.678 25.6805 117.775ZM26.1147 116.231C26.2969 116.124 26.4524 115.995 26.581 115.845C26.7204 115.695 26.8544 115.529 26.983 115.347C27.1117 115.154 27.251 114.95 27.4011 114.736C27.5834 114.489 27.712 114.291 27.7871 114.141C27.8728 113.991 27.9371 113.83 27.98 113.658C27.9371 113.54 27.8782 113.417 27.8031 113.288C27.7281 113.149 27.6531 113.074 27.578 113.063C27.4279 113.063 27.2457 113.154 27.0313 113.337C26.8276 113.519 26.6025 113.782 26.3559 114.125C26.313 114.178 26.2594 114.264 26.1951 114.382C26.1308 114.5 26.0665 114.612 26.0021 114.72C25.9485 114.816 25.911 114.88 25.8896 114.913C25.8574 114.955 25.8092 115.057 25.7449 115.218C25.6912 115.368 25.643 115.524 25.6001 115.684C25.5572 115.835 25.5358 115.942 25.5358 116.006C25.5358 116.07 25.5412 116.14 25.5519 116.215C25.5733 116.29 25.6269 116.338 25.7127 116.36C25.7985 116.381 25.9325 116.338 26.1147 116.231ZM31.6167 117.405C31.5845 117.362 31.5149 117.309 31.4077 117.244C31.3005 117.18 31.2469 117.126 31.2469 117.083C31.2469 117.062 31.2415 117.035 31.2308 117.003C31.2308 116.971 31.2093 116.955 31.1665 116.955C31.1343 116.923 31.1504 116.805 31.2147 116.601C31.2897 116.397 31.3862 116.156 31.5041 115.877C31.6328 115.599 31.7668 115.331 31.9062 115.073C32.0455 114.805 32.1634 114.591 32.2599 114.43C32.3135 114.398 32.3457 114.355 32.3564 114.302C32.3778 114.237 32.3778 114.205 32.3564 114.205C32.3564 114.205 32.3832 114.157 32.4368 114.06C32.5011 113.953 32.5494 113.883 32.5815 113.851C32.6673 113.701 32.7316 113.551 32.7745 113.401C32.8174 113.24 32.8281 113.106 32.8067 112.999C32.7638 112.945 32.7155 112.929 32.6619 112.951C32.6083 112.972 32.5815 112.983 32.5815 112.983C32.5387 112.994 32.4743 113.015 32.3886 113.047C32.3135 113.069 32.2438 113.101 32.1795 113.144C31.933 113.315 31.7507 113.401 31.6328 113.401C31.5256 113.401 31.4184 113.272 31.3112 113.015C31.2683 112.897 31.2522 112.785 31.2629 112.677C31.2737 112.57 31.3165 112.484 31.3916 112.42C31.4773 112.345 31.5845 112.27 31.7132 112.195C31.8418 112.109 31.9276 112.05 31.9705 112.018C32.0884 111.943 32.2546 111.863 32.469 111.777C32.6834 111.691 32.812 111.643 32.8549 111.632C33.1336 111.546 33.3695 111.546 33.5624 111.632C33.7554 111.707 33.9001 111.857 33.9966 112.082C34.1467 112.265 34.2217 112.458 34.2217 112.661C34.2217 112.865 34.1467 113.117 33.9966 113.417L33.8358 113.658C33.7822 113.765 33.7715 113.819 33.8036 113.819C33.8465 113.819 33.8948 113.782 33.9484 113.707C33.9805 113.664 34.0449 113.599 34.1413 113.514C34.2378 113.428 34.3021 113.385 34.3343 113.385C34.3343 113.385 34.345 113.38 34.3665 113.369C34.3986 113.358 34.4147 113.315 34.4147 113.24C34.4469 113.208 34.479 113.176 34.5112 113.144C34.5541 113.112 34.5755 113.095 34.5755 113.095C34.6184 113.095 34.672 113.074 34.7363 113.031C34.8114 112.978 34.9346 112.881 35.1062 112.742C35.2241 112.656 35.3313 112.613 35.4278 112.613C35.6743 112.538 35.8727 112.618 36.0227 112.854C36.1835 113.09 36.2639 113.396 36.2639 113.771L35.9263 114.639L36.5052 113.932C36.5695 113.846 36.6338 113.771 36.6981 113.707C36.7732 113.642 36.8375 113.589 36.8911 113.546C36.9125 113.471 36.9447 113.428 36.9876 113.417C37.0304 113.406 37.0519 113.401 37.0519 113.401C37.0519 113.401 37.0626 113.401 37.084 113.401C37.1055 113.39 37.1162 113.369 37.1162 113.337C37.1698 113.294 37.2288 113.256 37.2931 113.224C37.3574 113.181 37.4003 113.138 37.4217 113.095C37.604 113.02 37.8237 113.01 38.081 113.063C38.3383 113.106 38.5206 113.24 38.6278 113.465C38.7028 113.594 38.7725 113.707 38.8368 113.803C38.9011 113.899 38.9333 114.044 38.9333 114.237C38.9119 114.398 38.8904 114.511 38.869 114.575C38.8583 114.639 38.8475 114.709 38.8368 114.784C38.8261 114.848 38.81 114.966 38.7886 115.138C38.7457 115.223 38.7189 115.315 38.7082 115.411C38.7082 115.508 38.7082 115.599 38.7082 115.684C38.7082 115.824 38.7135 115.92 38.7242 115.974C38.735 116.017 38.7778 116.038 38.8529 116.038C39.003 116.006 39.1263 115.958 39.2227 115.893C39.3299 115.818 39.4479 115.722 39.5765 115.604C39.7373 115.454 39.8767 115.432 39.9946 115.54C40.1232 115.636 40.2036 115.749 40.2358 115.877C40.2572 115.92 40.2358 116.017 40.1715 116.167C40.1072 116.317 40.0321 116.462 39.9464 116.601C39.8606 116.74 39.7909 116.81 39.7373 116.81C39.7052 116.81 39.6408 116.853 39.5443 116.939C39.4479 117.024 39.3728 117.083 39.3192 117.116C39.2442 117.191 39.1691 117.26 39.0941 117.325C39.0298 117.389 38.9547 117.421 38.869 117.421C38.8261 117.421 38.7725 117.437 38.7082 117.469C38.6546 117.491 38.5902 117.502 38.5152 117.502C38.408 117.534 38.2418 117.518 38.0167 117.453C37.8023 117.389 37.6629 117.239 37.5986 117.003C37.5557 116.885 37.4914 116.735 37.4057 116.553C37.3306 116.371 37.3145 116.145 37.3574 115.877C37.4003 115.684 37.4271 115.508 37.4378 115.347C37.4485 115.186 37.47 115.073 37.5021 115.009C37.5021 114.977 37.5021 114.902 37.5021 114.784C37.5021 114.655 37.4861 114.591 37.4539 114.591C37.411 114.591 37.3306 114.645 37.2127 114.752C37.0948 114.859 36.9554 115.004 36.7946 115.186C36.6338 115.357 36.4676 115.545 36.2961 115.749C36.1353 115.952 35.9906 116.156 35.8619 116.36C35.7655 116.478 35.6797 116.622 35.6046 116.794C35.5296 116.965 35.476 117.062 35.4438 117.083C35.3688 117.169 35.2402 117.18 35.0579 117.116C34.8864 117.051 34.7577 116.949 34.672 116.81C34.6398 116.746 34.6023 116.708 34.5594 116.697C34.5165 116.676 34.479 116.644 34.4469 116.601C34.4254 116.547 34.4254 116.446 34.4469 116.295C34.479 116.145 34.5487 115.904 34.6559 115.572C34.7738 115.207 34.8757 114.88 34.9614 114.591C35.0579 114.291 35.1062 114.141 35.1062 114.141C35.1062 114.098 35.0258 114.141 34.865 114.269C34.7041 114.387 34.5165 114.537 34.3021 114.72C34.2057 114.838 34.077 114.988 33.9162 115.17C33.7661 115.352 33.5892 115.566 33.3856 115.813C33.1926 116.06 32.9728 116.349 32.7263 116.681C32.4154 117.121 32.1795 117.389 32.0187 117.485C31.8686 117.582 31.7346 117.555 31.6167 117.405ZM42.9101 118.145C42.7707 118.155 42.6581 118.139 42.5724 118.096C42.4866 118.064 42.3794 118.011 42.2508 117.936C42.0149 117.753 41.8166 117.528 41.6558 117.26C41.5057 116.992 41.436 116.767 41.4467 116.585C41.4682 116.488 41.4682 116.403 41.4467 116.328C41.436 116.253 41.4307 116.215 41.4307 116.215C41.3663 116.161 41.3449 116.129 41.3663 116.119C41.3878 116.097 41.4039 116.065 41.4146 116.022C41.5003 116.001 41.5111 115.942 41.4467 115.845C41.4146 115.759 41.4307 115.566 41.495 115.266C41.57 114.955 41.6665 114.666 41.7844 114.398C41.838 114.28 41.9131 114.125 42.0095 113.932C42.1168 113.739 42.2347 113.546 42.3633 113.353C42.492 113.149 42.6099 112.988 42.7171 112.87C42.9529 112.602 43.162 112.383 43.3442 112.211C43.5372 112.04 43.7516 111.911 43.9874 111.825C44.2018 111.739 44.4162 111.702 44.6307 111.713C44.8558 111.723 45.0541 111.798 45.2256 111.938C45.4829 112.013 45.7134 112.131 45.9171 112.291C46.1208 112.442 46.2601 112.656 46.3352 112.935C46.4209 113.246 46.4477 113.615 46.4156 114.044C46.3941 114.462 46.2119 115.004 45.8688 115.668C45.6652 116.086 45.4615 116.424 45.2578 116.681C45.0648 116.939 44.829 117.185 44.5503 117.421C44.3466 117.593 44.0839 117.743 43.7623 117.871C43.4407 118 43.1566 118.091 42.9101 118.145ZM44.309 115.717C44.4484 115.524 44.5556 115.336 44.6307 115.154C44.7164 114.972 44.7968 114.72 44.8719 114.398C44.904 114.28 44.9201 114.135 44.9201 113.964C44.9308 113.792 44.9255 113.637 44.904 113.497C44.8933 113.347 44.8558 113.267 44.7915 113.256C44.6521 113.203 44.5074 113.203 44.3573 113.256C44.2179 113.299 44.0518 113.428 43.8588 113.642C43.6873 113.835 43.5479 114.017 43.4407 114.189C43.3442 114.35 43.2531 114.548 43.1673 114.784C43.0923 115.009 43.0065 115.304 42.9101 115.668C42.8243 116.022 42.8189 116.306 42.894 116.521C42.9797 116.735 43.1405 116.794 43.3764 116.697C43.6122 116.601 43.9231 116.274 44.309 115.717ZM49.0737 118.113C48.5056 118.113 48.0875 117.93 47.8195 117.566C47.7444 117.394 47.7069 117.223 47.7069 117.051C47.7176 116.869 47.7605 116.74 47.8356 116.665C47.9106 116.58 48.0017 116.596 48.1089 116.714C48.2483 116.799 48.4466 116.842 48.7039 116.842C48.8325 116.842 48.9451 116.842 49.0416 116.842C49.1488 116.831 49.2721 116.821 49.4114 116.81C49.658 116.789 49.8134 116.714 49.8778 116.585C49.9528 116.456 49.9367 116.349 49.8295 116.263H49.8456C49.5562 116.188 49.2721 116.081 48.9933 115.942C48.7146 115.802 48.4788 115.647 48.2858 115.475C48.0928 115.293 47.9803 115.122 47.9481 114.961C47.8624 114.607 47.8838 114.243 48.0124 113.867C48.1411 113.492 48.3287 113.165 48.5753 112.886C48.6717 112.822 48.8057 112.731 48.9773 112.613C49.1488 112.484 49.2721 112.415 49.3471 112.404V112.42C49.5508 112.206 49.7813 112.034 50.0386 111.906C50.2959 111.766 50.596 111.638 50.9391 111.52L51.1964 111.487C51.325 111.466 51.4376 111.455 51.534 111.455C51.5233 111.455 51.5501 111.466 51.6144 111.487C51.6788 111.509 51.7324 111.525 51.7753 111.536C51.8396 111.568 51.9039 111.584 51.9682 111.584C52.1183 111.605 52.263 111.686 52.4024 111.825C52.5525 111.954 52.6704 112.109 52.7562 112.291C52.8526 112.463 52.8902 112.624 52.8687 112.774C52.8366 113.02 52.7454 113.267 52.5954 113.514C52.4453 113.749 52.2845 113.883 52.1129 113.916C52.1344 113.905 52.1129 113.883 52.0486 113.851C51.9843 113.819 51.9253 113.787 51.8717 113.755L51.8074 113.787C51.8074 113.787 51.8021 113.771 51.7913 113.739C51.7913 113.707 51.7806 113.669 51.7592 113.626C51.7163 113.551 51.6841 113.471 51.6627 113.385C51.652 113.299 51.652 113.203 51.6627 113.095C51.6841 112.978 51.6895 112.908 51.6788 112.886C51.6681 112.865 51.6037 112.849 51.4858 112.838C51.3464 112.806 51.1696 112.822 50.9552 112.886C50.7407 112.94 50.5424 113.037 50.3602 113.176C50.1458 113.315 49.985 113.428 49.8778 113.514C49.7813 113.599 49.7062 113.685 49.6526 113.771C49.599 113.846 49.5401 113.958 49.4758 114.109C49.4329 114.184 49.3954 114.253 49.3632 114.318C49.331 114.371 49.315 114.425 49.315 114.478C49.315 114.586 49.4061 114.698 49.5883 114.816C49.7706 114.923 50.0439 115.052 50.4084 115.202C50.6979 115.32 50.8855 115.481 50.9712 115.684C51.0677 115.888 51.1535 116.081 51.2285 116.263C51.25 116.306 51.2714 116.387 51.2928 116.505C51.325 116.612 51.3304 116.676 51.3089 116.697C51.3304 116.719 51.3411 116.74 51.3411 116.762V116.746C51.4268 116.907 51.4108 117.078 51.2928 117.26C51.1856 117.432 51.0141 117.593 50.7783 117.743C50.5424 117.882 50.2744 117.984 49.9742 118.048H49.9903C49.8295 118.07 49.6687 118.086 49.5079 118.096C49.3578 118.107 49.2131 118.113 49.0737 118.113ZM62.0474 118.306C61.908 118.338 61.7686 118.3 61.6293 118.193C61.5006 118.096 61.4095 117.989 61.3559 117.871C61.2916 117.7 61.2487 117.539 61.2273 117.389C61.2165 117.228 61.2058 117.046 61.1951 116.842L61.179 116.295L60.5197 116.89C60.1552 117.234 59.8122 117.48 59.4906 117.63C59.1797 117.77 58.8956 117.839 58.6383 117.839C58.5204 117.818 58.3757 117.743 58.2041 117.614C58.0433 117.475 57.8933 117.325 57.7539 117.164C57.6253 116.992 57.5341 116.853 57.4805 116.746C57.4162 116.596 57.3948 116.387 57.4162 116.119C57.4484 115.851 57.5127 115.556 57.6092 115.234C57.7164 114.913 57.845 114.596 57.9951 114.285C58.1559 113.975 58.3381 113.707 58.5418 113.481C58.8956 112.945 59.3351 112.613 59.8604 112.484C60.3857 112.345 60.8521 112.388 61.2594 112.613C61.4524 112.71 61.5918 112.747 61.6775 112.726C61.7633 112.704 61.8169 112.635 61.8383 112.517C61.8812 112.345 61.9294 112.184 61.983 112.034C62.0366 111.884 62.1117 111.659 62.2082 111.359C62.4762 110.544 62.7067 109.906 62.8996 109.445C63.1033 108.984 63.2856 108.582 63.4464 108.239C63.5643 107.993 63.6822 107.821 63.8001 107.725C63.918 107.628 64.0199 107.585 64.1057 107.596C64.2236 107.596 64.3683 107.639 64.5398 107.725C64.7221 107.81 64.84 107.928 64.8936 108.078C64.9365 108.175 64.9526 108.277 64.9418 108.384C64.9418 108.491 64.9097 108.604 64.8454 108.722C64.706 108.979 64.5398 109.322 64.3469 109.751C64.1646 110.169 63.977 110.63 63.784 111.134C63.6018 111.638 63.4303 112.136 63.2695 112.629C63.1087 113.122 62.9747 113.556 62.8675 113.932C62.8031 114.168 62.7495 114.468 62.7067 114.832C62.6745 115.197 62.6477 115.572 62.6263 115.958C62.6155 116.333 62.6155 116.671 62.6263 116.971C62.637 117.26 62.6531 117.448 62.6745 117.534C62.7388 117.748 62.7388 117.909 62.6745 118.016C62.6102 118.123 62.5191 118.193 62.4011 118.225C62.2832 118.268 62.1653 118.295 62.0474 118.306ZM59.3941 116.36C59.5442 116.306 59.6782 116.242 59.7961 116.167C59.914 116.092 60.0534 115.995 60.2142 115.877C60.5358 115.631 60.7663 115.416 60.9057 115.234C61.0557 115.052 61.1737 114.827 61.2594 114.559C61.313 114.398 61.313 114.259 61.2594 114.141C61.2165 114.023 61.1361 113.91 61.0182 113.803C60.9003 113.707 60.7502 113.669 60.568 113.69C60.3857 113.701 60.1767 113.814 59.9408 114.028C59.6835 114.264 59.4638 114.537 59.2815 114.848C59.0993 115.159 58.9492 115.604 58.8313 116.183C58.8098 116.29 58.8474 116.365 58.9438 116.408C59.0403 116.451 59.1904 116.435 59.3941 116.36ZM67.5363 117.678C67.2147 117.861 66.8717 117.968 66.5072 118C66.1534 118.021 65.8211 117.973 65.5102 117.855C65.1993 117.727 64.9474 117.539 64.7544 117.292C64.6472 117.153 64.5454 116.933 64.4489 116.633C64.3524 116.322 64.3363 115.904 64.4006 115.379C64.465 114.886 64.615 114.387 64.8509 113.883C65.0974 113.38 65.3976 112.935 65.7514 112.549C66.1052 112.163 66.4911 111.9 66.9092 111.761C67.0593 111.707 67.2093 111.67 67.3594 111.648C67.5202 111.616 67.7293 111.611 67.9866 111.632C68.2331 111.664 68.4529 111.729 68.6459 111.825C68.8388 111.911 68.9782 112.007 69.0639 112.115C69.2355 112.286 69.348 112.452 69.4016 112.613C69.4552 112.774 69.4767 112.929 69.466 113.079C69.4124 113.422 69.2569 113.792 68.9996 114.189C68.7531 114.586 68.4046 114.88 67.9544 115.073C67.7722 115.148 67.5577 115.197 67.3112 115.218C67.0646 115.24 66.7269 115.207 66.2981 115.122C66.0408 115.068 65.8693 115.095 65.7835 115.202C65.7085 115.309 65.6763 115.518 65.6871 115.829C65.7085 116.022 65.7514 116.194 65.8157 116.344C65.8907 116.483 66.0247 116.58 66.2177 116.633C66.4643 116.676 66.6412 116.681 66.7484 116.649C66.8556 116.606 66.9896 116.547 67.1504 116.472C67.2361 116.419 67.3165 116.36 67.3916 116.295C67.4773 116.231 67.5577 116.167 67.6328 116.103C67.7186 116.038 67.7882 115.99 67.8418 115.958C67.8954 115.915 67.949 115.888 68.0026 115.877C68.0562 115.867 68.1098 115.861 68.1634 115.861C68.2814 115.872 68.3939 115.936 68.5011 116.054C68.6083 116.172 68.678 116.285 68.7102 116.392C68.7102 116.478 68.6566 116.601 68.5494 116.762C68.4422 116.912 68.2974 117.073 68.1152 117.244C67.9437 117.405 67.7507 117.55 67.5363 117.678ZM67.3273 114.092C67.4023 114.06 67.5095 113.985 67.6489 113.867C67.799 113.749 67.933 113.626 68.0509 113.497C68.1688 113.358 68.2278 113.251 68.2278 113.176C68.2278 113.058 68.1474 112.956 67.9866 112.87C67.8365 112.785 67.6381 112.769 67.3916 112.822C67.3058 112.844 67.204 112.903 67.0861 112.999C66.9681 113.095 66.8502 113.208 66.7323 113.337C66.6144 113.455 66.5125 113.573 66.4268 113.69C66.341 113.798 66.282 113.883 66.2499 113.948C66.2928 114.001 66.3785 114.044 66.5072 114.076C66.6358 114.109 66.7752 114.125 66.9253 114.125C67.0861 114.125 67.2201 114.114 67.3273 114.092ZM75.9652 118.289C75.3756 118.289 74.92 118.118 74.5984 117.775C74.2875 117.432 74.132 116.907 74.132 116.199C74.132 115.813 74.2017 115.39 74.3411 114.929C74.4912 114.468 74.6841 114.017 74.92 113.578C75.1665 113.138 75.4345 112.758 75.724 112.436C76.0134 112.104 76.3029 111.873 76.5923 111.745C76.6995 111.691 76.8121 111.654 76.93 111.632C77.0587 111.6 77.182 111.584 77.2999 111.584C77.4285 111.584 77.5679 111.595 77.718 111.616C77.8788 111.627 78.0289 111.659 78.1682 111.713C78.4148 111.788 78.6292 111.932 78.8114 112.147C79.0044 112.361 79.1009 112.672 79.1009 113.079C79.1009 113.187 79.0902 113.305 79.0687 113.433C79.0473 113.551 79.0098 113.669 78.9562 113.787C78.8168 114.141 78.6024 114.478 78.3129 114.8C78.0342 115.122 77.7394 115.347 77.4285 115.475C77.3428 115.518 77.257 115.55 77.1712 115.572C77.0962 115.583 77.0158 115.588 76.93 115.588C76.7049 115.588 76.5012 115.556 76.319 115.491C76.1474 115.427 75.9866 115.341 75.8366 115.234L75.7079 115.122L75.6275 115.282C75.5525 115.486 75.4989 115.658 75.4667 115.797C75.4453 115.936 75.4345 116.038 75.4345 116.103C75.4345 116.231 75.4399 116.365 75.4506 116.505C75.4613 116.633 75.4935 116.74 75.5471 116.826C75.59 116.88 75.6436 116.923 75.7079 116.955C75.783 116.987 75.8741 117.003 75.9813 117.003C76.0456 117.003 76.1046 117.003 76.1582 117.003C76.2225 116.992 76.2761 116.982 76.319 116.971C76.5119 116.928 76.6674 116.858 76.7853 116.762C76.9139 116.655 77.0479 116.563 77.1873 116.488L77.2516 116.456L77.2356 116.408C77.4178 116.312 77.5411 116.253 77.6054 116.231C77.6697 116.199 77.718 116.172 77.7501 116.151C77.793 116.108 77.8412 116.086 77.8948 116.086C78.0449 116.065 78.1897 116.108 78.329 116.215C78.4791 116.312 78.5541 116.435 78.5541 116.585C78.5541 116.649 78.5059 116.751 78.4094 116.89C78.3237 117.03 78.2111 117.169 78.0717 117.309C77.9431 117.437 77.8091 117.539 77.6697 117.614C77.6376 117.625 77.6054 117.641 77.5732 117.662C77.5411 117.673 77.5089 117.689 77.4768 117.711H77.4928C77.3964 117.839 77.2999 117.904 77.2034 117.904H77.0747C77.0319 117.979 76.8925 118.059 76.6567 118.145C76.4208 118.241 76.1903 118.289 75.9652 118.289ZM76.8014 114.414C76.8979 114.414 76.9836 114.398 77.0587 114.366C77.1444 114.334 77.2248 114.296 77.2999 114.253C77.5572 114.071 77.7233 113.835 77.7984 113.546C77.8734 113.256 77.8466 113.037 77.718 112.886C77.6965 112.854 77.6697 112.833 77.6376 112.822C77.6054 112.801 77.5679 112.79 77.525 112.79C77.4071 112.79 77.2731 112.827 77.123 112.903C76.9836 112.978 76.8443 113.085 76.7049 113.224C76.5655 113.363 76.4369 113.53 76.319 113.723L76.1099 114.06C76.1314 114.05 76.1474 114.044 76.1582 114.044C76.1796 114.034 76.1957 114.028 76.2064 114.028C76.3029 114.028 76.3672 114.06 76.3994 114.125C76.4315 114.189 76.4691 114.253 76.5119 114.318C76.5655 114.382 76.662 114.414 76.8014 114.414ZM81.5449 118.096C81.2018 118.096 80.8856 118.021 80.5961 117.871C80.3174 117.711 80.0923 117.518 79.9207 117.292C79.7492 117.057 79.6634 116.831 79.6634 116.617C79.6634 116.521 79.6795 116.451 79.7117 116.408C79.7546 116.365 79.8135 116.344 79.8886 116.344C79.9422 116.354 80.0065 116.381 80.0815 116.424C80.1566 116.467 80.2316 116.515 80.3067 116.569C80.4782 116.687 80.6658 116.762 80.8695 116.794C81.0732 116.826 81.2554 116.815 81.4162 116.762C81.577 116.697 81.6681 116.601 81.6896 116.472C81.6896 116.429 81.6681 116.338 81.6253 116.199C81.5824 116.06 81.5288 115.926 81.4645 115.797C81.1964 115.4 81.0303 115.025 80.966 114.671C80.9016 114.307 80.8588 113.942 80.8373 113.578C80.8373 113.428 80.907 113.262 81.0464 113.079C81.1857 112.886 81.3572 112.699 81.5609 112.517C81.7861 112.324 82.0326 112.141 82.3006 111.97C82.5794 111.798 82.8527 111.654 83.1207 111.536C83.3887 111.418 83.6139 111.348 83.7961 111.327C83.9891 111.327 84.1928 111.337 84.4072 111.359C84.6323 111.37 84.7824 111.407 84.8574 111.471C85.0075 111.589 85.1469 111.782 85.2755 112.05C85.4041 112.318 85.4685 112.543 85.4685 112.726C85.4685 112.811 85.4202 112.919 85.3237 113.047C85.238 113.165 85.1576 113.299 85.0825 113.449C85.0397 113.524 85.0021 113.605 84.97 113.69C84.9378 113.776 84.9003 113.862 84.8574 113.948C84.7931 114.098 84.6752 114.162 84.5036 114.141C84.3428 114.109 84.1928 114.023 84.0534 113.883C83.914 113.733 83.8444 113.562 83.8444 113.369C83.8444 113.208 83.8926 113.069 83.9891 112.951C84.0856 112.833 84.1338 112.752 84.1338 112.71C84.1338 112.688 84.1231 112.672 84.1016 112.661C84.0802 112.651 84.0427 112.645 83.9891 112.645C83.914 112.645 83.7907 112.677 83.6192 112.742C83.4584 112.795 83.2869 112.876 83.1047 112.983C82.9224 113.09 82.7562 113.219 82.6062 113.369C82.499 113.487 82.4078 113.615 82.3328 113.755C82.2685 113.883 82.2363 114.023 82.2363 114.173C82.2363 114.323 82.2631 114.5 82.3167 114.704C82.381 114.896 82.4507 115.057 82.5258 115.186C82.5472 115.207 82.5794 115.266 82.6222 115.363C82.6758 115.449 82.7348 115.556 82.7991 115.684C83.1958 116.499 83.2601 117.105 82.9921 117.502C82.7348 117.898 82.2524 118.096 81.5449 118.096ZM87.4722 118.965C86.9469 118.954 86.6093 118.804 86.4592 118.515C86.3198 118.236 86.2823 117.882 86.3466 117.453C86.4109 117.25 86.4485 117.067 86.4592 116.907C86.4806 116.735 86.5289 116.628 86.6039 116.585C86.6039 116.585 86.6093 116.569 86.62 116.537C86.6414 116.505 86.6361 116.472 86.6039 116.44C86.6039 116.301 86.6521 116.108 86.7486 115.861C86.7701 115.797 86.7969 115.722 86.829 115.636C86.8719 115.54 86.8933 115.491 86.8933 115.491C86.8397 115.406 86.8397 115.336 86.8933 115.282C86.9469 115.229 87.0005 115.181 87.0541 115.138C87.1185 115.084 87.1238 115.025 87.0702 114.961C87.0488 114.918 87.0756 114.821 87.1506 114.671C87.2257 114.511 87.3114 114.344 87.4079 114.173C87.5044 114.001 87.5687 113.867 87.6009 113.771C87.6009 113.749 87.6277 113.674 87.6813 113.546C87.7349 113.417 87.7992 113.267 87.8742 113.095C87.9493 112.924 88.019 112.769 88.0833 112.629C88.1583 112.49 88.2066 112.399 88.228 112.356C88.3352 112.302 88.2923 112.265 88.0994 112.243C87.9064 112.222 87.7027 112.216 87.4883 112.227C87.156 112.216 86.888 112.2 86.6843 112.179C86.4913 112.157 86.3305 112.109 86.2019 112.034C86.0732 111.884 86.0572 111.707 86.1536 111.504C86.2501 111.289 86.4056 111.177 86.62 111.166C86.7593 111.155 86.8665 111.15 86.9416 111.15C87.0273 111.15 87.1346 111.144 87.2632 111.134C87.4026 111.112 87.617 111.085 87.9064 111.053L88.7265 110.989L88.7748 110.716C88.8605 110.576 88.9195 110.485 88.9516 110.442C88.9838 110.399 89.0052 110.356 89.016 110.314C89.0267 110.26 89.0428 110.169 89.0642 110.04C89.0642 110.04 89.1124 109.954 89.2089 109.783C89.3054 109.601 89.3644 109.413 89.3858 109.22C89.5144 109.006 89.627 108.813 89.7235 108.641C89.82 108.459 89.8789 108.346 89.9004 108.304C90.0826 108.036 90.2595 107.891 90.431 107.869C90.6133 107.848 90.7848 107.891 90.9456 107.998C91.0421 108.052 91.1332 108.121 91.219 108.207C91.3047 108.282 91.3583 108.384 91.3798 108.513C91.4012 108.63 91.353 108.786 91.2351 108.979C91.2136 109.022 91.1815 109.102 91.1386 109.22C91.0957 109.327 91.0635 109.418 91.0421 109.493C90.9778 109.569 90.8974 109.692 90.8009 109.863C90.7151 110.024 90.6562 110.19 90.624 110.362C90.5382 110.544 90.4846 110.657 90.4632 110.699C90.4418 110.742 90.4096 110.764 90.3667 110.764C90.3882 110.871 90.4525 110.925 90.5597 110.925C90.6669 110.914 90.8438 110.903 91.0903 110.892C91.294 110.871 91.4334 110.85 91.5084 110.828C91.5942 110.796 91.6907 110.807 91.7979 110.86C91.8515 110.935 91.8783 111.048 91.8783 111.198C91.889 111.337 91.8729 111.477 91.83 111.616C91.7871 111.745 91.7282 111.825 91.6531 111.857C91.5995 111.857 91.487 111.889 91.3155 111.954C91.1547 112.007 90.951 112.04 90.7044 112.05L89.8521 112.131L89.5788 112.677C89.5037 112.817 89.4394 112.945 89.3858 113.063C89.3322 113.171 89.2947 113.235 89.2732 113.256C89.2732 113.321 89.2357 113.417 89.1607 113.546C89.0964 113.674 89.0267 113.814 88.9516 113.964C88.8873 114.146 88.8123 114.312 88.7265 114.462C88.6515 114.612 88.6139 114.687 88.6139 114.687C88.5711 114.687 88.5496 114.72 88.5496 114.784C88.6032 114.913 88.5871 115.009 88.5014 115.073C88.4478 115.106 88.3995 115.154 88.3567 115.218C88.3245 115.272 88.3084 115.298 88.3084 115.298C88.3513 115.341 88.3567 115.395 88.3245 115.459C88.3031 115.524 88.2709 115.593 88.228 115.668C88.228 115.754 88.2012 115.877 88.1476 116.038C88.1047 116.199 88.0565 116.349 88.0029 116.488C88.0136 116.681 88.0243 116.805 88.0351 116.858C88.0458 116.912 88.0726 116.933 88.1155 116.923C88.1691 116.933 88.2441 116.933 88.3406 116.923C88.4371 116.912 88.5067 116.907 88.5496 116.907C88.7104 116.831 88.6354 117.207 88.3245 118.032C88.153 118.3 87.9815 118.52 87.8099 118.691C87.6384 118.874 87.5258 118.965 87.4722 118.965ZM93.1977 118.145C93.0584 118.155 92.9458 118.139 92.8601 118.096C92.7743 118.064 92.6671 118.011 92.5384 117.936C92.3026 117.753 92.1043 117.528 91.9435 117.26C91.7934 116.992 91.7237 116.767 91.7344 116.585C91.7559 116.488 91.7559 116.403 91.7344 116.328C91.7237 116.253 91.7183 116.215 91.7183 116.215C91.654 116.161 91.6326 116.129 91.654 116.119C91.6755 116.097 91.6915 116.065 91.7023 116.022C91.788 116.001 91.7987 115.942 91.7344 115.845C91.7023 115.759 91.7183 115.566 91.7827 115.266C91.8577 114.955 91.9542 114.666 92.0721 114.398C92.1257 114.28 92.2008 114.125 92.2972 113.932C92.4044 113.739 92.5224 113.546 92.651 113.353C92.7797 113.149 92.8976 112.988 93.0048 112.87C93.2406 112.602 93.4497 112.383 93.6319 112.211C93.8249 112.04 94.0393 111.911 94.2751 111.825C94.4895 111.739 94.7039 111.702 94.9183 111.713C95.1435 111.723 95.3418 111.798 95.5133 111.938C95.7706 112.013 96.0011 112.131 96.2048 112.291C96.4085 112.442 96.5478 112.656 96.6229 112.935C96.7086 113.246 96.7354 113.615 96.7033 114.044C96.6818 114.462 96.4996 115.004 96.1565 115.668C95.9529 116.086 95.7492 116.424 95.5455 116.681C95.3525 116.939 95.1167 117.185 94.8379 117.421C94.6343 117.593 94.3716 117.743 94.05 117.871C93.7284 118 93.4443 118.091 93.1977 118.145ZM94.5967 115.717C94.7361 115.524 94.8433 115.336 94.9183 115.154C95.0041 114.972 95.0845 114.72 95.1596 114.398C95.1917 114.28 95.2078 114.135 95.2078 113.964C95.2185 113.792 95.2132 113.637 95.1917 113.497C95.181 113.347 95.1435 113.267 95.0792 113.256C94.9398 113.203 94.7951 113.203 94.645 113.256C94.5056 113.299 94.3395 113.428 94.1465 113.642C93.975 113.835 93.8356 114.017 93.7284 114.189C93.6319 114.35 93.5408 114.548 93.455 114.784C93.38 115.009 93.2942 115.304 93.1977 115.668C93.112 116.022 93.1066 116.306 93.1817 116.521C93.2674 116.735 93.4282 116.794 93.6641 116.697C93.8999 116.601 94.2108 116.274 94.5967 115.717ZM98.7665 117.164C98.5413 117.239 98.3537 117.276 98.2036 117.276C98.0536 117.266 97.8874 117.196 97.7051 117.067C97.4907 116.853 97.4157 116.639 97.48 116.424C97.5551 116.199 97.748 115.979 98.0589 115.765C98.2733 115.636 98.4288 115.572 98.5252 115.572C98.6325 115.561 98.7879 115.599 98.9916 115.684C99.3561 115.91 99.5169 116.161 99.474 116.44C99.4311 116.708 99.1953 116.949 98.7665 117.164ZM102.276 117.164C102.051 117.239 101.863 117.276 101.713 117.276C101.563 117.266 101.397 117.196 101.215 117.067C101 116.853 100.925 116.639 100.989 116.424C101.064 116.199 101.257 115.979 101.568 115.765C101.783 115.636 101.938 115.572 102.035 115.572C102.142 115.561 102.297 115.599 102.501 115.684C102.865 115.91 103.026 116.161 102.983 116.44C102.941 116.708 102.705 116.949 102.276 117.164ZM105.785 117.164C105.56 117.239 105.373 117.276 105.222 117.276C105.072 117.266 104.906 117.196 104.724 117.067C104.51 116.853 104.435 116.639 104.499 116.424C104.574 116.199 104.767 115.979 105.078 115.765C105.292 115.636 105.448 115.572 105.544 115.572C105.651 115.561 105.807 115.599 106.01 115.684C106.375 115.91 106.536 116.161 106.493 116.44C106.45 116.708 106.214 116.949 105.785 117.164Z" fill="#1967D2"/>
<defs>
<filter id="filter0_d_605_3075" x="133.661" y="0.369385" width="169.849" height="116.583" filterUnits="userSpaceOnUse" color-interpolation-filters="sRGB">
<feFlood flood-opacity="0" result="BackgroundImageFix"/>
<feColorMatrix in="SourceAlpha" type="matrix" values="0 0 0 0 0 0 0 0 0 0 0 0 0 0 0 0 0 0 127 0" result="hardAlpha"/>
<feOffset dy="2.01005"/>
<feGaussianBlur stdDeviation="1.00503"/>
<feColorMatrix type="matrix" values="0 0 0 0 0 0 0 0 0 0 0 0 0 0 0 0 0 0 0.25 0"/>
<feBlend mode="normal" in2="BackgroundImageFix" result="effect1_dropShadow_605_3075"/>
<feBlend mode="normal" in="SourceGraphic" in2="effect1_dropShadow_605_3075" result="shape"/>
</filter>
<filter id="filter1_d_605_3075" x="-0.00753772" y="29.0126" width="97.2358" height="67.0854" filterUnits="userSpaceOnUse" color-interpolation-filters="sRGB">
<feFlood flood-opacity="0" result="BackgroundImageFix"/>
<feColorMatrix in="SourceAlpha" type="matrix" values="0 0 0 0 0 0 0 0 0 0 0 0 0 0 0 0 0 0 127 0" result="hardAlpha"/>
<feOffset dy="1.50754"/>
<feGaussianBlur stdDeviation="0.753769"/>
<feColorMatrix type="matrix" values="0 0 0 0 0 0 0 0 0 0 0 0 0 0 0 0 0 0 0.25 0"/>
<feBlend mode="normal" in2="BackgroundImageFix" result="effect1_dropShadow_605_3075"/>
<feBlend mode="normal" in="SourceGraphic" in2="effect1_dropShadow_605_3075" result="shape"/>
</filter>
<radialGradient id="paint0_radial_605_3075" cx="0" cy="0" r="1" gradientUnits="userSpaceOnUse" gradientTransform="translate(212.001 44.1963) scale(37.9297 37.862)">
<stop stop-color="#FFE030"/>
<stop offset="1" stop-color="#FFB92E"/>
</radialGradient>
<radialGradient id="paint1_radial_605_3075" cx="0" cy="0" r="1" gradientUnits="userSpaceOnUse" gradientTransform="translate(212.001 44.1963) scale(29.8409 29.7878)">
<stop stop-color="#FFEA5F"/>
<stop offset="1" stop-color="#FFBC47" stop-opacity="0"/>
</radialGradient>
<radialGradient id="paint2_radial_605_3075" cx="0" cy="0" r="1" gradientUnits="userSpaceOnUse" gradientTransform="translate(200.733 57.191) rotate(32.6901) scale(16.6381 12.135)">
<stop stop-color="#EB672A" stop-opacity="0.5"/>
<stop offset="0.4286" stop-color="#DC641B" stop-opacity="0.2846"/>
<stop offset="0.995" stop-color="#C25E00" stop-opacity="0"/>
</radialGradient>
<radialGradient id="paint3_radial_605_3075" cx="0" cy="0" r="1" gradientUnits="userSpaceOnUse" gradientTransform="translate(235.66 57.1654) rotate(147.31) scale(16.6381 12.135)">
<stop stop-color="#EB672A" stop-opacity="0.5"/>
<stop offset="0.4286" stop-color="#DC641B" stop-opacity="0.2846"/>
<stop offset="0.995" stop-color="#C25E00" stop-opacity="0"/>
</radialGradient>
<radialGradient id="paint4_radial_605_3075" cx="0" cy="0" r="1" gradientUnits="userSpaceOnUse" gradientTransform="translate(218.185 74.713) scale(16.706 16.6763)">
<stop offset="0.00132565" stop-color="#7A4400"/>
<stop offset="1" stop-color="#643800"/>
</radialGradient>
<radialGradient id="paint5_radial_605_3075" cx="0" cy="0" r="1" gradientUnits="userSpaceOnUse" gradientTransform="translate(218.426 80.2578) scale(13.2918 4.01176)">
<stop offset="0.2479" stop-color="#FF0000"/>
<stop offset="1" stop-color="#C20000"/>
</radialGradient>
<linearGradient id="paint6_linear_605_3075" x1="239.674" y1="71.2635" x2="196.961" y2="71.2635" gradientUnits="userSpaceOnUse">
<stop offset="0.00132565" stop-color="#3C2200"/>
<stop offset="0.5" stop-color="#512D00"/>
<stop offset="1" stop-color="#3C2200"/>
</linearGradient>
<radialGradient id="paint7_radial_605_3075" cx="0" cy="0" r="1" gradientUnits="userSpaceOnUse" gradientTransform="translate(218.185 70.0172) scale(36.6413 36.5759)">
<stop offset="0.00132565" stop-color="white"/>
<stop offset="1" stop-color="#A9BCBE"/>
</radialGradient>
<radialGradient id="paint8_radial_605_3075" cx="0" cy="0" r="1" gradientUnits="userSpaceOnUse" gradientTransform="translate(199.779 48.2492) rotate(-53.6906) scale(19.4503 15.4352)">
<stop offset="0.2479" stop-color="#FF0000"/>
<stop offset="0.8639" stop-color="#C20000"/>
</radialGradient>
<radialGradient id="paint9_radial_605_3075" cx="0" cy="0" r="1" gradientUnits="userSpaceOnUse" gradientTransform="translate(199.726 46.9648) rotate(-53.6906) scale(16.7461 13.2892)">
<stop offset="0.2479" stop-color="#FF0000"/>
<stop offset="1" stop-color="#C20000"/>
</radialGradient>
<radialGradient id="paint10_radial_605_3075" cx="0" cy="0" r="1" gradientUnits="userSpaceOnUse" gradientTransform="translate(199.779 48.2492) rotate(-53.6906) scale(19.4503 15.4352)">
<stop stop-color="white" stop-opacity="0.25"/>
<stop offset="1" stop-color="white" stop-opacity="0"/>
</radialGradient>
<radialGradient id="paint11_radial_605_3075" cx="0" cy="0" r="1" gradientUnits="userSpaceOnUse" gradientTransform="translate(208.872 51.4236) rotate(-50.5727) scale(14.1984 7.01749)">
<stop stop-color="#BD2719" stop-opacity="0.25"/>
<stop offset="1" stop-color="#BD2719" stop-opacity="0"/>
</radialGradient>
<radialGradient id="paint12_radial_605_3075" cx="0" cy="0" r="1" gradientUnits="userSpaceOnUse" gradientTransform="translate(196.6 48.0212) rotate(-45.9697) scale(5.04799 3.13599)">
<stop stop-color="white"/>
<stop offset="1" stop-color="white" stop-opacity="0"/>
</radialGradient>
<radialGradient id="paint13_radial_605_3075" cx="0" cy="0" r="1" gradientUnits="userSpaceOnUse" gradientTransform="translate(205.393 43.5308) rotate(-65.0518) scale(4.17715 2.59795)">
<stop stop-color="white"/>
<stop offset="1" stop-color="white" stop-opacity="0"/>
</radialGradient>
<linearGradient id="paint14_linear_605_3075" x1="215.733" y1="68.6662" x2="204.572" y2="38.0926" gradientUnits="userSpaceOnUse">
<stop stop-color="#860805"/>
<stop offset="1" stop-color="#BD2719" stop-opacity="0"/>
</linearGradient>
<radialGradient id="paint15_radial_605_3075" cx="0" cy="0" r="1" gradientUnits="userSpaceOnUse" gradientTransform="translate(230.602 45.3317) rotate(-5.25638) scale(19.4725 15.4179)">
<stop offset="0.2479" stop-color="#FF0000"/>
<stop offset="0.8639" stop-color="#C20000"/>
</radialGradient>
<radialGradient id="paint16_radial_605_3075" cx="0" cy="0" r="1" gradientUnits="userSpaceOnUse" gradientTransform="translate(231.53 44.4402) rotate(-5.25638) scale(16.7651 13.2742)">
<stop offset="0.2479" stop-color="#FF0000"/>
<stop offset="1" stop-color="#C20000"/>
</radialGradient>
<radialGradient id="paint17_radial_605_3075" cx="0" cy="0" r="1" gradientUnits="userSpaceOnUse" gradientTransform="translate(230.602 45.3317) rotate(-5.25638) scale(19.4725 15.4179)">
<stop stop-color="white" stop-opacity="0.25"/>
<stop offset="1" stop-color="white" stop-opacity="0"/>
</radialGradient>
<radialGradient id="paint18_radial_605_3075" cx="0" cy="0" r="1" gradientUnits="userSpaceOnUse" gradientTransform="translate(234.285 54.2079) rotate(-2.14777) scale(14.2139 7.01013)">
<stop stop-color="#BD2719" stop-opacity="0.25"/>
<stop offset="1" stop-color="#BD2719" stop-opacity="0"/>
</radialGradient>
<radialGradient id="paint19_radial_605_3075" cx="0" cy="0" r="1" gradientUnits="userSpaceOnUse" gradientTransform="translate(228.73 42.8157) rotate(2.44532) scale(5.05272 3.13344)">
<stop stop-color="white"/>
<stop offset="1" stop-color="white" stop-opacity="0"/>
</radialGradient>
<radialGradient id="paint20_radial_605_3075" cx="0" cy="0" r="1" gradientUnits="userSpaceOnUse" gradientTransform="translate(237.973 46.3766) rotate(-16.5916) scale(4.18281 2.59455)">
<stop stop-color="white"/>
<stop offset="1" stop-color="white" stop-opacity="0"/>
</radialGradient>
<linearGradient id="paint21_linear_605_3075" x1="225.927" y1="70.7868" x2="241.381" y2="42.1367" gradientUnits="userSpaceOnUse">
<stop stop-color="#860805"/>
<stop offset="1" stop-color="#BD2719" stop-opacity="0"/>
</linearGradient>
<radialGradient id="paint22_radial_605_3075" cx="0" cy="0" r="1" gradientUnits="userSpaceOnUse" gradientTransform="translate(46.3173 55.552) scale(16.3679)">
<stop stop-color="#FFE030"/>
<stop offset="1" stop-color="#FFB92E"/>
</radialGradient>
<linearGradient id="paint23_linear_605_3075" x1="42.8043" y1="58.677" x2="42.6292" y2="56.8334" gradientUnits="userSpaceOnUse">
<stop offset="0.00132565" stop-color="#3C2200"/>
<stop offset="1" stop-color="#7A4400"/>
</linearGradient>
<radialGradient id="paint24_radial_605_3075" cx="0" cy="0" r="1" gradientUnits="userSpaceOnUse" gradientTransform="translate(43.5949 61.4454) rotate(-176.694) scale(2.43849 1.17649)">
<stop offset="0.00132565" stop-color="#7A4400"/>
<stop offset="1" stop-color="#643800"/>
</radialGradient>
<linearGradient id="paint25_linear_605_3075" x1="40.4832" y1="60.8608" x2="46.7652" y2="60.8608" gradientUnits="userSpaceOnUse">
<stop offset="0.00132565" stop-color="#3C2200"/>
<stop offset="1" stop-color="#512D00"/>
</linearGradient>
<linearGradient id="paint26_linear_605_3075" x1="55.1772" y1="58.6816" x2="55.3523" y2="56.838" gradientUnits="userSpaceOnUse">
<stop offset="0.00132565" stop-color="#3C2200"/>
<stop offset="1" stop-color="#7A4400"/>
</linearGradient>
<radialGradient id="paint27_radial_605_3075" cx="0" cy="0" r="1" gradientUnits="userSpaceOnUse" gradientTransform="translate(54.3849 61.45) rotate(-3.30615) scale(2.4385 1.17649)">
<stop offset="0.00132565" stop-color="#7A4400"/>
<stop offset="1" stop-color="#643800"/>
</radialGradient>
<linearGradient id="paint28_linear_605_3075" x1="57.4961" y1="60.8653" x2="51.2142" y2="60.8653" gradientUnits="userSpaceOnUse">
<stop offset="0.00132565" stop-color="#3C2200"/>
<stop offset="1" stop-color="#512D00"/>
</linearGradient>
<radialGradient id="paint29_radial_605_3075" cx="0" cy="0" r="1" gradientUnits="userSpaceOnUse" gradientTransform="translate(48.985 69.2531) rotate(-3.30619) scale(2.75414 1.46715)">
<stop offset="0.00132565" stop-color="#7A4400"/>
<stop offset="1" stop-color="#643800"/>
</radialGradient>
<linearGradient id="paint30_linear_605_3075" x1="48.9868" y1="68.4008" x2="48.9868" y2="71.8504" gradientUnits="userSpaceOnUse">
<stop offset="0.00132565" stop-color="#3C2200"/>
<stop offset="1" stop-color="#512D00"/>
</linearGradient>
</defs>
</svg>
