<svg width="450" height="67" viewBox="0 0 450 67" fill="none" xmlns="http://www.w3.org/2000/svg">
<path d="M239.789 34.8556C239.789 32.1168 238.99 26.373 235.11 26.373C232.524 26.373 231.078 28.5792 231.078 32.4211C231.078 35.0838 231.991 41.3221 235.795 41.3221C238.458 41.3221 239.789 38.4692 239.789 34.8556ZM235.719 23.5581C241.805 23.5581 245.875 27.8565 245.875 33.7905C245.875 39.4963 241.349 44.2511 235.415 44.2511C229.329 44.2511 225.03 40.257 225.03 34.0187C225.03 28.3129 229.595 23.5581 235.719 23.5581Z" fill="#4573A6"/>
<path d="M210.562 40.1431C212.769 40.1431 214.747 38.089 214.747 33.5243C214.747 28.9977 212.959 26.4872 210.372 26.4872C207.063 26.4872 206.15 30.3671 206.15 33.2961C206.15 37.2521 207.786 40.1431 210.562 40.1431ZM221.974 40.4093C222.392 40.5995 223.191 40.8277 223.191 41.5124C223.191 41.9689 222.773 42.2732 221.898 42.5014C220.186 42.9199 218.208 43.5285 217.067 43.9089C216.496 44.0991 216.116 44.2512 215.736 44.2512C215.241 44.2512 214.747 43.9849 214.747 42.9579V41.4364C214.747 41.1701 214.633 41.0179 214.48 41.0179C214.366 41.0179 214.252 41.094 214.138 41.2462C212.731 42.9959 210.524 44.2512 208.128 44.2512C203.411 44.2512 200.216 40.105 200.216 34.9318C200.216 29.3021 203.83 23.5582 210.144 23.5582C211.628 23.5582 213.111 23.9006 214.252 24.3951C214.442 24.4712 214.518 24.5092 214.595 24.5092C214.709 24.5092 214.747 24.4331 214.747 24.2429V23.0257C214.747 21.9226 214.709 21.1238 214.48 20.5151C214.252 19.9065 213.834 19.5642 213.073 19.2599C212.693 19.1077 211.894 18.8795 211.894 18.2328C211.894 17.6622 212.312 17.396 213.187 17.1677C214.899 16.7493 217.029 16.1407 218.36 15.6462C218.589 15.5701 218.969 15.418 219.349 15.418C219.844 15.418 220.338 15.6842 220.338 16.7113V36.6435C220.338 37.7466 220.376 38.5454 220.605 39.154C220.833 39.7627 221.251 40.105 221.974 40.4093Z" fill="#4573A6"/>
<path d="M197.494 41.7025C198.026 42.0068 198.444 42.2731 198.444 42.8437C198.444 43.4903 197.798 43.8327 196.961 43.8327H188.745C187.908 43.8327 187.261 43.4903 187.261 42.8437C187.261 42.2731 187.718 42.0068 188.212 41.7025C188.973 41.246 189.391 40.7135 189.62 40.1049C189.81 39.5724 190 38.7355 190 36.0728V31.3941C190 29.378 189.049 27.8565 186.919 27.8565C186.12 27.8565 185.169 28.1227 184.408 28.8835C183.115 30.1388 182.697 32.1929 182.697 36.0728C182.697 38.7355 182.887 39.5724 183.077 40.1049C183.267 40.7135 183.724 41.2841 184.484 41.7025C184.979 42.0068 185.435 42.2731 185.435 42.8437C185.435 43.4903 184.789 43.8327 183.952 43.8327H175.812C174.975 43.8327 174.366 43.4903 174.366 42.8437C174.366 42.2731 174.784 42.0068 175.279 41.7025C176.04 41.2841 176.496 40.7135 176.686 40.1049C176.877 39.5724 177.067 38.7355 177.067 36.0728V31.2039C177.067 30.1007 177.029 29.3019 176.801 28.6933C176.572 28.0847 176.192 27.7424 175.469 27.438C175.051 27.2478 174.252 27.0196 174.252 26.373C174.252 25.8404 174.67 25.4981 175.545 25.3079C177.295 24.8895 179.159 24.3189 180.604 23.7863C181.023 23.6342 181.327 23.5581 181.708 23.5581C182.202 23.5581 182.697 23.8244 182.697 24.8514V26.6773C182.697 26.8675 182.773 26.9435 182.849 26.9435C182.925 26.9435 183.001 26.8675 183.077 26.7533C184.636 24.5471 186.881 23.5581 189.239 23.5581C191.255 23.5581 193.347 24.433 194.565 26.3349C195.439 27.6282 195.706 29.34 195.706 31.3941V36.0728C195.706 38.7355 195.934 39.5724 196.086 40.1049C196.276 40.7135 196.771 41.2841 197.494 41.7025Z" fill="#4573A6"/>
<path d="M159.382 30.367C159.344 30.5952 159.344 30.6333 159.344 30.7094C159.344 30.8996 159.458 31.0517 159.724 31.0517H164.137C165.506 31.0517 166.533 30.8235 166.533 29.378C166.533 27.9706 165.392 26.411 163.452 26.411C161.322 26.411 159.8 27.9706 159.382 30.367ZM170.946 38.8116C171.364 38.8116 171.782 39.1539 171.782 39.6104C171.782 40.4472 170.641 41.6645 169.5 42.4252C167.788 43.5664 165.506 44.2511 163.224 44.2511C157.67 44.2511 153.486 40.4092 153.486 34.4371C153.486 28.7314 157.708 23.5581 163.642 23.5581C167.941 23.5581 172.163 26.5632 172.163 31.318C172.163 33.5242 171.174 33.8666 168.93 33.8666H159.8C159.572 33.8666 159.382 33.9426 159.382 34.2089C159.382 34.285 159.382 34.3611 159.42 34.6654C159.458 35.0458 159.61 36.263 160.409 37.5183C161.702 39.5343 163.68 40.3712 165.963 40.3712C168.968 40.3712 170.033 38.8116 170.946 38.8116Z" fill="#4573A6"/>
<path d="M149.508 18.5751C149.508 19.7543 147.035 22.2268 145.894 22.2268C144.715 22.2268 142.242 19.7163 142.242 18.5751C142.242 17.4339 144.715 14.9614 145.894 14.9614C147.035 14.9614 149.508 17.4339 149.508 18.5751ZM150.497 41.7406C150.991 42.0449 151.448 42.2351 151.448 42.8437C151.448 43.4904 150.801 43.8327 149.964 43.8327H141.786C140.949 43.8327 140.302 43.4904 140.302 42.8437C140.302 42.2731 140.721 42.0449 141.253 41.7406C141.976 41.3222 142.432 40.7516 142.661 40.1049C142.851 39.5724 143.041 38.7736 143.041 36.1109V31.1659C143.041 30.0627 143.003 29.2639 142.775 28.6553C142.546 28.0467 142.128 27.7044 141.367 27.4C140.949 27.2099 140.188 27.0197 140.188 26.335C140.188 25.8024 140.568 25.5362 141.443 25.3079C143.193 24.8895 145.361 24.2809 146.731 23.7864C146.959 23.7103 147.339 23.5581 147.72 23.5581C148.214 23.5581 148.709 23.8244 148.709 24.8515V36.1109C148.709 38.7355 148.899 39.5724 149.089 40.1049C149.317 40.7516 149.774 41.3222 150.497 41.7406Z" fill="#4573A6"/>
<path d="M137.39 41.7025C137.922 42.0068 138.341 42.2731 138.341 42.8437C138.341 43.4903 137.694 43.8327 136.857 43.8327H128.641C127.804 43.8327 127.157 43.4903 127.157 42.8437C127.157 42.2731 127.614 42.0068 128.108 41.7025C128.869 41.246 129.287 40.7135 129.516 40.1049C129.706 39.5724 129.896 38.7355 129.896 36.0728V31.3941C129.896 29.378 128.945 27.8565 126.815 27.8565C126.016 27.8565 125.065 28.1227 124.304 28.8835C123.011 30.1388 122.593 32.1929 122.593 36.0728C122.593 38.7355 122.783 39.5724 122.973 40.1049C123.163 40.7135 123.62 41.2841 124.38 41.7025C124.875 42.0068 125.331 42.2731 125.331 42.8437C125.331 43.4903 124.685 43.8327 123.848 43.8327H115.708C114.871 43.8327 114.262 43.4903 114.262 42.8437C114.262 42.2731 114.681 42.0068 115.175 41.7025C115.936 41.2841 116.392 40.7135 116.582 40.1049C116.773 39.5724 116.963 38.7355 116.963 36.0728V31.2039C116.963 30.1007 116.925 29.3019 116.697 28.6933C116.468 28.0847 116.088 27.7424 115.365 27.438C114.947 27.2478 114.148 27.0196 114.148 26.373C114.148 25.8404 114.566 25.4981 115.441 25.3079C117.191 24.8895 119.055 24.3189 120.5 23.7863C120.919 23.6342 121.223 23.5581 121.604 23.5581C122.098 23.5581 122.593 23.8244 122.593 24.8514V26.6773C122.593 26.8675 122.669 26.9435 122.745 26.9435C122.821 26.9435 122.897 26.8675 122.973 26.7533C124.533 24.5471 126.777 23.5581 129.135 23.5581C131.151 23.5581 133.243 24.433 134.461 26.3349C135.335 27.6282 135.602 29.34 135.602 31.3941V36.0728C135.602 38.7355 135.83 39.5724 135.982 40.1049C136.172 40.7135 136.667 41.2841 137.39 41.7025Z" fill="#4573A6"/>
<path d="M105.763 34.8556C105.763 32.1168 104.964 26.373 101.084 26.373C98.4972 26.373 97.0517 28.5792 97.0517 32.4211C97.0517 35.0838 97.9647 41.3221 101.769 41.3221C104.431 41.3221 105.763 38.4692 105.763 34.8556ZM101.692 23.5581C107.779 23.5581 111.849 27.8565 111.849 33.7905C111.849 39.4963 107.322 44.2511 101.388 44.2511C95.302 44.2511 91.0036 40.257 91.0036 34.0187C91.0036 28.3129 95.5682 23.5581 101.692 23.5581Z" fill="#4573A6"/>
<path d="M78.4033 41.3221C81.4464 41.3221 82.6636 38.241 82.6636 34.5893C82.6636 30.367 80.8378 27.7043 78.4033 27.7043C75.9308 27.7043 74.0669 29.8725 74.0669 34.285C74.105 38.9257 76.0069 41.3221 78.4033 41.3221ZM84.4895 24.6232C87.3804 26.3349 88.6357 29.5682 88.6357 32.8776C88.6357 38.4692 85.0601 44.2511 78.7076 44.2511C76.083 44.2511 74.5234 43.3001 74.2571 43.3001C74.181 43.3001 74.105 43.3382 74.105 43.4903V43.9088C74.105 46.1911 74.2952 46.9518 74.4853 47.4463C74.7136 48.093 75.132 48.6255 75.8547 49.082C76.3492 49.3863 76.8057 49.5765 76.8057 50.1851C76.8057 50.8318 76.159 51.1741 75.3602 51.1741H67.22C66.4212 51.1741 65.7745 50.8318 65.7745 50.1851C65.7745 49.5765 66.231 49.3863 66.7255 49.082C67.4482 48.6255 67.8666 48.093 68.0949 47.4463C68.2851 46.9138 68.4753 46.115 68.4753 43.5664V31.1658C68.4753 30.0627 68.4372 29.2639 68.247 28.6553C68.0568 28.0467 67.6004 27.7043 66.8396 27.4C66.4212 27.2098 65.6604 27.0196 65.6604 26.411C65.6604 25.8404 66.0408 25.5361 66.9157 25.3079C68.6654 24.8895 70.7576 24.2808 72.127 23.7863C72.3552 23.7103 72.7356 23.5581 73.116 23.5581C73.6105 23.5581 74.105 23.8244 74.105 24.8514V26.373C74.105 26.6392 74.2191 26.7914 74.3712 26.7914C74.4853 26.7914 74.5995 26.7153 74.7136 26.5632C76.121 24.8134 78.3272 23.5581 80.7237 23.5581C81.9409 23.5581 83.2342 23.9005 84.4895 24.6232Z" fill="#4573A6"/>
<path d="M57.7314 34.8556C57.7314 32.1168 56.9326 26.373 53.0527 26.373C50.4661 26.373 49.0206 28.5792 49.0206 32.4211C49.0206 35.0838 49.9335 41.3221 53.7374 41.3221C56.4001 41.3221 57.7314 38.4692 57.7314 34.8556ZM53.6613 23.5581C59.7475 23.5581 63.8176 27.8565 63.8176 33.7905C63.8176 39.4963 59.291 44.2511 53.357 44.2511C47.2708 44.2511 42.9725 40.257 42.9725 34.0187C42.9725 28.3129 47.5371 23.5581 53.6613 23.5581Z" fill="#4573A6"/>
<path d="M39.7291 23.5581C41.9353 23.5581 43.0004 25.2698 43.0004 27.2098C43.0004 28.389 42.3918 29.5302 41.1365 29.5302C39.9573 29.5302 39.3107 28.5031 37.9793 28.5031C34.8601 28.5031 34.5558 33.5623 34.5558 36.1108C34.5558 38.7735 34.746 39.5724 34.9362 40.1049C35.1264 40.7515 35.5829 41.3221 36.3436 41.7406C36.8381 42.0068 37.2566 42.2731 37.2566 42.8437C37.2566 43.4903 36.648 43.8327 35.8111 43.8327H27.6328C26.796 43.8327 26.1493 43.5284 26.1493 42.8437C26.1493 42.2731 26.5677 42.0449 27.1003 41.7406C27.823 41.3221 28.2795 40.7515 28.5077 40.1049C28.6979 39.5724 28.85 38.7735 28.85 36.1108V31.1278C28.85 30.0627 28.812 29.2639 28.6218 28.6553C28.4316 28.0467 28.0512 27.6663 27.2144 27.362C26.796 27.2098 26.0352 27.0577 26.0352 26.2969C26.0352 25.8024 26.4156 25.4981 27.2905 25.3079C29.0022 24.9275 30.4857 24.471 31.9692 23.8624C32.5017 23.6342 32.8441 23.5581 33.1484 23.5581C33.719 23.5581 34.1754 23.9005 34.1754 24.8134V27.7043C34.1754 27.8184 34.2135 27.8565 34.2515 27.8565C34.2896 27.8565 34.3276 27.8565 34.4037 27.7043C35.3166 25.8785 37.2946 23.5581 39.7291 23.5581Z" fill="#4573A6"/>
<path d="M17.2741 27.5524C17.7306 26.8677 18.0729 25.8026 18.0729 24.7375C18.0729 23.5964 17.7306 22.4172 16.8937 21.5042C15.7526 20.287 14.2691 19.7925 12.1009 19.7925H10.9217C10.5033 19.7925 10.3511 19.9827 10.3511 20.3631V29.2641C10.3511 29.5684 10.5033 29.7206 10.8076 29.7206H12.1009C14.7636 29.7206 16.3612 28.9598 17.2741 27.5524ZM23.9689 27.7045C22.5235 31.2041 19.0239 32.9158 13.4322 32.9158H10.8076C10.4272 32.9158 10.3511 33.1821 10.3511 33.4484V36.1491C10.3511 38.7738 10.5413 39.5726 10.7315 40.1051C10.9597 40.7518 11.3781 41.3223 12.1389 41.7408C12.6334 42.007 13.0518 42.2733 13.0518 42.8439C13.0518 43.4905 12.4432 43.8329 11.6064 43.8329H2.78143C1.98262 43.8329 1.33596 43.4905 1.33596 42.8439C1.33596 42.2733 1.75439 42.0451 2.28693 41.7408C3.00966 41.3223 3.42808 40.7518 3.65631 40.1051C3.84651 39.5726 4.0367 38.7738 4.0367 36.1491V21.6184C4.0367 20.287 3.96062 19.4121 2.97162 18.8415C2.28693 18.4231 1.60223 18.309 1.60223 17.5482C1.60223 17.0918 1.98262 16.6733 2.8575 16.6733H11.226C16.171 16.6733 19.8988 16.7114 22.4474 19.1458C24.007 20.6294 24.5775 22.6454 24.5775 24.5854C24.5775 25.6504 24.3493 26.7916 23.9689 27.7045Z" fill="#4573A6"/>
<path d="M355.428 40.6143C359.734 38.9876 380.054 30.4503 380.262 14.0081C380.304 10.5507 378.997 7.28062 376.584 4.80098C374.171 2.32134 370.934 0.935902 367.477 0.890137C366.587 0.898458 365.746 0.956704 364.902 1.1148C361.677 1.72223 358.715 3.62772 356.776 6.33619C356.731 6.3986 356.668 6.43188 356.614 6.48597C356.535 6.57334 356.477 6.66903 356.377 6.73976C356.352 6.7564 356.323 6.76056 356.298 6.77304C356.21 6.83129 356.119 6.85625 356.023 6.89785C355.903 6.94778 355.79 7.00603 355.665 7.03099C355.566 7.05179 355.462 7.03931 355.358 7.03931C355.237 7.03931 355.12 7.05179 355.004 7.03099C354.896 7.01019 354.796 6.96026 354.692 6.91866C354.58 6.87289 354.471 6.83961 354.372 6.77304C354.351 6.76056 354.326 6.7564 354.305 6.74392C354.218 6.68151 354.164 6.58998 354.093 6.51509C354.03 6.45268 353.955 6.41524 353.906 6.34035C351.954 3.64021 348.984 1.75135 345.755 1.16057C344.911 1.00663 344.045 0.935902 343.176 0.948383C339.718 1.01079 336.49 2.41287 334.085 4.90499C331.684 7.39295 330.395 10.6672 330.457 14.1288C330.757 30.546 351.114 39.0042 355.428 40.6143Z" fill="#4573A6"/>
<path d="M296.108 28.0869L294.282 28.141C293.208 28.1784 292.131 28.2159 291.062 28.2076C290.034 28.1743 289.056 28.2533 288.058 28.3033C286.319 28.3906 284.534 28.478 282.712 28.2949C282.87 29.7885 283.015 31.149 283.161 32.5137L283.211 32.9838C284.055 40.8596 286.818 48.4982 291.419 55.6958C291.744 56.2075 292.181 56.4488 292.797 56.4696C294.249 56.5071 295.701 56.5112 297.148 56.4655C297.922 56.4405 298.409 56.245 298.6 55.883C298.717 55.6667 298.879 55.5668 299.012 55.3921L297.772 28.8275C297.515 28.4197 297.094 28.116 296.108 28.0869Z" fill="#4573A6"/>
<path d="M378.756 40.6228C377.703 40.3399 376.543 40.3108 375.211 40.5521C370.327 41.4133 361.082 43.1191 355.407 44.1758C355.324 46.5556 353.926 48.7648 351.551 50.1544C350.319 50.8784 348.934 51.3818 347.07 51.7853C342.731 52.7381 337.501 53.7699 332.163 53.6534C329.313 53.6326 326.463 53.3705 323.709 53.1125L322.69 53.021C321.716 52.9336 321 52.0724 321.088 51.103C321.175 50.1295 322.041 49.4014 323.006 49.5012L324.029 49.5969C326.713 49.8466 329.484 50.1004 332.184 50.1212C337.297 50.1669 342.165 49.2391 346.309 48.3321C347.798 48.0076 348.859 47.629 349.758 47.1006C351.322 46.1853 352.075 44.8498 351.825 43.4311C351.817 43.3978 351.813 43.3604 351.805 43.3271C351.775 43.2397 351.75 43.1524 351.734 43.0608C351.73 43.04 351.725 43.0192 351.721 42.9984C351.468 42.1705 350.831 41.38 348.867 40.8724C346.554 40.2816 344.099 40.5271 341.977 40.8017C336.864 41.4715 332.712 41.1304 328.922 39.7283C326.293 38.7547 324.179 37.1446 322.132 35.5886L321.079 34.7898C314.801 30.1093 308.348 28.6614 301.375 30.3298L302.507 54.6353C302.524 54.6436 302.54 54.6394 302.557 54.6477C309.688 57.8388 316.827 61.0133 323.975 64.1669C326.63 65.3402 329.068 65.8144 331.46 65.6231C334.401 65.3901 337.447 64.5497 340.775 63.0561C344.008 61.6082 347.161 59.9856 350.311 58.3672C352 57.4977 353.689 56.6281 355.391 55.7877C362.934 52.0516 371.034 48.0867 379.147 44.4213C380.354 43.8763 380.932 43.2481 380.87 42.5449C380.778 41.3051 379.359 40.7892 378.756 40.6228Z" fill="#4573A6"/>
</svg>
